<?xml version="1.0" encoding="utf-8" standalone="no"?>
<!DOCTYPE svg PUBLIC "-//W3C//DTD SVG 1.1//EN"
  "http://www.w3.org/Graphics/SVG/1.1/DTD/svg11.dtd">
<svg xmlns:xlink="http://www.w3.org/1999/xlink" width="432pt" height="288pt" viewBox="0 0 432 288" xmlns="http://www.w3.org/2000/svg" version="1.1">
 <metadata>
  <rdf:RDF xmlns:dc="http://purl.org/dc/elements/1.1/" xmlns:cc="http://creativecommons.org/ns#" xmlns:rdf="http://www.w3.org/1999/02/22-rdf-syntax-ns#">
   <cc:Work>
    <dc:type rdf:resource="http://purl.org/dc/dcmitype/StillImage"/>
    <dc:date>2022-06-15T19:05:15.891262</dc:date>
    <dc:format>image/svg+xml</dc:format>
    <dc:creator>
     <cc:Agent>
      <dc:title>Matplotlib v3.5.2, https://matplotlib.org/</dc:title>
     </cc:Agent>
    </dc:creator>
   </cc:Work>
  </rdf:RDF>
 </metadata>
 <defs>
  <style type="text/css">*{stroke-linejoin: round; stroke-linecap: butt}</style>
 </defs>
 <g id="figure_1">
  <g id="patch_1">
   <path d="M 0 288 
L 432 288 
L 432 0 
L 0 0 
L 0 288 
z
" style="fill: none"/>
  </g>
  <g id="axes_1">
   <g id="patch_2">
    <path d="M 54 252 
L 388.8 252 
L 388.8 34.56 
L 54 34.56 
z
" style="fill: #ffffff"/>
   </g>
   <g id="PathCollection_1">
    <defs>
     <path id="m62a1ee4753" d="M 0 3 
C 0.795609 3 1.55874 2.683901 2.12132 2.12132 
C 2.683901 1.55874 3 0.795609 3 0 
C 3 -0.795609 2.683901 -1.55874 2.12132 -2.12132 
C 1.55874 -2.683901 0.795609 -3 0 -3 
C -0.795609 -3 -1.55874 -2.683901 -2.12132 -2.12132 
C -2.683901 -1.55874 -3 -0.795609 -3 0 
C -3 0.795609 -2.683901 1.55874 -2.12132 2.12132 
C -1.55874 2.683901 -0.795609 3 0 3 
z
" style="stroke: #1f77b4"/>
    </defs>
    <g clip-path="url(#p3537daf043)">
     <use xlink:href="#m62a1ee4753" x="142.119652" y="131.492177" style="fill: #1f77b4; stroke: #1f77b4"/>
     <use xlink:href="#m62a1ee4753" x="133.006968" y="175.016447" style="fill: #1f77b4; stroke: #1f77b4"/>
     <use xlink:href="#m62a1ee4753" x="89.266086" y="156.276831" style="fill: #1f77b4; stroke: #1f77b4"/>
     <use xlink:href="#m62a1ee4753" x="100.201306" y="57.138215" style="fill: #1f77b4; stroke: #1f77b4"/>
     <use xlink:href="#m62a1ee4753" x="109.31399" y="65.601268" style="fill: #1f77b4; stroke: #1f77b4"/>
     <use xlink:href="#m62a1ee4753" x="102.023843" y="186.502018" style="fill: #1f77b4; stroke: #1f77b4"/>
     <use xlink:href="#m62a1ee4753" x="81.975939" y="234.862319" style="fill: #1f77b4; stroke: #1f77b4"/>
     <use xlink:href="#m62a1ee4753" x="96.556233" y="91.594929" style="fill: #1f77b4; stroke: #1f77b4"/>
     <use xlink:href="#m62a1ee4753" x="87.443549" y="71.041802" style="fill: #1f77b4; stroke: #1f77b4"/>
     <use xlink:href="#m62a1ee4753" x="92.911159" y="80.713862" style="fill: #1f77b4; stroke: #1f77b4"/>
     <use xlink:href="#m62a1ee4753" x="100.201306" y="207.055146" style="fill: #1f77b4; stroke: #1f77b4"/>
     <use xlink:href="#m62a1ee4753" x="92.911159" y="44.443636" style="fill: #1f77b4; stroke: #1f77b4"/>
     <use xlink:href="#m62a1ee4753" x="129.361894" y="60.765238" style="fill: #1f77b4; stroke: #1f77b4"/>
     <use xlink:href="#m62a1ee4753" x="78.330866" y="199.196597" style="fill: #1f77b4; stroke: #1f77b4"/>
     <use xlink:href="#m62a1ee4753" x="122.071747" y="51.697681" style="fill: #1f77b4; stroke: #1f77b4"/>
     <use xlink:href="#m62a1ee4753" x="87.443549" y="219.749725" style="fill: #1f77b4; stroke: #1f77b4"/>
     <use xlink:href="#m62a1ee4753" x="69.218182" y="241.51186" style="fill: #1f77b4; stroke: #1f77b4"/>
     <use xlink:href="#m62a1ee4753" x="87.443549" y="52.906689" style="fill: #1f77b4; stroke: #1f77b4"/>
     <use xlink:href="#m62a1ee4753" x="74.685792" y="231.235296" style="fill: #1f77b4; stroke: #1f77b4"/>
     <use xlink:href="#m62a1ee4753" x="125.716821" y="190.733545" style="fill: #1f77b4; stroke: #1f77b4"/>
     <use xlink:href="#m62a1ee4753" x="109.31399" y="238.489341" style="fill: #1f77b4; stroke: #1f77b4"/>
     <use xlink:href="#m62a1ee4753" x="149.409799" y="94.012944" style="fill: #1f77b4; stroke: #1f77b4"/>
     <use xlink:href="#m62a1ee4753" x="276.987371" y="111.543553" style="fill: #1f77b4; stroke: #1f77b4"/>
     <use xlink:href="#m62a1ee4753" x="134.829505" y="77.691343" style="fill: #1f77b4; stroke: #1f77b4"/>
     <use xlink:href="#m62a1ee4753" x="120.249211" y="169.575913" style="fill: #1f77b4; stroke: #1f77b4"/>
     <use xlink:href="#m62a1ee4753" x="196.795754" y="70.437298" style="fill: #1f77b4; stroke: #1f77b4"/>
     <use xlink:href="#m62a1ee4753" x="138.474578" y="51.093178" style="fill: #1f77b4; stroke: #1f77b4"/>
     <use xlink:href="#m62a1ee4753" x="109.31399" y="156.881334" style="fill: #1f77b4; stroke: #1f77b4"/>
     <use xlink:href="#m62a1ee4753" x="105.668917" y="130.887673" style="fill: #1f77b4; stroke: #1f77b4"/>
     <use xlink:href="#m62a1ee4753" x="134.829505" y="74.668824" style="fill: #1f77b4; stroke: #1f77b4"/>
     <use xlink:href="#m62a1ee4753" x="103.84638" y="223.981251" style="fill: #1f77b4; stroke: #1f77b4"/>
     <use xlink:href="#m62a1ee4753" x="89.266086" y="173.80744" style="fill: #1f77b4; stroke: #1f77b4"/>
     <use xlink:href="#m62a1ee4753" x="91.088623" y="163.530876" style="fill: #1f77b4; stroke: #1f77b4"/>
     <use xlink:href="#m62a1ee4753" x="313.438106" y="83.73638" style="fill: #1f77b4; stroke: #1f77b4"/>
     <use xlink:href="#m62a1ee4753" x="156.699946" y="96.430959" style="fill: #1f77b4; stroke: #1f77b4"/>
     <use xlink:href="#m62a1ee4753" x="125.716821" y="103.685004" style="fill: #1f77b4; stroke: #1f77b4"/>
     <use xlink:href="#m62a1ee4753" x="184.037997" y="140.559733" style="fill: #1f77b4; stroke: #1f77b4"/>
     <use xlink:href="#m62a1ee4753" x="140.297115" y="56.533711" style="fill: #1f77b4; stroke: #1f77b4"/>
     <use xlink:href="#m62a1ee4753" x="207.730974" y="79.504854" style="fill: #1f77b4; stroke: #1f77b4"/>
     <use xlink:href="#m62a1ee4753" x="244.181709" y="84.945388" style="fill: #1f77b4; stroke: #1f77b4"/>
     <use xlink:href="#m62a1ee4753" x="244.181709" y="81.922869" style="fill: #1f77b4; stroke: #1f77b4"/>
     <use xlink:href="#m62a1ee4753" x="222.311268" y="140.559733" style="fill: #1f77b4; stroke: #1f77b4"/>
     <use xlink:href="#m62a1ee4753" x="85.621013" y="86.758899" style="fill: #1f77b4; stroke: #1f77b4"/>
     <use xlink:href="#m62a1ee4753" x="116.604137" y="140.559733" style="fill: #1f77b4; stroke: #1f77b4"/>
     <use xlink:href="#m62a1ee4753" x="80.153402" y="217.33171" style="fill: #1f77b4; stroke: #1f77b4"/>
     <use xlink:href="#m62a1ee4753" x="154.877409" y="89.176914" style="fill: #1f77b4; stroke: #1f77b4"/>
     <use xlink:href="#m62a1ee4753" x="131.184431" y="80.713862" style="fill: #1f77b4; stroke: #1f77b4"/>
     <use xlink:href="#m62a1ee4753" x="178.570386" y="74.06432" style="fill: #1f77b4; stroke: #1f77b4"/>
     <use xlink:href="#m62a1ee4753" x="211.376048" y="133.305688" style="fill: #1f77b4; stroke: #1f77b4"/>
     <use xlink:href="#m62a1ee4753" x="182.21546" y="113.357064" style="fill: #1f77b4; stroke: #1f77b4"/>
     <use xlink:href="#m62a1ee4753" x="96.556233" y="242.116364" style="fill: #1f77b4; stroke: #1f77b4"/>
     <use xlink:href="#m62a1ee4753" x="213.198585" y="68.623786" style="fill: #1f77b4; stroke: #1f77b4"/>
     <use xlink:href="#m62a1ee4753" x="264.229614" y="111.543553" style="fill: #1f77b4; stroke: #1f77b4"/>
     <use xlink:href="#m62a1ee4753" x="103.84638" y="197.383086" style="fill: #1f77b4; stroke: #1f77b4"/>
     <use xlink:href="#m62a1ee4753" x="162.167556" y="196.778582" style="fill: #1f77b4; stroke: #1f77b4"/>
     <use xlink:href="#m62a1ee4753" x="216.843658" y="117.58859" style="fill: #1f77b4; stroke: #1f77b4"/>
     <use xlink:href="#m62a1ee4753" x="158.522482" y="80.109358" style="fill: #1f77b4; stroke: #1f77b4"/>
     <use xlink:href="#m62a1ee4753" x="184.037997" y="93.40844" style="fill: #1f77b4; stroke: #1f77b4"/>
     <use xlink:href="#m62a1ee4753" x="174.925313" y="92.803937" style="fill: #1f77b4; stroke: #1f77b4"/>
     <use xlink:href="#m62a1ee4753" x="138.474578" y="196.174078" style="fill: #1f77b4; stroke: #1f77b4"/>
     <use xlink:href="#m62a1ee4753" x="83.798476" y="231.8398" style="fill: #1f77b4; stroke: #1f77b4"/>
     <use xlink:href="#m62a1ee4753" x="96.556233" y="199.801101" style="fill: #1f77b4; stroke: #1f77b4"/>
     <use xlink:href="#m62a1ee4753" x="289.745128" y="92.199433" style="fill: #1f77b4; stroke: #1f77b4"/>
     <use xlink:href="#m62a1ee4753" x="229.601415" y="107.91653" style="fill: #1f77b4; stroke: #1f77b4"/>
     <use xlink:href="#m62a1ee4753" x="267.874687" y="121.215613" style="fill: #1f77b4; stroke: #1f77b4"/>
     <use xlink:href="#m62a1ee4753" x="147.587262" y="130.283169" style="fill: #1f77b4; stroke: #1f77b4"/>
     <use xlink:href="#m62a1ee4753" x="118.426674" y="81.318365" style="fill: #1f77b4; stroke: #1f77b4"/>
     <use xlink:href="#m62a1ee4753" x="185.860533" y="151.440801" style="fill: #1f77b4; stroke: #1f77b4"/>
     <use xlink:href="#m62a1ee4753" x="107.491453" y="203.428123" style="fill: #1f77b4; stroke: #1f77b4"/>
     <use xlink:href="#m62a1ee4753" x="174.925313" y="215.518198" style="fill: #1f77b4; stroke: #1f77b4"/>
     <use xlink:href="#m62a1ee4753" x="109.31399" y="176.829958" style="fill: #1f77b4; stroke: #1f77b4"/>
     <use xlink:href="#m62a1ee4753" x="123.894284" y="98.848974" style="fill: #1f77b4; stroke: #1f77b4"/>
     <use xlink:href="#m62a1ee4753" x="147.587262" y="131.492177" style="fill: #1f77b4; stroke: #1f77b4"/>
     <use xlink:href="#m62a1ee4753" x="105.668917" y="89.781418" style="fill: #1f77b4; stroke: #1f77b4"/>
     <use xlink:href="#m62a1ee4753" x="83.798476" y="224.585755" style="fill: #1f77b4; stroke: #1f77b4"/>
     <use xlink:href="#m62a1ee4753" x="149.409799" y="118.193094" style="fill: #1f77b4; stroke: #1f77b4"/>
     <use xlink:href="#m62a1ee4753" x="373.581818" y="102.475997" style="fill: #1f77b4; stroke: #1f77b4"/>
     <use xlink:href="#m62a1ee4753" x="200.440827" y="116.379583" style="fill: #1f77b4; stroke: #1f77b4"/>
     <use xlink:href="#m62a1ee4753" x="205.908438" y="123.633628" style="fill: #1f77b4; stroke: #1f77b4"/>
     <use xlink:href="#m62a1ee4753" x="282.454981" y="110.334545" style="fill: #1f77b4; stroke: #1f77b4"/>
     <use xlink:href="#m62a1ee4753" x="220.488732" y="103.0805" style="fill: #1f77b4; stroke: #1f77b4"/>
     <use xlink:href="#m62a1ee4753" x="222.311268" y="132.701184" style="fill: #1f77b4; stroke: #1f77b4"/>
     <use xlink:href="#m62a1ee4753" x="242.359173" y="145.395763" style="fill: #1f77b4; stroke: #1f77b4"/>
     <use xlink:href="#m62a1ee4753" x="209.553511" y="127.260651" style="fill: #1f77b4; stroke: #1f77b4"/>
     <use xlink:href="#m62a1ee4753" x="200.440827" y="135.723703" style="fill: #1f77b4; stroke: #1f77b4"/>
     <use xlink:href="#m62a1ee4753" x="233.246489" y="132.096681" style="fill: #1f77b4; stroke: #1f77b4"/>
     <use xlink:href="#m62a1ee4753" x="153.054872" y="188.920033" style="fill: #1f77b4; stroke: #1f77b4"/>
     <use xlink:href="#m62a1ee4753" x="125.716821" y="190.733545" style="fill: #1f77b4; stroke: #1f77b4"/>
     <use xlink:href="#m62a1ee4753" x="103.84638" y="94.012944" style="fill: #1f77b4; stroke: #1f77b4"/>
     <use xlink:href="#m62a1ee4753" x="109.31399" y="113.357064" style="fill: #1f77b4; stroke: #1f77b4"/>
     <use xlink:href="#m62a1ee4753" x="105.668917" y="107.312027" style="fill: #1f77b4; stroke: #1f77b4"/>
     <use xlink:href="#m62a1ee4753" x="111.136527" y="89.781418" style="fill: #1f77b4; stroke: #1f77b4"/>
     <use xlink:href="#m62a1ee4753" x="147.587262" y="103.685004" style="fill: #1f77b4; stroke: #1f77b4"/>
     <use xlink:href="#m62a1ee4753" x="105.668917" y="89.781418" style="fill: #1f77b4; stroke: #1f77b4"/>
     <use xlink:href="#m62a1ee4753" x="118.426674" y="102.475997" style="fill: #1f77b4; stroke: #1f77b4"/>
     <use xlink:href="#m62a1ee4753" x="83.798476" y="231.8398" style="fill: #1f77b4; stroke: #1f77b4"/>
     <use xlink:href="#m62a1ee4753" x="91.088623" y="178.64347" style="fill: #1f77b4; stroke: #1f77b4"/>
     <use xlink:href="#m62a1ee4753" x="151.232335" y="103.0805" style="fill: #1f77b4; stroke: #1f77b4"/>
     <use xlink:href="#m62a1ee4753" x="100.201306" y="110.939049" style="fill: #1f77b4; stroke: #1f77b4"/>
     <use xlink:href="#m62a1ee4753" x="91.088623" y="230.026289" style="fill: #1f77b4; stroke: #1f77b4"/>
     <use xlink:href="#m62a1ee4753" x="111.136527" y="102.475997" style="fill: #1f77b4; stroke: #1f77b4"/>
     <use xlink:href="#m62a1ee4753" x="96.556233" y="124.842636" style="fill: #1f77b4; stroke: #1f77b4"/>
     <use xlink:href="#m62a1ee4753" x="91.088623" y="102.475997" style="fill: #1f77b4; stroke: #1f77b4"/>
     <use xlink:href="#m62a1ee4753" x="109.31399" y="237.884837" style="fill: #1f77b4; stroke: #1f77b4"/>
     <use xlink:href="#m62a1ee4753" x="133.006968" y="162.321868" style="fill: #1f77b4; stroke: #1f77b4"/>
     <use xlink:href="#m62a1ee4753" x="80.153402" y="216.727206" style="fill: #1f77b4; stroke: #1f77b4"/>
     <use xlink:href="#m62a1ee4753" x="92.911159" y="234.257815" style="fill: #1f77b4; stroke: #1f77b4"/>
     <use xlink:href="#m62a1ee4753" x="122.071747" y="129.678666" style="fill: #1f77b4; stroke: #1f77b4"/>
     <use xlink:href="#m62a1ee4753" x="92.911159" y="130.887673" style="fill: #1f77b4; stroke: #1f77b4"/>
     <use xlink:href="#m62a1ee4753" x="100.201306" y="167.157898" style="fill: #1f77b4; stroke: #1f77b4"/>
     <use xlink:href="#m62a1ee4753" x="103.84638" y="111.543553" style="fill: #1f77b4; stroke: #1f77b4"/>
    </g>
   </g>
   <g id="matplotlib.axis_1">
    <g id="xtick_1">
     <g id="line2d_1">
      <defs>
       <path id="mf47386be1e" d="M 0 0 
L 0 3.5 
" style="stroke: #000000; stroke-width: 0.8"/>
      </defs>
      <g>
       <use xlink:href="#mf47386be1e" x="67.395645" y="252" style="stroke: #000000; stroke-width: 0.8"/>
      </g>
     </g>
     <g id="text_1">
      <!-- 0 -->
      <g transform="translate(64.214395 266.598437)scale(0.1 -0.1)">
       <defs>
        <path id="DejaVuSans-30" d="M 2034 4250 
Q 1547 4250 1301 3770 
Q 1056 3291 1056 2328 
Q 1056 1369 1301 889 
Q 1547 409 2034 409 
Q 2525 409 2770 889 
Q 3016 1369 3016 2328 
Q 3016 3291 2770 3770 
Q 2525 4250 2034 4250 
z
M 2034 4750 
Q 2819 4750 3233 4129 
Q 3647 3509 3647 2328 
Q 3647 1150 3233 529 
Q 2819 -91 2034 -91 
Q 1250 -91 836 529 
Q 422 1150 422 2328 
Q 422 3509 836 4129 
Q 1250 4750 2034 4750 
z
" transform="scale(0.015625)"/>
       </defs>
       <use xlink:href="#DejaVuSans-30"/>
      </g>
     </g>
    </g>
    <g id="xtick_2">
     <g id="line2d_2">
      <g>
       <use xlink:href="#mf47386be1e" x="112.959064" y="252" style="stroke: #000000; stroke-width: 0.8"/>
      </g>
     </g>
     <g id="text_2">
      <!-- 25 -->
      <g transform="translate(106.596564 266.598437)scale(0.1 -0.1)">
       <defs>
        <path id="DejaVuSans-32" d="M 1228 531 
L 3431 531 
L 3431 0 
L 469 0 
L 469 531 
Q 828 903 1448 1529 
Q 2069 2156 2228 2338 
Q 2531 2678 2651 2914 
Q 2772 3150 2772 3378 
Q 2772 3750 2511 3984 
Q 2250 4219 1831 4219 
Q 1534 4219 1204 4116 
Q 875 4013 500 3803 
L 500 4441 
Q 881 4594 1212 4672 
Q 1544 4750 1819 4750 
Q 2544 4750 2975 4387 
Q 3406 4025 3406 3419 
Q 3406 3131 3298 2873 
Q 3191 2616 2906 2266 
Q 2828 2175 2409 1742 
Q 1991 1309 1228 531 
z
" transform="scale(0.015625)"/>
        <path id="DejaVuSans-35" d="M 691 4666 
L 3169 4666 
L 3169 4134 
L 1269 4134 
L 1269 2991 
Q 1406 3038 1543 3061 
Q 1681 3084 1819 3084 
Q 2600 3084 3056 2656 
Q 3513 2228 3513 1497 
Q 3513 744 3044 326 
Q 2575 -91 1722 -91 
Q 1428 -91 1123 -41 
Q 819 9 494 109 
L 494 744 
Q 775 591 1075 516 
Q 1375 441 1709 441 
Q 2250 441 2565 725 
Q 2881 1009 2881 1497 
Q 2881 1984 2565 2268 
Q 2250 2553 1709 2553 
Q 1456 2553 1204 2497 
Q 953 2441 691 2322 
L 691 4666 
z
" transform="scale(0.015625)"/>
       </defs>
       <use xlink:href="#DejaVuSans-32"/>
       <use xlink:href="#DejaVuSans-35" x="63.623047"/>
      </g>
     </g>
    </g>
    <g id="xtick_3">
     <g id="line2d_3">
      <g>
       <use xlink:href="#mf47386be1e" x="158.522482" y="252" style="stroke: #000000; stroke-width: 0.8"/>
      </g>
     </g>
     <g id="text_3">
      <!-- 50 -->
      <g transform="translate(152.159982 266.598437)scale(0.1 -0.1)">
       <use xlink:href="#DejaVuSans-35"/>
       <use xlink:href="#DejaVuSans-30" x="63.623047"/>
      </g>
     </g>
    </g>
    <g id="xtick_4">
     <g id="line2d_4">
      <g>
       <use xlink:href="#mf47386be1e" x="204.085901" y="252" style="stroke: #000000; stroke-width: 0.8"/>
      </g>
     </g>
     <g id="text_4">
      <!-- 75 -->
      <g transform="translate(197.723401 266.598437)scale(0.1 -0.1)">
       <defs>
        <path id="DejaVuSans-37" d="M 525 4666 
L 3525 4666 
L 3525 4397 
L 1831 0 
L 1172 0 
L 2766 4134 
L 525 4134 
L 525 4666 
z
" transform="scale(0.015625)"/>
       </defs>
       <use xlink:href="#DejaVuSans-37"/>
       <use xlink:href="#DejaVuSans-35" x="63.623047"/>
      </g>
     </g>
    </g>
    <g id="xtick_5">
     <g id="line2d_5">
      <g>
       <use xlink:href="#mf47386be1e" x="249.64932" y="252" style="stroke: #000000; stroke-width: 0.8"/>
      </g>
     </g>
     <g id="text_5">
      <!-- 100 -->
      <g transform="translate(240.10557 266.598437)scale(0.1 -0.1)">
       <defs>
        <path id="DejaVuSans-31" d="M 794 531 
L 1825 531 
L 1825 4091 
L 703 3866 
L 703 4441 
L 1819 4666 
L 2450 4666 
L 2450 531 
L 3481 531 
L 3481 0 
L 794 0 
L 794 531 
z
" transform="scale(0.015625)"/>
       </defs>
       <use xlink:href="#DejaVuSans-31"/>
       <use xlink:href="#DejaVuSans-30" x="63.623047"/>
       <use xlink:href="#DejaVuSans-30" x="127.246094"/>
      </g>
     </g>
    </g>
    <g id="xtick_6">
     <g id="line2d_6">
      <g>
       <use xlink:href="#mf47386be1e" x="295.212738" y="252" style="stroke: #000000; stroke-width: 0.8"/>
      </g>
     </g>
     <g id="text_6">
      <!-- 125 -->
      <g transform="translate(285.668988 266.598437)scale(0.1 -0.1)">
       <use xlink:href="#DejaVuSans-31"/>
       <use xlink:href="#DejaVuSans-32" x="63.623047"/>
       <use xlink:href="#DejaVuSans-35" x="127.246094"/>
      </g>
     </g>
    </g>
    <g id="xtick_7">
     <g id="line2d_7">
      <g>
       <use xlink:href="#mf47386be1e" x="340.776157" y="252" style="stroke: #000000; stroke-width: 0.8"/>
      </g>
     </g>
     <g id="text_7">
      <!-- 150 -->
      <g transform="translate(331.232407 266.598437)scale(0.1 -0.1)">
       <use xlink:href="#DejaVuSans-31"/>
       <use xlink:href="#DejaVuSans-35" x="63.623047"/>
       <use xlink:href="#DejaVuSans-30" x="127.246094"/>
      </g>
     </g>
    </g>
    <g id="xtick_8">
     <g id="line2d_8">
      <g>
       <use xlink:href="#mf47386be1e" x="386.339575" y="252" style="stroke: #000000; stroke-width: 0.8"/>
      </g>
     </g>
     <g id="text_8">
      <!-- 175 -->
      <g transform="translate(376.795825 266.598437)scale(0.1 -0.1)">
       <use xlink:href="#DejaVuSans-31"/>
       <use xlink:href="#DejaVuSans-37" x="63.623047"/>
       <use xlink:href="#DejaVuSans-35" x="127.246094"/>
      </g>
     </g>
    </g>
   </g>
   <g id="matplotlib.axis_2">
    <g id="ytick_1">
     <g id="line2d_9">
      <defs>
       <path id="m19bbdb7735" d="M 0 0 
L -3.5 0 
" style="stroke: #000000; stroke-width: 0.8"/>
      </defs>
      <g>
       <use xlink:href="#m19bbdb7735" x="54" y="246.34789" style="stroke: #000000; stroke-width: 0.8"/>
      </g>
     </g>
     <g id="text_9">
      <!-- 0 -->
      <g transform="translate(40.6375 250.147109)scale(0.1 -0.1)">
       <use xlink:href="#DejaVuSans-30"/>
      </g>
     </g>
    </g>
    <g id="ytick_2">
     <g id="line2d_10">
      <g>
       <use xlink:href="#m19bbdb7735" x="54" y="216.122702" style="stroke: #000000; stroke-width: 0.8"/>
      </g>
     </g>
     <g id="text_10">
      <!-- 50 -->
      <g transform="translate(34.275 219.921921)scale(0.1 -0.1)">
       <use xlink:href="#DejaVuSans-35"/>
       <use xlink:href="#DejaVuSans-30" x="63.623047"/>
      </g>
     </g>
    </g>
    <g id="ytick_3">
     <g id="line2d_11">
      <g>
       <use xlink:href="#m19bbdb7735" x="54" y="185.897515" style="stroke: #000000; stroke-width: 0.8"/>
      </g>
     </g>
     <g id="text_11">
      <!-- 100 -->
      <g transform="translate(27.9125 189.696733)scale(0.1 -0.1)">
       <use xlink:href="#DejaVuSans-31"/>
       <use xlink:href="#DejaVuSans-30" x="63.623047"/>
       <use xlink:href="#DejaVuSans-30" x="127.246094"/>
      </g>
     </g>
    </g>
    <g id="ytick_4">
     <g id="line2d_12">
      <g>
       <use xlink:href="#m19bbdb7735" x="54" y="155.672327" style="stroke: #000000; stroke-width: 0.8"/>
      </g>
     </g>
     <g id="text_12">
      <!-- 150 -->
      <g transform="translate(27.9125 159.471546)scale(0.1 -0.1)">
       <use xlink:href="#DejaVuSans-31"/>
       <use xlink:href="#DejaVuSans-35" x="63.623047"/>
       <use xlink:href="#DejaVuSans-30" x="127.246094"/>
      </g>
     </g>
    </g>
    <g id="ytick_5">
     <g id="line2d_13">
      <g>
       <use xlink:href="#m19bbdb7735" x="54" y="125.447139" style="stroke: #000000; stroke-width: 0.8"/>
      </g>
     </g>
     <g id="text_13">
      <!-- 200 -->
      <g transform="translate(27.9125 129.246358)scale(0.1 -0.1)">
       <use xlink:href="#DejaVuSans-32"/>
       <use xlink:href="#DejaVuSans-30" x="63.623047"/>
       <use xlink:href="#DejaVuSans-30" x="127.246094"/>
      </g>
     </g>
    </g>
    <g id="ytick_6">
     <g id="line2d_14">
      <g>
       <use xlink:href="#m19bbdb7735" x="54" y="95.221952" style="stroke: #000000; stroke-width: 0.8"/>
      </g>
     </g>
     <g id="text_14">
      <!-- 250 -->
      <g transform="translate(27.9125 99.02117)scale(0.1 -0.1)">
       <use xlink:href="#DejaVuSans-32"/>
       <use xlink:href="#DejaVuSans-35" x="63.623047"/>
       <use xlink:href="#DejaVuSans-30" x="127.246094"/>
      </g>
     </g>
    </g>
    <g id="ytick_7">
     <g id="line2d_15">
      <g>
       <use xlink:href="#m19bbdb7735" x="54" y="64.996764" style="stroke: #000000; stroke-width: 0.8"/>
      </g>
     </g>
     <g id="text_15">
      <!-- 300 -->
      <g transform="translate(27.9125 68.795983)scale(0.1 -0.1)">
       <defs>
        <path id="DejaVuSans-33" d="M 2597 2516 
Q 3050 2419 3304 2112 
Q 3559 1806 3559 1356 
Q 3559 666 3084 287 
Q 2609 -91 1734 -91 
Q 1441 -91 1130 -33 
Q 819 25 488 141 
L 488 750 
Q 750 597 1062 519 
Q 1375 441 1716 441 
Q 2309 441 2620 675 
Q 2931 909 2931 1356 
Q 2931 1769 2642 2001 
Q 2353 2234 1838 2234 
L 1294 2234 
L 1294 2753 
L 1863 2753 
Q 2328 2753 2575 2939 
Q 2822 3125 2822 3475 
Q 2822 3834 2567 4026 
Q 2313 4219 1838 4219 
Q 1578 4219 1281 4162 
Q 984 4106 628 3988 
L 628 4550 
Q 988 4650 1302 4700 
Q 1616 4750 1894 4750 
Q 2613 4750 3031 4423 
Q 3450 4097 3450 3541 
Q 3450 3153 3228 2886 
Q 3006 2619 2597 2516 
z
" transform="scale(0.015625)"/>
       </defs>
       <use xlink:href="#DejaVuSans-33"/>
       <use xlink:href="#DejaVuSans-30" x="63.623047"/>
       <use xlink:href="#DejaVuSans-30" x="127.246094"/>
      </g>
     </g>
    </g>
    <g id="ytick_8">
     <g id="line2d_16">
      <g>
       <use xlink:href="#m19bbdb7735" x="54" y="34.771576" style="stroke: #000000; stroke-width: 0.8"/>
      </g>
     </g>
     <g id="text_16">
      <!-- 350 -->
      <g transform="translate(27.9125 38.570795)scale(0.1 -0.1)">
       <use xlink:href="#DejaVuSans-33"/>
       <use xlink:href="#DejaVuSans-35" x="63.623047"/>
       <use xlink:href="#DejaVuSans-30" x="127.246094"/>
      </g>
     </g>
    </g>
   </g>
   <g id="patch_3">
    <path d="M 54 252 
L 54 34.56 
" style="fill: none; stroke: #000000; stroke-width: 0.8; stroke-linejoin: miter; stroke-linecap: square"/>
   </g>
   <g id="patch_4">
    <path d="M 388.8 252 
L 388.8 34.56 
" style="fill: none; stroke: #000000; stroke-width: 0.8; stroke-linejoin: miter; stroke-linecap: square"/>
   </g>
   <g id="patch_5">
    <path d="M 54 252 
L 388.8 252 
" style="fill: none; stroke: #000000; stroke-width: 0.8; stroke-linejoin: miter; stroke-linecap: square"/>
   </g>
   <g id="patch_6">
    <path d="M 54 34.56 
L 388.8 34.56 
" style="fill: none; stroke: #000000; stroke-width: 0.8; stroke-linejoin: miter; stroke-linecap: square"/>
   </g>
  </g>
 </g>
 <defs>
  <clipPath id="p3537daf043">
   <rect x="54" y="34.56" width="334.8" height="217.44"/>
  </clipPath>
 </defs>
</svg>
