<?xml version="1.0" encoding="utf-8" standalone="no"?>
<!DOCTYPE svg PUBLIC "-//W3C//DTD SVG 1.1//EN"
  "http://www.w3.org/Graphics/SVG/1.1/DTD/svg11.dtd">
<svg xmlns:xlink="http://www.w3.org/1999/xlink" width="432pt" height="288pt" viewBox="0 0 432 288" xmlns="http://www.w3.org/2000/svg" version="1.1">
 <metadata>
  <rdf:RDF xmlns:dc="http://purl.org/dc/elements/1.1/" xmlns:cc="http://creativecommons.org/ns#" xmlns:rdf="http://www.w3.org/1999/02/22-rdf-syntax-ns#">
   <cc:Work>
    <dc:type rdf:resource="http://purl.org/dc/dcmitype/StillImage"/>
    <dc:date>2022-07-18T14:28:49.772127</dc:date>
    <dc:format>image/svg+xml</dc:format>
    <dc:creator>
     <cc:Agent>
      <dc:title>Matplotlib v3.5.2, https://matplotlib.org/</dc:title>
     </cc:Agent>
    </dc:creator>
   </cc:Work>
  </rdf:RDF>
 </metadata>
 <defs>
  <style type="text/css">*{stroke-linejoin: round; stroke-linecap: butt}</style>
 </defs>
 <g id="figure_1">
  <g id="patch_1">
   <path d="M 0 288 
L 432 288 
L 432 0 
L 0 0 
L 0 288 
z
" style="fill: none"/>
  </g>
  <g id="axes_1">
   <g id="patch_2">
    <path d="M 54 252 
L 388.8 252 
L 388.8 34.56 
L 54 34.56 
z
" style="fill: #ffffff"/>
   </g>
   <g id="matplotlib.axis_1">
    <g id="xtick_1">
     <g id="line2d_1">
      <defs>
       <path id="me39238543e" d="M 0 0 
L 0 3.5 
" style="stroke: #000000; stroke-width: 0.8"/>
      </defs>
      <g>
       <use xlink:href="#me39238543e" x="62.702752" y="252" style="stroke: #000000; stroke-width: 0.8"/>
      </g>
     </g>
     <g id="text_1">
      <!-- 0 -->
      <g transform="translate(59.521502 266.598437)scale(0.1 -0.1)">
       <defs>
        <path id="DejaVuSans-30" d="M 2034 4250 
Q 1547 4250 1301 3770 
Q 1056 3291 1056 2328 
Q 1056 1369 1301 889 
Q 1547 409 2034 409 
Q 2525 409 2770 889 
Q 3016 1369 3016 2328 
Q 3016 3291 2770 3770 
Q 2525 4250 2034 4250 
z
M 2034 4750 
Q 2819 4750 3233 4129 
Q 3647 3509 3647 2328 
Q 3647 1150 3233 529 
Q 2819 -91 2034 -91 
Q 1250 -91 836 529 
Q 422 1150 422 2328 
Q 422 3509 836 4129 
Q 1250 4750 2034 4750 
z
" transform="scale(0.015625)"/>
       </defs>
       <use xlink:href="#DejaVuSans-30"/>
      </g>
     </g>
    </g>
    <g id="xtick_2">
     <g id="line2d_2">
      <g>
       <use xlink:href="#me39238543e" x="109.241535" y="252" style="stroke: #000000; stroke-width: 0.8"/>
      </g>
     </g>
     <g id="text_2">
      <!-- 50 -->
      <g transform="translate(102.879035 266.598437)scale(0.1 -0.1)">
       <defs>
        <path id="DejaVuSans-35" d="M 691 4666 
L 3169 4666 
L 3169 4134 
L 1269 4134 
L 1269 2991 
Q 1406 3038 1543 3061 
Q 1681 3084 1819 3084 
Q 2600 3084 3056 2656 
Q 3513 2228 3513 1497 
Q 3513 744 3044 326 
Q 2575 -91 1722 -91 
Q 1428 -91 1123 -41 
Q 819 9 494 109 
L 494 744 
Q 775 591 1075 516 
Q 1375 441 1709 441 
Q 2250 441 2565 725 
Q 2881 1009 2881 1497 
Q 2881 1984 2565 2268 
Q 2250 2553 1709 2553 
Q 1456 2553 1204 2497 
Q 953 2441 691 2322 
L 691 4666 
z
" transform="scale(0.015625)"/>
       </defs>
       <use xlink:href="#DejaVuSans-35"/>
       <use xlink:href="#DejaVuSans-30" x="63.623047"/>
      </g>
     </g>
    </g>
    <g id="xtick_3">
     <g id="line2d_3">
      <g>
       <use xlink:href="#me39238543e" x="155.780317" y="252" style="stroke: #000000; stroke-width: 0.8"/>
      </g>
     </g>
     <g id="text_3">
      <!-- 100 -->
      <g transform="translate(146.236567 266.598437)scale(0.1 -0.1)">
       <defs>
        <path id="DejaVuSans-31" d="M 794 531 
L 1825 531 
L 1825 4091 
L 703 3866 
L 703 4441 
L 1819 4666 
L 2450 4666 
L 2450 531 
L 3481 531 
L 3481 0 
L 794 0 
L 794 531 
z
" transform="scale(0.015625)"/>
       </defs>
       <use xlink:href="#DejaVuSans-31"/>
       <use xlink:href="#DejaVuSans-30" x="63.623047"/>
       <use xlink:href="#DejaVuSans-30" x="127.246094"/>
      </g>
     </g>
    </g>
    <g id="xtick_4">
     <g id="line2d_4">
      <g>
       <use xlink:href="#me39238543e" x="202.319099" y="252" style="stroke: #000000; stroke-width: 0.8"/>
      </g>
     </g>
     <g id="text_4">
      <!-- 150 -->
      <g transform="translate(192.775349 266.598437)scale(0.1 -0.1)">
       <use xlink:href="#DejaVuSans-31"/>
       <use xlink:href="#DejaVuSans-35" x="63.623047"/>
       <use xlink:href="#DejaVuSans-30" x="127.246094"/>
      </g>
     </g>
    </g>
    <g id="xtick_5">
     <g id="line2d_5">
      <g>
       <use xlink:href="#me39238543e" x="248.857882" y="252" style="stroke: #000000; stroke-width: 0.8"/>
      </g>
     </g>
     <g id="text_5">
      <!-- 200 -->
      <g transform="translate(239.314132 266.598437)scale(0.1 -0.1)">
       <defs>
        <path id="DejaVuSans-32" d="M 1228 531 
L 3431 531 
L 3431 0 
L 469 0 
L 469 531 
Q 828 903 1448 1529 
Q 2069 2156 2228 2338 
Q 2531 2678 2651 2914 
Q 2772 3150 2772 3378 
Q 2772 3750 2511 3984 
Q 2250 4219 1831 4219 
Q 1534 4219 1204 4116 
Q 875 4013 500 3803 
L 500 4441 
Q 881 4594 1212 4672 
Q 1544 4750 1819 4750 
Q 2544 4750 2975 4387 
Q 3406 4025 3406 3419 
Q 3406 3131 3298 2873 
Q 3191 2616 2906 2266 
Q 2828 2175 2409 1742 
Q 1991 1309 1228 531 
z
" transform="scale(0.015625)"/>
       </defs>
       <use xlink:href="#DejaVuSans-32"/>
       <use xlink:href="#DejaVuSans-30" x="63.623047"/>
       <use xlink:href="#DejaVuSans-30" x="127.246094"/>
      </g>
     </g>
    </g>
    <g id="xtick_6">
     <g id="line2d_6">
      <g>
       <use xlink:href="#me39238543e" x="295.396664" y="252" style="stroke: #000000; stroke-width: 0.8"/>
      </g>
     </g>
     <g id="text_6">
      <!-- 250 -->
      <g transform="translate(285.852914 266.598437)scale(0.1 -0.1)">
       <use xlink:href="#DejaVuSans-32"/>
       <use xlink:href="#DejaVuSans-35" x="63.623047"/>
       <use xlink:href="#DejaVuSans-30" x="127.246094"/>
      </g>
     </g>
    </g>
    <g id="xtick_7">
     <g id="line2d_7">
      <g>
       <use xlink:href="#me39238543e" x="341.935446" y="252" style="stroke: #000000; stroke-width: 0.8"/>
      </g>
     </g>
     <g id="text_7">
      <!-- 300 -->
      <g transform="translate(332.391696 266.598437)scale(0.1 -0.1)">
       <defs>
        <path id="DejaVuSans-33" d="M 2597 2516 
Q 3050 2419 3304 2112 
Q 3559 1806 3559 1356 
Q 3559 666 3084 287 
Q 2609 -91 1734 -91 
Q 1441 -91 1130 -33 
Q 819 25 488 141 
L 488 750 
Q 750 597 1062 519 
Q 1375 441 1716 441 
Q 2309 441 2620 675 
Q 2931 909 2931 1356 
Q 2931 1769 2642 2001 
Q 2353 2234 1838 2234 
L 1294 2234 
L 1294 2753 
L 1863 2753 
Q 2328 2753 2575 2939 
Q 2822 3125 2822 3475 
Q 2822 3834 2567 4026 
Q 2313 4219 1838 4219 
Q 1578 4219 1281 4162 
Q 984 4106 628 3988 
L 628 4550 
Q 988 4650 1302 4700 
Q 1616 4750 1894 4750 
Q 2613 4750 3031 4423 
Q 3450 4097 3450 3541 
Q 3450 3153 3228 2886 
Q 3006 2619 2597 2516 
z
" transform="scale(0.015625)"/>
       </defs>
       <use xlink:href="#DejaVuSans-33"/>
       <use xlink:href="#DejaVuSans-30" x="63.623047"/>
       <use xlink:href="#DejaVuSans-30" x="127.246094"/>
      </g>
     </g>
    </g>
    <g id="xtick_8">
     <g id="line2d_8">
      <g>
       <use xlink:href="#me39238543e" x="388.474229" y="252" style="stroke: #000000; stroke-width: 0.8"/>
      </g>
     </g>
     <g id="text_8">
      <!-- 350 -->
      <g transform="translate(378.930479 266.598437)scale(0.1 -0.1)">
       <use xlink:href="#DejaVuSans-33"/>
       <use xlink:href="#DejaVuSans-35" x="63.623047"/>
       <use xlink:href="#DejaVuSans-30" x="127.246094"/>
      </g>
     </g>
    </g>
    <g id="text_9">
     <!-- Radiación -->
     <g transform="translate(196.980469 280.276563)scale(0.1 -0.1)">
      <defs>
       <path id="DejaVuSans-52" d="M 2841 2188 
Q 3044 2119 3236 1894 
Q 3428 1669 3622 1275 
L 4263 0 
L 3584 0 
L 2988 1197 
Q 2756 1666 2539 1819 
Q 2322 1972 1947 1972 
L 1259 1972 
L 1259 0 
L 628 0 
L 628 4666 
L 2053 4666 
Q 2853 4666 3247 4331 
Q 3641 3997 3641 3322 
Q 3641 2881 3436 2590 
Q 3231 2300 2841 2188 
z
M 1259 4147 
L 1259 2491 
L 2053 2491 
Q 2509 2491 2742 2702 
Q 2975 2913 2975 3322 
Q 2975 3731 2742 3939 
Q 2509 4147 2053 4147 
L 1259 4147 
z
" transform="scale(0.015625)"/>
       <path id="DejaVuSans-61" d="M 2194 1759 
Q 1497 1759 1228 1600 
Q 959 1441 959 1056 
Q 959 750 1161 570 
Q 1363 391 1709 391 
Q 2188 391 2477 730 
Q 2766 1069 2766 1631 
L 2766 1759 
L 2194 1759 
z
M 3341 1997 
L 3341 0 
L 2766 0 
L 2766 531 
Q 2569 213 2275 61 
Q 1981 -91 1556 -91 
Q 1019 -91 701 211 
Q 384 513 384 1019 
Q 384 1609 779 1909 
Q 1175 2209 1959 2209 
L 2766 2209 
L 2766 2266 
Q 2766 2663 2505 2880 
Q 2244 3097 1772 3097 
Q 1472 3097 1187 3025 
Q 903 2953 641 2809 
L 641 3341 
Q 956 3463 1253 3523 
Q 1550 3584 1831 3584 
Q 2591 3584 2966 3190 
Q 3341 2797 3341 1997 
z
" transform="scale(0.015625)"/>
       <path id="DejaVuSans-64" d="M 2906 2969 
L 2906 4863 
L 3481 4863 
L 3481 0 
L 2906 0 
L 2906 525 
Q 2725 213 2448 61 
Q 2172 -91 1784 -91 
Q 1150 -91 751 415 
Q 353 922 353 1747 
Q 353 2572 751 3078 
Q 1150 3584 1784 3584 
Q 2172 3584 2448 3432 
Q 2725 3281 2906 2969 
z
M 947 1747 
Q 947 1113 1208 752 
Q 1469 391 1925 391 
Q 2381 391 2643 752 
Q 2906 1113 2906 1747 
Q 2906 2381 2643 2742 
Q 2381 3103 1925 3103 
Q 1469 3103 1208 2742 
Q 947 2381 947 1747 
z
" transform="scale(0.015625)"/>
       <path id="DejaVuSans-69" d="M 603 3500 
L 1178 3500 
L 1178 0 
L 603 0 
L 603 3500 
z
M 603 4863 
L 1178 4863 
L 1178 4134 
L 603 4134 
L 603 4863 
z
" transform="scale(0.015625)"/>
       <path id="DejaVuSans-63" d="M 3122 3366 
L 3122 2828 
Q 2878 2963 2633 3030 
Q 2388 3097 2138 3097 
Q 1578 3097 1268 2742 
Q 959 2388 959 1747 
Q 959 1106 1268 751 
Q 1578 397 2138 397 
Q 2388 397 2633 464 
Q 2878 531 3122 666 
L 3122 134 
Q 2881 22 2623 -34 
Q 2366 -91 2075 -91 
Q 1284 -91 818 406 
Q 353 903 353 1747 
Q 353 2603 823 3093 
Q 1294 3584 2113 3584 
Q 2378 3584 2631 3529 
Q 2884 3475 3122 3366 
z
" transform="scale(0.015625)"/>
       <path id="DejaVuSans-f3" d="M 1959 3097 
Q 1497 3097 1228 2736 
Q 959 2375 959 1747 
Q 959 1119 1226 758 
Q 1494 397 1959 397 
Q 2419 397 2687 759 
Q 2956 1122 2956 1747 
Q 2956 2369 2687 2733 
Q 2419 3097 1959 3097 
z
M 1959 3584 
Q 2709 3584 3137 3096 
Q 3566 2609 3566 1747 
Q 3566 888 3137 398 
Q 2709 -91 1959 -91 
Q 1206 -91 779 398 
Q 353 888 353 1747 
Q 353 2609 779 3096 
Q 1206 3584 1959 3584 
z
M 2394 5119 
L 3016 5119 
L 1998 3944 
L 1519 3944 
L 2394 5119 
z
" transform="scale(0.015625)"/>
       <path id="DejaVuSans-6e" d="M 3513 2113 
L 3513 0 
L 2938 0 
L 2938 2094 
Q 2938 2591 2744 2837 
Q 2550 3084 2163 3084 
Q 1697 3084 1428 2787 
Q 1159 2491 1159 1978 
L 1159 0 
L 581 0 
L 581 3500 
L 1159 3500 
L 1159 2956 
Q 1366 3272 1645 3428 
Q 1925 3584 2291 3584 
Q 2894 3584 3203 3211 
Q 3513 2838 3513 2113 
z
" transform="scale(0.015625)"/>
      </defs>
      <use xlink:href="#DejaVuSans-52"/>
      <use xlink:href="#DejaVuSans-61" x="67.232422"/>
      <use xlink:href="#DejaVuSans-64" x="128.511719"/>
      <use xlink:href="#DejaVuSans-69" x="191.988281"/>
      <use xlink:href="#DejaVuSans-61" x="219.771484"/>
      <use xlink:href="#DejaVuSans-63" x="281.050781"/>
      <use xlink:href="#DejaVuSans-69" x="336.03125"/>
      <use xlink:href="#DejaVuSans-f3" x="363.814453"/>
      <use xlink:href="#DejaVuSans-6e" x="424.996094"/>
     </g>
    </g>
   </g>
   <g id="matplotlib.axis_2">
    <g id="ytick_1">
     <g id="line2d_9">
      <defs>
       <path id="md2d3ce3d83" d="M 0 0 
L -3.5 0 
" style="stroke: #000000; stroke-width: 0.8"/>
      </defs>
      <g>
       <use xlink:href="#md2d3ce3d83" x="54" y="241.924713" style="stroke: #000000; stroke-width: 0.8"/>
      </g>
     </g>
     <g id="text_10">
      <!-- −40 -->
      <g transform="translate(25.895312 245.723932)scale(0.1 -0.1)">
       <defs>
        <path id="DejaVuSans-2212" d="M 678 2272 
L 4684 2272 
L 4684 1741 
L 678 1741 
L 678 2272 
z
" transform="scale(0.015625)"/>
        <path id="DejaVuSans-34" d="M 2419 4116 
L 825 1625 
L 2419 1625 
L 2419 4116 
z
M 2253 4666 
L 3047 4666 
L 3047 1625 
L 3713 1625 
L 3713 1100 
L 3047 1100 
L 3047 0 
L 2419 0 
L 2419 1100 
L 313 1100 
L 313 1709 
L 2253 4666 
z
" transform="scale(0.015625)"/>
       </defs>
       <use xlink:href="#DejaVuSans-2212"/>
       <use xlink:href="#DejaVuSans-34" x="83.789062"/>
       <use xlink:href="#DejaVuSans-30" x="147.412109"/>
      </g>
     </g>
    </g>
    <g id="ytick_2">
     <g id="line2d_10">
      <g>
       <use xlink:href="#md2d3ce3d83" x="54" y="196.682537" style="stroke: #000000; stroke-width: 0.8"/>
      </g>
     </g>
     <g id="text_11">
      <!-- −20 -->
      <g transform="translate(25.895312 200.481756)scale(0.1 -0.1)">
       <use xlink:href="#DejaVuSans-2212"/>
       <use xlink:href="#DejaVuSans-32" x="83.789062"/>
       <use xlink:href="#DejaVuSans-30" x="147.412109"/>
      </g>
     </g>
    </g>
    <g id="ytick_3">
     <g id="line2d_11">
      <g>
       <use xlink:href="#md2d3ce3d83" x="54" y="151.440361" style="stroke: #000000; stroke-width: 0.8"/>
      </g>
     </g>
     <g id="text_12">
      <!-- 0 -->
      <g transform="translate(40.6375 155.239579)scale(0.1 -0.1)">
       <use xlink:href="#DejaVuSans-30"/>
      </g>
     </g>
    </g>
    <g id="ytick_4">
     <g id="line2d_12">
      <g>
       <use xlink:href="#md2d3ce3d83" x="54" y="106.198184" style="stroke: #000000; stroke-width: 0.8"/>
      </g>
     </g>
     <g id="text_13">
      <!-- 20 -->
      <g transform="translate(34.275 109.997403)scale(0.1 -0.1)">
       <use xlink:href="#DejaVuSans-32"/>
       <use xlink:href="#DejaVuSans-30" x="63.623047"/>
      </g>
     </g>
    </g>
    <g id="ytick_5">
     <g id="line2d_13">
      <g>
       <use xlink:href="#md2d3ce3d83" x="54" y="60.956008" style="stroke: #000000; stroke-width: 0.8"/>
      </g>
     </g>
     <g id="text_14">
      <!-- 40 -->
      <g transform="translate(34.275 64.755227)scale(0.1 -0.1)">
       <use xlink:href="#DejaVuSans-34"/>
       <use xlink:href="#DejaVuSans-30" x="63.623047"/>
      </g>
     </g>
    </g>
    <g id="text_15">
     <!-- Residuales -->
     <g transform="translate(19.815625 170.076875)rotate(-90)scale(0.1 -0.1)">
      <defs>
       <path id="DejaVuSans-65" d="M 3597 1894 
L 3597 1613 
L 953 1613 
Q 991 1019 1311 708 
Q 1631 397 2203 397 
Q 2534 397 2845 478 
Q 3156 559 3463 722 
L 3463 178 
Q 3153 47 2828 -22 
Q 2503 -91 2169 -91 
Q 1331 -91 842 396 
Q 353 884 353 1716 
Q 353 2575 817 3079 
Q 1281 3584 2069 3584 
Q 2775 3584 3186 3129 
Q 3597 2675 3597 1894 
z
M 3022 2063 
Q 3016 2534 2758 2815 
Q 2500 3097 2075 3097 
Q 1594 3097 1305 2825 
Q 1016 2553 972 2059 
L 3022 2063 
z
" transform="scale(0.015625)"/>
       <path id="DejaVuSans-73" d="M 2834 3397 
L 2834 2853 
Q 2591 2978 2328 3040 
Q 2066 3103 1784 3103 
Q 1356 3103 1142 2972 
Q 928 2841 928 2578 
Q 928 2378 1081 2264 
Q 1234 2150 1697 2047 
L 1894 2003 
Q 2506 1872 2764 1633 
Q 3022 1394 3022 966 
Q 3022 478 2636 193 
Q 2250 -91 1575 -91 
Q 1294 -91 989 -36 
Q 684 19 347 128 
L 347 722 
Q 666 556 975 473 
Q 1284 391 1588 391 
Q 1994 391 2212 530 
Q 2431 669 2431 922 
Q 2431 1156 2273 1281 
Q 2116 1406 1581 1522 
L 1381 1569 
Q 847 1681 609 1914 
Q 372 2147 372 2553 
Q 372 3047 722 3315 
Q 1072 3584 1716 3584 
Q 2034 3584 2315 3537 
Q 2597 3491 2834 3397 
z
" transform="scale(0.015625)"/>
       <path id="DejaVuSans-75" d="M 544 1381 
L 544 3500 
L 1119 3500 
L 1119 1403 
Q 1119 906 1312 657 
Q 1506 409 1894 409 
Q 2359 409 2629 706 
Q 2900 1003 2900 1516 
L 2900 3500 
L 3475 3500 
L 3475 0 
L 2900 0 
L 2900 538 
Q 2691 219 2414 64 
Q 2138 -91 1772 -91 
Q 1169 -91 856 284 
Q 544 659 544 1381 
z
M 1991 3584 
L 1991 3584 
z
" transform="scale(0.015625)"/>
       <path id="DejaVuSans-6c" d="M 603 4863 
L 1178 4863 
L 1178 0 
L 603 0 
L 603 4863 
z
" transform="scale(0.015625)"/>
      </defs>
      <use xlink:href="#DejaVuSans-52"/>
      <use xlink:href="#DejaVuSans-65" x="64.982422"/>
      <use xlink:href="#DejaVuSans-73" x="126.505859"/>
      <use xlink:href="#DejaVuSans-69" x="178.605469"/>
      <use xlink:href="#DejaVuSans-64" x="206.388672"/>
      <use xlink:href="#DejaVuSans-75" x="269.865234"/>
      <use xlink:href="#DejaVuSans-61" x="333.244141"/>
      <use xlink:href="#DejaVuSans-6c" x="394.523438"/>
      <use xlink:href="#DejaVuSans-65" x="422.306641"/>
      <use xlink:href="#DejaVuSans-73" x="483.830078"/>
     </g>
    </g>
   </g>
   <g id="line2d_14">
    <defs>
     <path id="m0de8b91b5d" d="M 0 3 
C 0.795609 3 1.55874 2.683901 2.12132 2.12132 
C 2.683901 1.55874 3 0.795609 3 0 
C 3 -0.795609 2.683901 -1.55874 2.12132 -2.12132 
C 1.55874 -2.683901 0.795609 -3 0 -3 
C -0.795609 -3 -1.55874 -2.683901 -2.12132 -2.12132 
C -2.683901 -1.55874 -3 -0.795609 -3 0 
C -3 0.795609 -2.683901 1.55874 -2.12132 2.12132 
C -1.55874 2.683901 -0.795609 3 0 3 
z
" style="stroke: #1f77b4"/>
    </defs>
    <g clip-path="url(#p777e5805a9)">
     <use xlink:href="#m0de8b91b5d" x="239.550125" y="242.116364" style="fill: #1f77b4; stroke: #1f77b4"/>
     <use xlink:href="#m0de8b91b5d" x="172.534279" y="237.484585" style="fill: #1f77b4; stroke: #1f77b4"/>
     <use xlink:href="#m0de8b91b5d" x="201.388324" y="201.513335" style="fill: #1f77b4; stroke: #1f77b4"/>
     <use xlink:href="#m0de8b91b5d" x="354.03553" y="201.180675" style="fill: #1f77b4; stroke: #1f77b4"/>
     <use xlink:href="#m0de8b91b5d" x="341.004671" y="200.26784" style="fill: #1f77b4; stroke: #1f77b4"/>
     <use xlink:href="#m0de8b91b5d" x="154.849541" y="200.166428" style="fill: #1f77b4; stroke: #1f77b4"/>
     <use xlink:href="#m0de8b91b5d" x="80.38749" y="198.664502" style="fill: #1f77b4; stroke: #1f77b4"/>
     <use xlink:href="#m0de8b91b5d" x="300.981318" y="191.571675" style="fill: #1f77b4; stroke: #1f77b4"/>
     <use xlink:href="#m0de8b91b5d" x="332.62769" y="187.946542" style="fill: #1f77b4; stroke: #1f77b4"/>
     <use xlink:href="#m0de8b91b5d" x="317.735279" y="186.958869" style="fill: #1f77b4; stroke: #1f77b4"/>
     <use xlink:href="#m0de8b91b5d" x="123.203169" y="186.819217" style="fill: #1f77b4; stroke: #1f77b4"/>
     <use xlink:href="#m0de8b91b5d" x="373.581818" y="186.249017" style="fill: #1f77b4; stroke: #1f77b4"/>
     <use xlink:href="#m0de8b91b5d" x="348.450876" y="185.710354" style="fill: #1f77b4; stroke: #1f77b4"/>
     <use xlink:href="#m0de8b91b5d" x="135.303253" y="184.197427" style="fill: #1f77b4; stroke: #1f77b4"/>
     <use xlink:href="#m0de8b91b5d" x="362.41251" y="184.155905" style="fill: #1f77b4; stroke: #1f77b4"/>
     <use xlink:href="#m0de8b91b5d" x="103.656881" y="183.104283" style="fill: #1f77b4; stroke: #1f77b4"/>
     <use xlink:href="#m0de8b91b5d" x="70.148957" y="180.630472" style="fill: #1f77b4; stroke: #1f77b4"/>
     <use xlink:href="#m0de8b91b5d" x="360.550959" y="179.65059" style="fill: #1f77b4; stroke: #1f77b4"/>
     <use xlink:href="#m0de8b91b5d" x="85.972143" y="179.523072" style="fill: #1f77b4; stroke: #1f77b4"/>
     <use xlink:href="#m0de8b91b5d" x="148.334112" y="179.291625" style="fill: #1f77b4; stroke: #1f77b4"/>
     <use xlink:href="#m0de8b91b5d" x="74.802836" y="178.849487" style="fill: #1f77b4; stroke: #1f77b4"/>
     <use xlink:href="#m0de8b91b5d" x="297.258215" y="178.629739" style="fill: #1f77b4; stroke: #1f77b4"/>
     <use xlink:href="#m0de8b91b5d" x="270.265721" y="177.672642" style="fill: #1f77b4; stroke: #1f77b4"/>
     <use xlink:href="#m0de8b91b5d" x="322.389158" y="177.60056" style="fill: #1f77b4; stroke: #1f77b4"/>
     <use xlink:href="#m0de8b91b5d" x="180.911259" y="177.426703" style="fill: #1f77b4; stroke: #1f77b4"/>
     <use xlink:href="#m0de8b91b5d" x="333.558465" y="176.514405" style="fill: #1f77b4; stroke: #1f77b4"/>
     <use xlink:href="#m0de8b91b5d" x="363.343286" y="175.173517" style="fill: #1f77b4; stroke: #1f77b4"/>
     <use xlink:href="#m0de8b91b5d" x="200.457548" y="173.995482" style="fill: #1f77b4; stroke: #1f77b4"/>
     <use xlink:href="#m0de8b91b5d" x="240.480901" y="173.633451" style="fill: #1f77b4; stroke: #1f77b4"/>
     <use xlink:href="#m0de8b91b5d" x="327.043036" y="173.596583" style="fill: #1f77b4; stroke: #1f77b4"/>
     <use xlink:href="#m0de8b91b5d" x="97.141451" y="173.577788" style="fill: #1f77b4; stroke: #1f77b4"/>
     <use xlink:href="#m0de8b91b5d" x="174.39583" y="173.411483" style="fill: #1f77b4; stroke: #1f77b4"/>
     <use xlink:href="#m0de8b91b5d" x="190.219016" y="173.30437" style="fill: #1f77b4; stroke: #1f77b4"/>
     <use xlink:href="#m0de8b91b5d" x="313.081401" y="172.257737" style="fill: #1f77b4; stroke: #1f77b4"/>
     <use xlink:href="#m0de8b91b5d" x="293.535113" y="171.652882" style="fill: #1f77b4; stroke: #1f77b4"/>
     <use xlink:href="#m0de8b91b5d" x="282.365805" y="170.884794" style="fill: #1f77b4; stroke: #1f77b4"/>
     <use xlink:href="#m0de8b91b5d" x="225.58849" y="170.775561" style="fill: #1f77b4; stroke: #1f77b4"/>
     <use xlink:href="#m0de8b91b5d" x="354.966305" y="170.566629" style="fill: #1f77b4; stroke: #1f77b4"/>
     <use xlink:href="#m0de8b91b5d" x="319.596831" y="168.85027" style="fill: #1f77b4; stroke: #1f77b4"/>
     <use xlink:href="#m0de8b91b5d" x="311.21985" y="167.622519" style="fill: #1f77b4; stroke: #1f77b4"/>
     <use xlink:href="#m0de8b91b5d" x="315.873728" y="166.813057" style="fill: #1f77b4; stroke: #1f77b4"/>
     <use xlink:href="#m0de8b91b5d" x="225.58849" y="166.616234" style="fill: #1f77b4; stroke: #1f77b4"/>
     <use xlink:href="#m0de8b91b5d" x="308.427523" y="165.928741" style="fill: #1f77b4; stroke: #1f77b4"/>
     <use xlink:href="#m0de8b91b5d" x="225.58849" y="164.872792" style="fill: #1f77b4; stroke: #1f77b4"/>
     <use xlink:href="#m0de8b91b5d" x="107.379983" y="164.749899" style="fill: #1f77b4; stroke: #1f77b4"/>
     <use xlink:href="#m0de8b91b5d" x="304.70442" y="164.540461" style="fill: #1f77b4; stroke: #1f77b4"/>
     <use xlink:href="#m0de8b91b5d" x="317.735279" y="163.796765" style="fill: #1f77b4; stroke: #1f77b4"/>
     <use xlink:href="#m0de8b91b5d" x="327.973812" y="163.219957" style="fill: #1f77b4; stroke: #1f77b4"/>
     <use xlink:href="#m0de8b91b5d" x="236.757798" y="162.510133" style="fill: #1f77b4; stroke: #1f77b4"/>
     <use xlink:href="#m0de8b91b5d" x="267.473394" y="162.497369" style="fill: #1f77b4; stroke: #1f77b4"/>
     <use xlink:href="#m0de8b91b5d" x="69.218182" y="161.565804" style="fill: #1f77b4; stroke: #1f77b4"/>
     <use xlink:href="#m0de8b91b5d" x="336.350792" y="161.379302" style="fill: #1f77b4; stroke: #1f77b4"/>
     <use xlink:href="#m0de8b91b5d" x="270.265721" y="161.287081" style="fill: #1f77b4; stroke: #1f77b4"/>
     <use xlink:href="#m0de8b91b5d" x="138.09558" y="161.256129" style="fill: #1f77b4; stroke: #1f77b4"/>
     <use xlink:href="#m0de8b91b5d" x="139.026355" y="159.25908" style="fill: #1f77b4; stroke: #1f77b4"/>
     <use xlink:href="#m0de8b91b5d" x="260.957965" y="158.93691" style="fill: #1f77b4; stroke: #1f77b4"/>
     <use xlink:href="#m0de8b91b5d" x="318.666055" y="158.233173" style="fill: #1f77b4; stroke: #1f77b4"/>
     <use xlink:href="#m0de8b91b5d" x="298.188991" y="157.910513" style="fill: #1f77b4; stroke: #1f77b4"/>
     <use xlink:href="#m0de8b91b5d" x="299.119766" y="156.82826" style="fill: #1f77b4; stroke: #1f77b4"/>
     <use xlink:href="#m0de8b91b5d" x="139.957131" y="156.041056" style="fill: #1f77b4; stroke: #1f77b4"/>
     <use xlink:href="#m0de8b91b5d" x="85.041368" y="154.575195" style="fill: #1f77b4; stroke: #1f77b4"/>
     <use xlink:href="#m0de8b91b5d" x="134.372477" y="153.447149" style="fill: #1f77b4; stroke: #1f77b4"/>
     <use xlink:href="#m0de8b91b5d" x="300.050542" y="152.766989" style="fill: #1f77b4; stroke: #1f77b4"/>
     <use xlink:href="#m0de8b91b5d" x="275.850375" y="152.080778" style="fill: #1f77b4; stroke: #1f77b4"/>
     <use xlink:href="#m0de8b91b5d" x="255.373311" y="151.955954" style="fill: #1f77b4; stroke: #1f77b4"/>
     <use xlink:href="#m0de8b91b5d" x="241.411676" y="149.822891" style="fill: #1f77b4; stroke: #1f77b4"/>
     <use xlink:href="#m0de8b91b5d" x="316.804504" y="149.636408" style="fill: #1f77b4; stroke: #1f77b4"/>
     <use xlink:href="#m0de8b91b5d" x="208.834529" y="149.04061" style="fill: #1f77b4; stroke: #1f77b4"/>
     <use xlink:href="#m0de8b91b5d" x="128.787823" y="149.035648" style="fill: #1f77b4; stroke: #1f77b4"/>
     <use xlink:href="#m0de8b91b5d" x="110.17231" y="148.864029" style="fill: #1f77b4; stroke: #1f77b4"/>
     <use xlink:href="#m0de8b91b5d" x="169.741952" y="148.21274" style="fill: #1f77b4; stroke: #1f77b4"/>
     <use xlink:href="#m0de8b91b5d" x="289.81201" y="147.845098" style="fill: #1f77b4; stroke: #1f77b4"/>
     <use xlink:href="#m0de8b91b5d" x="239.550125" y="145.554168" style="fill: #1f77b4; stroke: #1f77b4"/>
     <use xlink:href="#m0de8b91b5d" x="303.773645" y="145.528631" style="fill: #1f77b4; stroke: #1f77b4"/>
     <use xlink:href="#m0de8b91b5d" x="96.210676" y="143.743263" style="fill: #1f77b4; stroke: #1f77b4"/>
     <use xlink:href="#m0de8b91b5d" x="260.027189" y="143.592171" style="fill: #1f77b4; stroke: #1f77b4"/>
     <use xlink:href="#m0de8b91b5d" x="284.227356" y="143.345414" style="fill: #1f77b4; stroke: #1f77b4"/>
     <use xlink:href="#m0de8b91b5d" x="262.819516" y="143.250203" style="fill: #1f77b4; stroke: #1f77b4"/>
     <use xlink:href="#m0de8b91b5d" x="251.650209" y="142.30903" style="fill: #1f77b4; stroke: #1f77b4"/>
     <use xlink:href="#m0de8b91b5d" x="272.127273" y="142.298059" style="fill: #1f77b4; stroke: #1f77b4"/>
     <use xlink:href="#m0de8b91b5d" x="283.29658" y="141.731267" style="fill: #1f77b4; stroke: #1f77b4"/>
     <use xlink:href="#m0de8b91b5d" x="237.688574" y="140.140104" style="fill: #1f77b4; stroke: #1f77b4"/>
     <use xlink:href="#m0de8b91b5d" x="218.142285" y="139.440668" style="fill: #1f77b4; stroke: #1f77b4"/>
     <use xlink:href="#m0de8b91b5d" x="246.065555" y="139.426011" style="fill: #1f77b4; stroke: #1f77b4"/>
     <use xlink:href="#m0de8b91b5d" x="233.034696" y="138.609719" style="fill: #1f77b4; stroke: #1f77b4"/>
     <use xlink:href="#m0de8b91b5d" x="238.619349" y="135.259146" style="fill: #1f77b4; stroke: #1f77b4"/>
     <use xlink:href="#m0de8b91b5d" x="151.126439" y="134.385289" style="fill: #1f77b4; stroke: #1f77b4"/>
     <use xlink:href="#m0de8b91b5d" x="148.334112" y="134.314158" style="fill: #1f77b4; stroke: #1f77b4"/>
     <use xlink:href="#m0de8b91b5d" x="297.258215" y="133.282992" style="fill: #1f77b4; stroke: #1f77b4"/>
     <use xlink:href="#m0de8b91b5d" x="267.473394" y="132.952787" style="fill: #1f77b4; stroke: #1f77b4"/>
     <use xlink:href="#m0de8b91b5d" x="276.781151" y="132.943402" style="fill: #1f77b4; stroke: #1f77b4"/>
     <use xlink:href="#m0de8b91b5d" x="303.773645" y="128.579023" style="fill: #1f77b4; stroke: #1f77b4"/>
     <use xlink:href="#m0de8b91b5d" x="282.365805" y="126.997414" style="fill: #1f77b4; stroke: #1f77b4"/>
     <use xlink:href="#m0de8b91b5d" x="303.773645" y="125.949135" style="fill: #1f77b4; stroke: #1f77b4"/>
     <use xlink:href="#m0de8b91b5d" x="284.227356" y="125.602233" style="fill: #1f77b4; stroke: #1f77b4"/>
     <use xlink:href="#m0de8b91b5d" x="85.041368" y="122.45666" style="fill: #1f77b4; stroke: #1f77b4"/>
     <use xlink:href="#m0de8b91b5d" x="166.949625" y="120.422434" style="fill: #1f77b4; stroke: #1f77b4"/>
     <use xlink:href="#m0de8b91b5d" x="283.29658" y="119.052283" style="fill: #1f77b4; stroke: #1f77b4"/>
     <use xlink:href="#m0de8b91b5d" x="271.196497" y="118.572173" style="fill: #1f77b4; stroke: #1f77b4"/>
     <use xlink:href="#m0de8b91b5d" x="87.833695" y="117.928778" style="fill: #1f77b4; stroke: #1f77b4"/>
     <use xlink:href="#m0de8b91b5d" x="284.227356" y="117.146433" style="fill: #1f77b4; stroke: #1f77b4"/>
     <use xlink:href="#m0de8b91b5d" x="249.788657" y="116.997249" style="fill: #1f77b4; stroke: #1f77b4"/>
     <use xlink:href="#m0de8b91b5d" x="284.227356" y="108.395234" style="fill: #1f77b4; stroke: #1f77b4"/>
     <use xlink:href="#m0de8b91b5d" x="75.733611" y="107.374761" style="fill: #1f77b4; stroke: #1f77b4"/>
     <use xlink:href="#m0de8b91b5d" x="192.080567" y="100.47798" style="fill: #1f77b4; stroke: #1f77b4"/>
     <use xlink:href="#m0de8b91b5d" x="108.310759" y="97.061078" style="fill: #1f77b4; stroke: #1f77b4"/>
     <use xlink:href="#m0de8b91b5d" x="81.318265" y="86.739242" style="fill: #1f77b4; stroke: #1f77b4"/>
     <use xlink:href="#m0de8b91b5d" x="242.342452" y="82.152884" style="fill: #1f77b4; stroke: #1f77b4"/>
     <use xlink:href="#m0de8b91b5d" x="240.480901" y="65.793972" style="fill: #1f77b4; stroke: #1f77b4"/>
     <use xlink:href="#m0de8b91b5d" x="184.634362" y="62.457139" style="fill: #1f77b4; stroke: #1f77b4"/>
     <use xlink:href="#m0de8b91b5d" x="270.265721" y="44.443636" style="fill: #1f77b4; stroke: #1f77b4"/>
    </g>
   </g>
   <g id="line2d_15">
    <path d="M 69.218182 135.397432 
L 70.148957 135.346549 
L 74.802836 135.091194 
L 75.733611 135.039947 
L 80.38749 134.782975 
L 81.318265 134.731454 
L 85.041368 134.524962 
L 85.041368 134.524962 
L 85.972143 134.473228 
L 87.833695 134.369614 
L 96.210676 133.900696 
L 97.141451 133.848296 
L 103.656881 133.479353 
L 107.379983 133.266367 
L 108.310759 133.212809 
L 110.17231 133.105272 
L 123.203169 132.33632 
L 128.787823 131.998803 
L 134.372477 131.656835 
L 135.303253 131.59938 
L 138.09558 131.426223 
L 139.026355 131.36825 
L 139.957131 131.31016 
L 148.334112 130.783326 
L 148.334112 130.783326 
L 151.126439 130.606782 
L 154.849541 130.371494 
L 166.949625 129.617233 
L 169.741952 129.448234 
L 172.534279 129.283499 
L 174.39583 129.177732 
L 180.911259 128.841933 
L 184.634362 128.611946 
L 190.219016 128.33819 
L 192.080567 128.233521 
L 200.457548 127.797513 
L 201.388324 127.748764 
L 208.834529 127.18124 
L 218.142285 126.330733 
L 225.58849 125.432956 
L 225.58849 125.432956 
L 225.58849 125.432956 
L 233.034696 124.447875 
L 236.757798 124.176904 
L 237.688574 124.136674 
L 238.619349 124.034314 
L 239.550125 123.969723 
L 239.550125 123.969723 
L 240.480901 123.877785 
L 240.480901 123.877785 
L 241.411676 123.791645 
L 242.342452 123.771702 
L 246.065555 123.584536 
L 249.788657 123.431313 
L 251.650209 123.416376 
L 255.373311 123.450251 
L 260.027189 123.519756 
L 260.957965 123.534407 
L 262.819516 123.564689 
L 267.473394 123.644387 
L 267.473394 123.644387 
L 270.265721 123.699892 
L 270.265721 123.699892 
L 270.265721 123.699892 
L 271.196497 123.718609 
L 272.127273 123.735476 
L 275.850375 123.774149 
L 276.781151 123.783841 
L 282.365805 123.771735 
L 282.365805 123.771735 
L 283.29658 123.791279 
L 283.29658 123.791279 
L 284.227356 123.81488 
L 284.227356 123.81488 
L 284.227356 123.81488 
L 284.227356 123.81488 
L 289.81201 123.907958 
L 293.535113 124.034564 
L 297.258215 124.301059 
L 297.258215 124.301059 
L 298.188991 124.374264 
L 299.119766 124.449597 
L 300.050542 124.526823 
L 300.981318 124.605732 
L 303.773645 124.850828 
L 303.773645 124.850828 
L 303.773645 124.850828 
L 304.70442 124.934832 
L 308.427523 125.279097 
L 311.21985 125.543502 
L 313.081401 125.721777 
L 315.873728 125.991336 
L 316.804504 126.081658 
L 317.735279 126.172175 
L 317.735279 126.172175 
L 318.666055 126.262864 
L 319.596831 126.3537 
L 322.389158 126.626978 
L 327.043036 127.084977 
L 327.973812 127.17697 
L 332.62769 127.639185 
L 333.558465 127.732143 
L 336.350792 128.012208 
L 341.004671 128.483467 
L 348.450876 129.251993 
L 354.03553 129.841307 
L 354.966305 129.940724 
L 360.550959 130.54421 
L 362.41251 130.747747 
L 363.343286 130.849927 
L 373.581818 131.991515 
" clip-path="url(#p777e5805a9)" style="fill: none; stroke: #ff7f0e; stroke-width: 1.5; stroke-linecap: square"/>
   </g>
   <g id="patch_3">
    <path d="M 54 252 
L 54 34.56 
" style="fill: none; stroke: #000000; stroke-width: 0.8; stroke-linejoin: miter; stroke-linecap: square"/>
   </g>
   <g id="patch_4">
    <path d="M 388.8 252 
L 388.8 34.56 
" style="fill: none; stroke: #000000; stroke-width: 0.8; stroke-linejoin: miter; stroke-linecap: square"/>
   </g>
   <g id="patch_5">
    <path d="M 54 252 
L 388.8 252 
" style="fill: none; stroke: #000000; stroke-width: 0.8; stroke-linejoin: miter; stroke-linecap: square"/>
   </g>
   <g id="patch_6">
    <path d="M 54 34.56 
L 388.8 34.56 
" style="fill: none; stroke: #000000; stroke-width: 0.8; stroke-linejoin: miter; stroke-linecap: square"/>
   </g>
  </g>
 </g>
 <defs>
  <clipPath id="p777e5805a9">
   <rect x="54" y="34.56" width="334.8" height="217.44"/>
  </clipPath>
 </defs>
</svg>
