<?xml version="1.0" encoding="utf-8" standalone="no"?>
<!DOCTYPE svg PUBLIC "-//W3C//DTD SVG 1.1//EN"
  "http://www.w3.org/Graphics/SVG/1.1/DTD/svg11.dtd">
<svg xmlns:xlink="http://www.w3.org/1999/xlink" width="432pt" height="288pt" viewBox="0 0 432 288" xmlns="http://www.w3.org/2000/svg" version="1.1">
 <metadata>
  <rdf:RDF xmlns:dc="http://purl.org/dc/elements/1.1/" xmlns:cc="http://creativecommons.org/ns#" xmlns:rdf="http://www.w3.org/1999/02/22-rdf-syntax-ns#">
   <cc:Work>
    <dc:type rdf:resource="http://purl.org/dc/dcmitype/StillImage"/>
    <dc:date>2022-07-18T22:43:25.703182</dc:date>
    <dc:format>image/svg+xml</dc:format>
    <dc:creator>
     <cc:Agent>
      <dc:title>Matplotlib v3.5.2, https://matplotlib.org/</dc:title>
     </cc:Agent>
    </dc:creator>
   </cc:Work>
  </rdf:RDF>
 </metadata>
 <defs>
  <style type="text/css">*{stroke-linejoin: round; stroke-linecap: butt}</style>
 </defs>
 <g id="figure_1">
  <g id="patch_1">
   <path d="M 0 288 
L 432 288 
L 432 0 
L 0 0 
L 0 288 
z
" style="fill: none"/>
  </g>
  <g id="axes_1">
   <g id="patch_2">
    <path d="M 54 252 
L 388.8 252 
L 388.8 34.56 
L 54 34.56 
z
" style="fill: #ffffff"/>
   </g>
   <g id="matplotlib.axis_1">
    <g id="xtick_1">
     <g id="line2d_1">
      <defs>
       <path id="m3a34ce2428" d="M 0 0 
L 0 3.5 
" style="stroke: #000000; stroke-width: 0.8"/>
      </defs>
      <g>
       <use xlink:href="#m3a34ce2428" x="72.526482" y="252" style="stroke: #000000; stroke-width: 0.8"/>
      </g>
     </g>
     <g id="text_1">
      <!-- 2.5 -->
      <g transform="translate(64.57492 266.598437)scale(0.1 -0.1)">
       <defs>
        <path id="DejaVuSans-32" d="M 1228 531 
L 3431 531 
L 3431 0 
L 469 0 
L 469 531 
Q 828 903 1448 1529 
Q 2069 2156 2228 2338 
Q 2531 2678 2651 2914 
Q 2772 3150 2772 3378 
Q 2772 3750 2511 3984 
Q 2250 4219 1831 4219 
Q 1534 4219 1204 4116 
Q 875 4013 500 3803 
L 500 4441 
Q 881 4594 1212 4672 
Q 1544 4750 1819 4750 
Q 2544 4750 2975 4387 
Q 3406 4025 3406 3419 
Q 3406 3131 3298 2873 
Q 3191 2616 2906 2266 
Q 2828 2175 2409 1742 
Q 1991 1309 1228 531 
z
" transform="scale(0.015625)"/>
        <path id="DejaVuSans-2e" d="M 684 794 
L 1344 794 
L 1344 0 
L 684 0 
L 684 794 
z
" transform="scale(0.015625)"/>
        <path id="DejaVuSans-35" d="M 691 4666 
L 3169 4666 
L 3169 4134 
L 1269 4134 
L 1269 2991 
Q 1406 3038 1543 3061 
Q 1681 3084 1819 3084 
Q 2600 3084 3056 2656 
Q 3513 2228 3513 1497 
Q 3513 744 3044 326 
Q 2575 -91 1722 -91 
Q 1428 -91 1123 -41 
Q 819 9 494 109 
L 494 744 
Q 775 591 1075 516 
Q 1375 441 1709 441 
Q 2250 441 2565 725 
Q 2881 1009 2881 1497 
Q 2881 1984 2565 2268 
Q 2250 2553 1709 2553 
Q 1456 2553 1204 2497 
Q 953 2441 691 2322 
L 691 4666 
z
" transform="scale(0.015625)"/>
       </defs>
       <use xlink:href="#DejaVuSans-32"/>
       <use xlink:href="#DejaVuSans-2e" x="63.623047"/>
       <use xlink:href="#DejaVuSans-35" x="95.410156"/>
      </g>
     </g>
    </g>
    <g id="xtick_2">
     <g id="line2d_2">
      <g>
       <use xlink:href="#m3a34ce2428" x="113.880237" y="252" style="stroke: #000000; stroke-width: 0.8"/>
      </g>
     </g>
     <g id="text_2">
      <!-- 5.0 -->
      <g transform="translate(105.928675 266.598437)scale(0.1 -0.1)">
       <defs>
        <path id="DejaVuSans-30" d="M 2034 4250 
Q 1547 4250 1301 3770 
Q 1056 3291 1056 2328 
Q 1056 1369 1301 889 
Q 1547 409 2034 409 
Q 2525 409 2770 889 
Q 3016 1369 3016 2328 
Q 3016 3291 2770 3770 
Q 2525 4250 2034 4250 
z
M 2034 4750 
Q 2819 4750 3233 4129 
Q 3647 3509 3647 2328 
Q 3647 1150 3233 529 
Q 2819 -91 2034 -91 
Q 1250 -91 836 529 
Q 422 1150 422 2328 
Q 422 3509 836 4129 
Q 1250 4750 2034 4750 
z
" transform="scale(0.015625)"/>
       </defs>
       <use xlink:href="#DejaVuSans-35"/>
       <use xlink:href="#DejaVuSans-2e" x="63.623047"/>
       <use xlink:href="#DejaVuSans-30" x="95.410156"/>
      </g>
     </g>
    </g>
    <g id="xtick_3">
     <g id="line2d_3">
      <g>
       <use xlink:href="#m3a34ce2428" x="155.233992" y="252" style="stroke: #000000; stroke-width: 0.8"/>
      </g>
     </g>
     <g id="text_3">
      <!-- 7.5 -->
      <g transform="translate(147.28243 266.598437)scale(0.1 -0.1)">
       <defs>
        <path id="DejaVuSans-37" d="M 525 4666 
L 3525 4666 
L 3525 4397 
L 1831 0 
L 1172 0 
L 2766 4134 
L 525 4134 
L 525 4666 
z
" transform="scale(0.015625)"/>
       </defs>
       <use xlink:href="#DejaVuSans-37"/>
       <use xlink:href="#DejaVuSans-2e" x="63.623047"/>
       <use xlink:href="#DejaVuSans-35" x="95.410156"/>
      </g>
     </g>
    </g>
    <g id="xtick_4">
     <g id="line2d_4">
      <g>
       <use xlink:href="#m3a34ce2428" x="196.587747" y="252" style="stroke: #000000; stroke-width: 0.8"/>
      </g>
     </g>
     <g id="text_4">
      <!-- 10.0 -->
      <g transform="translate(185.454935 266.598437)scale(0.1 -0.1)">
       <defs>
        <path id="DejaVuSans-31" d="M 794 531 
L 1825 531 
L 1825 4091 
L 703 3866 
L 703 4441 
L 1819 4666 
L 2450 4666 
L 2450 531 
L 3481 531 
L 3481 0 
L 794 0 
L 794 531 
z
" transform="scale(0.015625)"/>
       </defs>
       <use xlink:href="#DejaVuSans-31"/>
       <use xlink:href="#DejaVuSans-30" x="63.623047"/>
       <use xlink:href="#DejaVuSans-2e" x="127.246094"/>
       <use xlink:href="#DejaVuSans-30" x="159.033203"/>
      </g>
     </g>
    </g>
    <g id="xtick_5">
     <g id="line2d_5">
      <g>
       <use xlink:href="#m3a34ce2428" x="237.941502" y="252" style="stroke: #000000; stroke-width: 0.8"/>
      </g>
     </g>
     <g id="text_5">
      <!-- 12.5 -->
      <g transform="translate(226.808689 266.598437)scale(0.1 -0.1)">
       <use xlink:href="#DejaVuSans-31"/>
       <use xlink:href="#DejaVuSans-32" x="63.623047"/>
       <use xlink:href="#DejaVuSans-2e" x="127.246094"/>
       <use xlink:href="#DejaVuSans-35" x="159.033203"/>
      </g>
     </g>
    </g>
    <g id="xtick_6">
     <g id="line2d_6">
      <g>
       <use xlink:href="#m3a34ce2428" x="279.295257" y="252" style="stroke: #000000; stroke-width: 0.8"/>
      </g>
     </g>
     <g id="text_6">
      <!-- 15.0 -->
      <g transform="translate(268.162444 266.598437)scale(0.1 -0.1)">
       <use xlink:href="#DejaVuSans-31"/>
       <use xlink:href="#DejaVuSans-35" x="63.623047"/>
       <use xlink:href="#DejaVuSans-2e" x="127.246094"/>
       <use xlink:href="#DejaVuSans-30" x="159.033203"/>
      </g>
     </g>
    </g>
    <g id="xtick_7">
     <g id="line2d_7">
      <g>
       <use xlink:href="#m3a34ce2428" x="320.649012" y="252" style="stroke: #000000; stroke-width: 0.8"/>
      </g>
     </g>
     <g id="text_7">
      <!-- 17.5 -->
      <g transform="translate(309.516199 266.598437)scale(0.1 -0.1)">
       <use xlink:href="#DejaVuSans-31"/>
       <use xlink:href="#DejaVuSans-37" x="63.623047"/>
       <use xlink:href="#DejaVuSans-2e" x="127.246094"/>
       <use xlink:href="#DejaVuSans-35" x="159.033203"/>
      </g>
     </g>
    </g>
    <g id="xtick_8">
     <g id="line2d_8">
      <g>
       <use xlink:href="#m3a34ce2428" x="362.002767" y="252" style="stroke: #000000; stroke-width: 0.8"/>
      </g>
     </g>
     <g id="text_8">
      <!-- 20.0 -->
      <g transform="translate(350.869954 266.598437)scale(0.1 -0.1)">
       <use xlink:href="#DejaVuSans-32"/>
       <use xlink:href="#DejaVuSans-30" x="63.623047"/>
       <use xlink:href="#DejaVuSans-2e" x="127.246094"/>
       <use xlink:href="#DejaVuSans-30" x="159.033203"/>
      </g>
     </g>
    </g>
    <g id="text_9">
     <!-- Viento -->
     <g transform="translate(205.438281 280.276563)scale(0.1 -0.1)">
      <defs>
       <path id="DejaVuSans-56" d="M 1831 0 
L 50 4666 
L 709 4666 
L 2188 738 
L 3669 4666 
L 4325 4666 
L 2547 0 
L 1831 0 
z
" transform="scale(0.015625)"/>
       <path id="DejaVuSans-69" d="M 603 3500 
L 1178 3500 
L 1178 0 
L 603 0 
L 603 3500 
z
M 603 4863 
L 1178 4863 
L 1178 4134 
L 603 4134 
L 603 4863 
z
" transform="scale(0.015625)"/>
       <path id="DejaVuSans-65" d="M 3597 1894 
L 3597 1613 
L 953 1613 
Q 991 1019 1311 708 
Q 1631 397 2203 397 
Q 2534 397 2845 478 
Q 3156 559 3463 722 
L 3463 178 
Q 3153 47 2828 -22 
Q 2503 -91 2169 -91 
Q 1331 -91 842 396 
Q 353 884 353 1716 
Q 353 2575 817 3079 
Q 1281 3584 2069 3584 
Q 2775 3584 3186 3129 
Q 3597 2675 3597 1894 
z
M 3022 2063 
Q 3016 2534 2758 2815 
Q 2500 3097 2075 3097 
Q 1594 3097 1305 2825 
Q 1016 2553 972 2059 
L 3022 2063 
z
" transform="scale(0.015625)"/>
       <path id="DejaVuSans-6e" d="M 3513 2113 
L 3513 0 
L 2938 0 
L 2938 2094 
Q 2938 2591 2744 2837 
Q 2550 3084 2163 3084 
Q 1697 3084 1428 2787 
Q 1159 2491 1159 1978 
L 1159 0 
L 581 0 
L 581 3500 
L 1159 3500 
L 1159 2956 
Q 1366 3272 1645 3428 
Q 1925 3584 2291 3584 
Q 2894 3584 3203 3211 
Q 3513 2838 3513 2113 
z
" transform="scale(0.015625)"/>
       <path id="DejaVuSans-74" d="M 1172 4494 
L 1172 3500 
L 2356 3500 
L 2356 3053 
L 1172 3053 
L 1172 1153 
Q 1172 725 1289 603 
Q 1406 481 1766 481 
L 2356 481 
L 2356 0 
L 1766 0 
Q 1100 0 847 248 
Q 594 497 594 1153 
L 594 3053 
L 172 3053 
L 172 3500 
L 594 3500 
L 594 4494 
L 1172 4494 
z
" transform="scale(0.015625)"/>
       <path id="DejaVuSans-6f" d="M 1959 3097 
Q 1497 3097 1228 2736 
Q 959 2375 959 1747 
Q 959 1119 1226 758 
Q 1494 397 1959 397 
Q 2419 397 2687 759 
Q 2956 1122 2956 1747 
Q 2956 2369 2687 2733 
Q 2419 3097 1959 3097 
z
M 1959 3584 
Q 2709 3584 3137 3096 
Q 3566 2609 3566 1747 
Q 3566 888 3137 398 
Q 2709 -91 1959 -91 
Q 1206 -91 779 398 
Q 353 888 353 1747 
Q 353 2609 779 3096 
Q 1206 3584 1959 3584 
z
" transform="scale(0.015625)"/>
      </defs>
      <use xlink:href="#DejaVuSans-56"/>
      <use xlink:href="#DejaVuSans-69" x="66.158203"/>
      <use xlink:href="#DejaVuSans-65" x="93.941406"/>
      <use xlink:href="#DejaVuSans-6e" x="155.464844"/>
      <use xlink:href="#DejaVuSans-74" x="218.84375"/>
      <use xlink:href="#DejaVuSans-6f" x="258.052734"/>
     </g>
    </g>
   </g>
   <g id="matplotlib.axis_2">
    <g id="ytick_1">
     <g id="line2d_9">
      <defs>
       <path id="mf2fbf8ca85" d="M 0 0 
L -3.5 0 
" style="stroke: #000000; stroke-width: 0.8"/>
      </defs>
      <g>
       <use xlink:href="#mf2fbf8ca85" x="54" y="241.924713" style="stroke: #000000; stroke-width: 0.8"/>
      </g>
     </g>
     <g id="text_10">
      <!-- −40 -->
      <g transform="translate(25.895312 245.723932)scale(0.1 -0.1)">
       <defs>
        <path id="DejaVuSans-2212" d="M 678 2272 
L 4684 2272 
L 4684 1741 
L 678 1741 
L 678 2272 
z
" transform="scale(0.015625)"/>
        <path id="DejaVuSans-34" d="M 2419 4116 
L 825 1625 
L 2419 1625 
L 2419 4116 
z
M 2253 4666 
L 3047 4666 
L 3047 1625 
L 3713 1625 
L 3713 1100 
L 3047 1100 
L 3047 0 
L 2419 0 
L 2419 1100 
L 313 1100 
L 313 1709 
L 2253 4666 
z
" transform="scale(0.015625)"/>
       </defs>
       <use xlink:href="#DejaVuSans-2212"/>
       <use xlink:href="#DejaVuSans-34" x="83.789062"/>
       <use xlink:href="#DejaVuSans-30" x="147.412109"/>
      </g>
     </g>
    </g>
    <g id="ytick_2">
     <g id="line2d_10">
      <g>
       <use xlink:href="#mf2fbf8ca85" x="54" y="196.682537" style="stroke: #000000; stroke-width: 0.8"/>
      </g>
     </g>
     <g id="text_11">
      <!-- −20 -->
      <g transform="translate(25.895312 200.481756)scale(0.1 -0.1)">
       <use xlink:href="#DejaVuSans-2212"/>
       <use xlink:href="#DejaVuSans-32" x="83.789062"/>
       <use xlink:href="#DejaVuSans-30" x="147.412109"/>
      </g>
     </g>
    </g>
    <g id="ytick_3">
     <g id="line2d_11">
      <g>
       <use xlink:href="#mf2fbf8ca85" x="54" y="151.440361" style="stroke: #000000; stroke-width: 0.8"/>
      </g>
     </g>
     <g id="text_12">
      <!-- 0 -->
      <g transform="translate(40.6375 155.239579)scale(0.1 -0.1)">
       <use xlink:href="#DejaVuSans-30"/>
      </g>
     </g>
    </g>
    <g id="ytick_4">
     <g id="line2d_12">
      <g>
       <use xlink:href="#mf2fbf8ca85" x="54" y="106.198184" style="stroke: #000000; stroke-width: 0.8"/>
      </g>
     </g>
     <g id="text_13">
      <!-- 20 -->
      <g transform="translate(34.275 109.997403)scale(0.1 -0.1)">
       <use xlink:href="#DejaVuSans-32"/>
       <use xlink:href="#DejaVuSans-30" x="63.623047"/>
      </g>
     </g>
    </g>
    <g id="ytick_5">
     <g id="line2d_13">
      <g>
       <use xlink:href="#mf2fbf8ca85" x="54" y="60.956008" style="stroke: #000000; stroke-width: 0.8"/>
      </g>
     </g>
     <g id="text_14">
      <!-- 40 -->
      <g transform="translate(34.275 64.755227)scale(0.1 -0.1)">
       <use xlink:href="#DejaVuSans-34"/>
       <use xlink:href="#DejaVuSans-30" x="63.623047"/>
      </g>
     </g>
    </g>
    <g id="text_15">
     <!-- Residuales -->
     <g transform="translate(19.815625 170.076875)rotate(-90)scale(0.1 -0.1)">
      <defs>
       <path id="DejaVuSans-52" d="M 2841 2188 
Q 3044 2119 3236 1894 
Q 3428 1669 3622 1275 
L 4263 0 
L 3584 0 
L 2988 1197 
Q 2756 1666 2539 1819 
Q 2322 1972 1947 1972 
L 1259 1972 
L 1259 0 
L 628 0 
L 628 4666 
L 2053 4666 
Q 2853 4666 3247 4331 
Q 3641 3997 3641 3322 
Q 3641 2881 3436 2590 
Q 3231 2300 2841 2188 
z
M 1259 4147 
L 1259 2491 
L 2053 2491 
Q 2509 2491 2742 2702 
Q 2975 2913 2975 3322 
Q 2975 3731 2742 3939 
Q 2509 4147 2053 4147 
L 1259 4147 
z
" transform="scale(0.015625)"/>
       <path id="DejaVuSans-73" d="M 2834 3397 
L 2834 2853 
Q 2591 2978 2328 3040 
Q 2066 3103 1784 3103 
Q 1356 3103 1142 2972 
Q 928 2841 928 2578 
Q 928 2378 1081 2264 
Q 1234 2150 1697 2047 
L 1894 2003 
Q 2506 1872 2764 1633 
Q 3022 1394 3022 966 
Q 3022 478 2636 193 
Q 2250 -91 1575 -91 
Q 1294 -91 989 -36 
Q 684 19 347 128 
L 347 722 
Q 666 556 975 473 
Q 1284 391 1588 391 
Q 1994 391 2212 530 
Q 2431 669 2431 922 
Q 2431 1156 2273 1281 
Q 2116 1406 1581 1522 
L 1381 1569 
Q 847 1681 609 1914 
Q 372 2147 372 2553 
Q 372 3047 722 3315 
Q 1072 3584 1716 3584 
Q 2034 3584 2315 3537 
Q 2597 3491 2834 3397 
z
" transform="scale(0.015625)"/>
       <path id="DejaVuSans-64" d="M 2906 2969 
L 2906 4863 
L 3481 4863 
L 3481 0 
L 2906 0 
L 2906 525 
Q 2725 213 2448 61 
Q 2172 -91 1784 -91 
Q 1150 -91 751 415 
Q 353 922 353 1747 
Q 353 2572 751 3078 
Q 1150 3584 1784 3584 
Q 2172 3584 2448 3432 
Q 2725 3281 2906 2969 
z
M 947 1747 
Q 947 1113 1208 752 
Q 1469 391 1925 391 
Q 2381 391 2643 752 
Q 2906 1113 2906 1747 
Q 2906 2381 2643 2742 
Q 2381 3103 1925 3103 
Q 1469 3103 1208 2742 
Q 947 2381 947 1747 
z
" transform="scale(0.015625)"/>
       <path id="DejaVuSans-75" d="M 544 1381 
L 544 3500 
L 1119 3500 
L 1119 1403 
Q 1119 906 1312 657 
Q 1506 409 1894 409 
Q 2359 409 2629 706 
Q 2900 1003 2900 1516 
L 2900 3500 
L 3475 3500 
L 3475 0 
L 2900 0 
L 2900 538 
Q 2691 219 2414 64 
Q 2138 -91 1772 -91 
Q 1169 -91 856 284 
Q 544 659 544 1381 
z
M 1991 3584 
L 1991 3584 
z
" transform="scale(0.015625)"/>
       <path id="DejaVuSans-61" d="M 2194 1759 
Q 1497 1759 1228 1600 
Q 959 1441 959 1056 
Q 959 750 1161 570 
Q 1363 391 1709 391 
Q 2188 391 2477 730 
Q 2766 1069 2766 1631 
L 2766 1759 
L 2194 1759 
z
M 3341 1997 
L 3341 0 
L 2766 0 
L 2766 531 
Q 2569 213 2275 61 
Q 1981 -91 1556 -91 
Q 1019 -91 701 211 
Q 384 513 384 1019 
Q 384 1609 779 1909 
Q 1175 2209 1959 2209 
L 2766 2209 
L 2766 2266 
Q 2766 2663 2505 2880 
Q 2244 3097 1772 3097 
Q 1472 3097 1187 3025 
Q 903 2953 641 2809 
L 641 3341 
Q 956 3463 1253 3523 
Q 1550 3584 1831 3584 
Q 2591 3584 2966 3190 
Q 3341 2797 3341 1997 
z
" transform="scale(0.015625)"/>
       <path id="DejaVuSans-6c" d="M 603 4863 
L 1178 4863 
L 1178 0 
L 603 0 
L 603 4863 
z
" transform="scale(0.015625)"/>
      </defs>
      <use xlink:href="#DejaVuSans-52"/>
      <use xlink:href="#DejaVuSans-65" x="64.982422"/>
      <use xlink:href="#DejaVuSans-73" x="126.505859"/>
      <use xlink:href="#DejaVuSans-69" x="178.605469"/>
      <use xlink:href="#DejaVuSans-64" x="206.388672"/>
      <use xlink:href="#DejaVuSans-75" x="269.865234"/>
      <use xlink:href="#DejaVuSans-61" x="333.244141"/>
      <use xlink:href="#DejaVuSans-6c" x="394.523438"/>
      <use xlink:href="#DejaVuSans-65" x="422.306641"/>
      <use xlink:href="#DejaVuSans-73" x="483.830078"/>
     </g>
    </g>
   </g>
   <g id="line2d_14">
    <defs>
     <path id="mcd718dcda2" d="M 0 3 
C 0.795609 3 1.55874 2.683901 2.12132 2.12132 
C 2.683901 1.55874 3 0.795609 3 0 
C 3 -0.795609 2.683901 -1.55874 2.12132 -2.12132 
C 1.55874 -2.683901 0.795609 -3 0 -3 
C -0.795609 -3 -1.55874 -2.683901 -2.12132 -2.12132 
C -2.683901 -1.55874 -3 -0.795609 -3 0 
C -3 0.795609 -2.683901 1.55874 -2.12132 2.12132 
C -1.55874 2.683901 -0.795609 3 0 3 
z
" style="stroke: #1f77b4"/>
    </defs>
    <g clip-path="url(#p58649c4c9f)">
     <use xlink:href="#mcd718dcda2" x="153.579842" y="242.116364" style="fill: #1f77b4; stroke: #1f77b4"/>
     <use xlink:href="#mcd718dcda2" x="163.504743" y="237.484585" style="fill: #1f77b4; stroke: #1f77b4"/>
     <use xlink:href="#mcd718dcda2" x="239.595652" y="201.513335" style="fill: #1f77b4; stroke: #1f77b4"/>
     <use xlink:href="#mcd718dcda2" x="221.4" y="201.180675" style="fill: #1f77b4; stroke: #1f77b4"/>
     <use xlink:href="#mcd718dcda2" x="173.429644" y="200.26784" style="fill: #1f77b4; stroke: #1f77b4"/>
     <use xlink:href="#mcd718dcda2" x="259.445455" y="200.166428" style="fill: #1f77b4; stroke: #1f77b4"/>
     <use xlink:href="#mcd718dcda2" x="363.656917" y="198.664502" style="fill: #1f77b4; stroke: #1f77b4"/>
     <use xlink:href="#mcd718dcda2" x="191.625296" y="191.571675" style="fill: #1f77b4; stroke: #1f77b4"/>
     <use xlink:href="#mcd718dcda2" x="183.354545" y="187.946542" style="fill: #1f77b4; stroke: #1f77b4"/>
     <use xlink:href="#mcd718dcda2" x="211.475099" y="186.958869" style="fill: #1f77b4; stroke: #1f77b4"/>
     <use xlink:href="#mcd718dcda2" x="249.520553" y="186.819217" style="fill: #1f77b4; stroke: #1f77b4"/>
     <use xlink:href="#mcd718dcda2" x="221.4" y="186.249017" style="fill: #1f77b4; stroke: #1f77b4"/>
     <use xlink:href="#mcd718dcda2" x="229.670751" y="185.710354" style="fill: #1f77b4; stroke: #1f77b4"/>
     <use xlink:href="#mcd718dcda2" x="335.536364" y="184.197427" style="fill: #1f77b4; stroke: #1f77b4"/>
     <use xlink:href="#mcd718dcda2" x="221.4" y="184.155905" style="fill: #1f77b4; stroke: #1f77b4"/>
     <use xlink:href="#mcd718dcda2" x="191.625296" y="183.104283" style="fill: #1f77b4; stroke: #1f77b4"/>
     <use xlink:href="#mcd718dcda2" x="191.625296" y="180.630472" style="fill: #1f77b4; stroke: #1f77b4"/>
     <use xlink:href="#mcd718dcda2" x="305.76166" y="179.65059" style="fill: #1f77b4; stroke: #1f77b4"/>
     <use xlink:href="#mcd718dcda2" x="191.625296" y="179.523072" style="fill: #1f77b4; stroke: #1f77b4"/>
     <use xlink:href="#mcd718dcda2" x="229.670751" y="179.291625" style="fill: #1f77b4; stroke: #1f77b4"/>
     <use xlink:href="#mcd718dcda2" x="229.670751" y="178.849487" style="fill: #1f77b4; stroke: #1f77b4"/>
     <use xlink:href="#mcd718dcda2" x="277.641107" y="178.629739" style="fill: #1f77b4; stroke: #1f77b4"/>
     <use xlink:href="#mcd718dcda2" x="125.459289" y="177.672642" style="fill: #1f77b4; stroke: #1f77b4"/>
     <use xlink:href="#mcd718dcda2" x="153.579842" y="177.60056" style="fill: #1f77b4; stroke: #1f77b4"/>
     <use xlink:href="#mcd718dcda2" x="191.625296" y="177.426703" style="fill: #1f77b4; stroke: #1f77b4"/>
     <use xlink:href="#mcd718dcda2" x="259.445455" y="176.514405" style="fill: #1f77b4; stroke: #1f77b4"/>
     <use xlink:href="#mcd718dcda2" x="221.4" y="175.173517" style="fill: #1f77b4; stroke: #1f77b4"/>
     <use xlink:href="#mcd718dcda2" x="163.504743" y="173.995482" style="fill: #1f77b4; stroke: #1f77b4"/>
     <use xlink:href="#mcd718dcda2" x="277.641107" y="173.633451" style="fill: #1f77b4; stroke: #1f77b4"/>
     <use xlink:href="#mcd718dcda2" x="373.581818" y="173.596583" style="fill: #1f77b4; stroke: #1f77b4"/>
     <use xlink:href="#mcd718dcda2" x="183.354545" y="173.577788" style="fill: #1f77b4; stroke: #1f77b4"/>
     <use xlink:href="#mcd718dcda2" x="221.4" y="173.411483" style="fill: #1f77b4; stroke: #1f77b4"/>
     <use xlink:href="#mcd718dcda2" x="201.550198" y="173.30437" style="fill: #1f77b4; stroke: #1f77b4"/>
     <use xlink:href="#mcd718dcda2" x="97.338735" y="172.257737" style="fill: #1f77b4; stroke: #1f77b4"/>
     <use xlink:href="#mcd718dcda2" x="183.354545" y="171.652882" style="fill: #1f77b4; stroke: #1f77b4"/>
     <use xlink:href="#mcd718dcda2" x="183.354545" y="170.884794" style="fill: #1f77b4; stroke: #1f77b4"/>
     <use xlink:href="#mcd718dcda2" x="107.263636" y="170.775561" style="fill: #1f77b4; stroke: #1f77b4"/>
     <use xlink:href="#mcd718dcda2" x="211.475099" y="170.566629" style="fill: #1f77b4; stroke: #1f77b4"/>
     <use xlink:href="#mcd718dcda2" x="115.534387" y="168.85027" style="fill: #1f77b4; stroke: #1f77b4"/>
     <use xlink:href="#mcd718dcda2" x="135.38419" y="167.622519" style="fill: #1f77b4; stroke: #1f77b4"/>
     <use xlink:href="#mcd718dcda2" x="125.459289" y="166.813057" style="fill: #1f77b4; stroke: #1f77b4"/>
     <use xlink:href="#mcd718dcda2" x="153.579842" y="166.616234" style="fill: #1f77b4; stroke: #1f77b4"/>
     <use xlink:href="#mcd718dcda2" x="267.716206" y="165.928741" style="fill: #1f77b4; stroke: #1f77b4"/>
     <use xlink:href="#mcd718dcda2" x="277.641107" y="164.872792" style="fill: #1f77b4; stroke: #1f77b4"/>
     <use xlink:href="#mcd718dcda2" x="267.716206" y="164.749899" style="fill: #1f77b4; stroke: #1f77b4"/>
     <use xlink:href="#mcd718dcda2" x="145.309091" y="164.540461" style="fill: #1f77b4; stroke: #1f77b4"/>
     <use xlink:href="#mcd718dcda2" x="201.550198" y="163.796765" style="fill: #1f77b4; stroke: #1f77b4"/>
     <use xlink:href="#mcd718dcda2" x="135.38419" y="163.219957" style="fill: #1f77b4; stroke: #1f77b4"/>
     <use xlink:href="#mcd718dcda2" x="115.534387" y="162.510133" style="fill: #1f77b4; stroke: #1f77b4"/>
     <use xlink:href="#mcd718dcda2" x="221.4" y="162.497369" style="fill: #1f77b4; stroke: #1f77b4"/>
     <use xlink:href="#mcd718dcda2" x="145.309091" y="161.565804" style="fill: #1f77b4; stroke: #1f77b4"/>
     <use xlink:href="#mcd718dcda2" x="173.429644" y="161.379302" style="fill: #1f77b4; stroke: #1f77b4"/>
     <use xlink:href="#mcd718dcda2" x="163.504743" y="161.287081" style="fill: #1f77b4; stroke: #1f77b4"/>
     <use xlink:href="#mcd718dcda2" x="173.429644" y="161.256129" style="fill: #1f77b4; stroke: #1f77b4"/>
     <use xlink:href="#mcd718dcda2" x="229.670751" y="159.25908" style="fill: #1f77b4; stroke: #1f77b4"/>
     <use xlink:href="#mcd718dcda2" x="153.579842" y="158.93691" style="fill: #1f77b4; stroke: #1f77b4"/>
     <use xlink:href="#mcd718dcda2" x="153.579842" y="158.233173" style="fill: #1f77b4; stroke: #1f77b4"/>
     <use xlink:href="#mcd718dcda2" x="153.579842" y="157.910513" style="fill: #1f77b4; stroke: #1f77b4"/>
     <use xlink:href="#mcd718dcda2" x="183.354545" y="156.82826" style="fill: #1f77b4; stroke: #1f77b4"/>
     <use xlink:href="#mcd718dcda2" x="145.309091" y="156.041056" style="fill: #1f77b4; stroke: #1f77b4"/>
     <use xlink:href="#mcd718dcda2" x="259.445455" y="154.575195" style="fill: #1f77b4; stroke: #1f77b4"/>
     <use xlink:href="#mcd718dcda2" x="153.579842" y="153.447149" style="fill: #1f77b4; stroke: #1f77b4"/>
     <use xlink:href="#mcd718dcda2" x="97.338735" y="152.766989" style="fill: #1f77b4; stroke: #1f77b4"/>
     <use xlink:href="#mcd718dcda2" x="201.550198" y="152.080778" style="fill: #1f77b4; stroke: #1f77b4"/>
     <use xlink:href="#mcd718dcda2" x="163.504743" y="151.955954" style="fill: #1f77b4; stroke: #1f77b4"/>
     <use xlink:href="#mcd718dcda2" x="221.4" y="149.822891" style="fill: #1f77b4; stroke: #1f77b4"/>
     <use xlink:href="#mcd718dcda2" x="221.4" y="149.636408" style="fill: #1f77b4; stroke: #1f77b4"/>
     <use xlink:href="#mcd718dcda2" x="191.625296" y="149.04061" style="fill: #1f77b4; stroke: #1f77b4"/>
     <use xlink:href="#mcd718dcda2" x="201.550198" y="149.035648" style="fill: #1f77b4; stroke: #1f77b4"/>
     <use xlink:href="#mcd718dcda2" x="135.38419" y="148.864029" style="fill: #1f77b4; stroke: #1f77b4"/>
     <use xlink:href="#mcd718dcda2" x="153.579842" y="148.21274" style="fill: #1f77b4; stroke: #1f77b4"/>
     <use xlink:href="#mcd718dcda2" x="211.475099" y="147.845098" style="fill: #1f77b4; stroke: #1f77b4"/>
     <use xlink:href="#mcd718dcda2" x="201.550198" y="145.554168" style="fill: #1f77b4; stroke: #1f77b4"/>
     <use xlink:href="#mcd718dcda2" x="287.566008" y="145.528631" style="fill: #1f77b4; stroke: #1f77b4"/>
     <use xlink:href="#mcd718dcda2" x="267.716206" y="143.743263" style="fill: #1f77b4; stroke: #1f77b4"/>
     <use xlink:href="#mcd718dcda2" x="191.625296" y="143.592171" style="fill: #1f77b4; stroke: #1f77b4"/>
     <use xlink:href="#mcd718dcda2" x="87.413834" y="143.345414" style="fill: #1f77b4; stroke: #1f77b4"/>
     <use xlink:href="#mcd718dcda2" x="163.504743" y="143.250203" style="fill: #1f77b4; stroke: #1f77b4"/>
     <use xlink:href="#mcd718dcda2" x="191.625296" y="142.30903" style="fill: #1f77b4; stroke: #1f77b4"/>
     <use xlink:href="#mcd718dcda2" x="69.218182" y="142.298059" style="fill: #1f77b4; stroke: #1f77b4"/>
     <use xlink:href="#mcd718dcda2" x="135.38419" y="141.731267" style="fill: #1f77b4; stroke: #1f77b4"/>
     <use xlink:href="#mcd718dcda2" x="135.38419" y="140.140104" style="fill: #1f77b4; stroke: #1f77b4"/>
     <use xlink:href="#mcd718dcda2" x="145.309091" y="139.440668" style="fill: #1f77b4; stroke: #1f77b4"/>
     <use xlink:href="#mcd718dcda2" x="115.534387" y="139.426011" style="fill: #1f77b4; stroke: #1f77b4"/>
     <use xlink:href="#mcd718dcda2" x="77.488933" y="138.609719" style="fill: #1f77b4; stroke: #1f77b4"/>
     <use xlink:href="#mcd718dcda2" x="107.263636" y="135.259146" style="fill: #1f77b4; stroke: #1f77b4"/>
     <use xlink:href="#mcd718dcda2" x="153.579842" y="134.385289" style="fill: #1f77b4; stroke: #1f77b4"/>
     <use xlink:href="#mcd718dcda2" x="287.566008" y="134.314158" style="fill: #1f77b4; stroke: #1f77b4"/>
     <use xlink:href="#mcd718dcda2" x="211.475099" y="133.282992" style="fill: #1f77b4; stroke: #1f77b4"/>
     <use xlink:href="#mcd718dcda2" x="201.550198" y="132.952787" style="fill: #1f77b4; stroke: #1f77b4"/>
     <use xlink:href="#mcd718dcda2" x="211.475099" y="132.943402" style="fill: #1f77b4; stroke: #1f77b4"/>
     <use xlink:href="#mcd718dcda2" x="191.625296" y="128.579023" style="fill: #1f77b4; stroke: #1f77b4"/>
     <use xlink:href="#mcd718dcda2" x="277.641107" y="126.997414" style="fill: #1f77b4; stroke: #1f77b4"/>
     <use xlink:href="#mcd718dcda2" x="287.566008" y="125.949135" style="fill: #1f77b4; stroke: #1f77b4"/>
     <use xlink:href="#mcd718dcda2" x="135.38419" y="125.602233" style="fill: #1f77b4; stroke: #1f77b4"/>
     <use xlink:href="#mcd718dcda2" x="211.475099" y="122.45666" style="fill: #1f77b4; stroke: #1f77b4"/>
     <use xlink:href="#mcd718dcda2" x="221.4" y="120.422434" style="fill: #1f77b4; stroke: #1f77b4"/>
     <use xlink:href="#mcd718dcda2" x="145.309091" y="119.052283" style="fill: #1f77b4; stroke: #1f77b4"/>
     <use xlink:href="#mcd718dcda2" x="259.445455" y="118.572173" style="fill: #1f77b4; stroke: #1f77b4"/>
     <use xlink:href="#mcd718dcda2" x="201.550198" y="117.928778" style="fill: #1f77b4; stroke: #1f77b4"/>
     <use xlink:href="#mcd718dcda2" x="201.550198" y="117.146433" style="fill: #1f77b4; stroke: #1f77b4"/>
     <use xlink:href="#mcd718dcda2" x="163.504743" y="116.997249" style="fill: #1f77b4; stroke: #1f77b4"/>
     <use xlink:href="#mcd718dcda2" x="239.595652" y="108.395234" style="fill: #1f77b4; stroke: #1f77b4"/>
     <use xlink:href="#mcd718dcda2" x="183.354545" y="107.374761" style="fill: #1f77b4; stroke: #1f77b4"/>
     <use xlink:href="#mcd718dcda2" x="201.550198" y="100.47798" style="fill: #1f77b4; stroke: #1f77b4"/>
     <use xlink:href="#mcd718dcda2" x="201.550198" y="97.061078" style="fill: #1f77b4; stroke: #1f77b4"/>
     <use xlink:href="#mcd718dcda2" x="305.76166" y="86.739242" style="fill: #1f77b4; stroke: #1f77b4"/>
     <use xlink:href="#mcd718dcda2" x="145.309091" y="82.152884" style="fill: #1f77b4; stroke: #1f77b4"/>
     <use xlink:href="#mcd718dcda2" x="267.716206" y="65.793972" style="fill: #1f77b4; stroke: #1f77b4"/>
     <use xlink:href="#mcd718dcda2" x="163.504743" y="62.457139" style="fill: #1f77b4; stroke: #1f77b4"/>
     <use xlink:href="#mcd718dcda2" x="221.4" y="44.443636" style="fill: #1f77b4; stroke: #1f77b4"/>
    </g>
   </g>
   <g id="line2d_15">
    <path d="M 69.218182 107.963935 
L 77.488933 109.221294 
L 87.413834 110.656558 
L 97.338735 111.947571 
L 97.338735 111.947571 
L 107.263636 113.135642 
L 107.263636 113.135642 
L 115.534387 114.131098 
L 115.534387 114.131098 
L 115.534387 114.131098 
L 125.459289 115.479625 
L 125.459289 115.479625 
L 135.38419 117.298054 
L 135.38419 117.298054 
L 135.38419 117.298054 
L 135.38419 117.298054 
L 135.38419 117.298054 
L 135.38419 117.298054 
L 145.309091 119.072217 
L 145.309091 119.072217 
L 145.309091 119.072217 
L 145.309091 119.072217 
L 145.309091 119.072217 
L 145.309091 119.072217 
L 153.579842 120.231231 
L 153.579842 120.231231 
L 153.579842 120.231231 
L 153.579842 120.231231 
L 153.579842 120.231231 
L 153.579842 120.231231 
L 153.579842 120.231231 
L 153.579842 120.231231 
L 153.579842 120.231231 
L 163.504743 121.497484 
L 163.504743 121.497484 
L 163.504743 121.497484 
L 163.504743 121.497484 
L 163.504743 121.497484 
L 163.504743 121.497484 
L 163.504743 121.497484 
L 173.429644 123.429701 
L 173.429644 123.429701 
L 173.429644 123.429701 
L 183.354545 125.728647 
L 183.354545 125.728647 
L 183.354545 125.728647 
L 183.354545 125.728647 
L 183.354545 125.728647 
L 183.354545 125.728647 
L 191.625296 127.959225 
L 191.625296 127.959225 
L 191.625296 127.959225 
L 191.625296 127.959225 
L 191.625296 127.959225 
L 191.625296 127.959225 
L 191.625296 127.959225 
L 191.625296 127.959225 
L 191.625296 127.959225 
L 201.550198 130.495053 
L 201.550198 130.495053 
L 201.550198 130.495053 
L 201.550198 130.495053 
L 201.550198 130.495053 
L 201.550198 130.495053 
L 201.550198 130.495053 
L 201.550198 130.495053 
L 201.550198 130.495053 
L 201.550198 130.495053 
L 211.475099 132.866953 
L 211.475099 132.866953 
L 211.475099 132.866953 
L 211.475099 132.866953 
L 211.475099 132.866953 
L 211.475099 132.866953 
L 221.4 133.889093 
L 221.4 133.889093 
L 221.4 133.889093 
L 221.4 133.889093 
L 221.4 133.889093 
L 221.4 133.889093 
L 221.4 133.889093 
L 221.4 133.889093 
L 221.4 133.889093 
L 221.4 133.889093 
L 229.670751 134.530521 
L 229.670751 134.530521 
L 229.670751 134.530521 
L 229.670751 134.530521 
L 239.595652 135.348021 
L 239.595652 135.348021 
L 249.520553 135.778819 
L 259.445455 136.08448 
L 259.445455 136.08448 
L 259.445455 136.08448 
L 259.445455 136.08448 
L 267.716206 136.325729 
L 267.716206 136.325729 
L 267.716206 136.325729 
L 267.716206 136.325729 
L 277.641107 136.702417 
L 277.641107 136.702417 
L 277.641107 136.702417 
L 277.641107 136.702417 
L 287.566008 136.959739 
L 287.566008 136.959739 
L 287.566008 136.959739 
L 305.76166 137.298808 
L 305.76166 137.298808 
L 335.536364 137.784157 
L 363.656917 138.203393 
L 373.581818 138.342161 
" clip-path="url(#p58649c4c9f)" style="fill: none; stroke: #ff7f0e; stroke-width: 1.5; stroke-linecap: square"/>
   </g>
   <g id="patch_3">
    <path d="M 54 252 
L 54 34.56 
" style="fill: none; stroke: #000000; stroke-width: 0.8; stroke-linejoin: miter; stroke-linecap: square"/>
   </g>
   <g id="patch_4">
    <path d="M 388.8 252 
L 388.8 34.56 
" style="fill: none; stroke: #000000; stroke-width: 0.8; stroke-linejoin: miter; stroke-linecap: square"/>
   </g>
   <g id="patch_5">
    <path d="M 54 252 
L 388.8 252 
" style="fill: none; stroke: #000000; stroke-width: 0.8; stroke-linejoin: miter; stroke-linecap: square"/>
   </g>
   <g id="patch_6">
    <path d="M 54 34.56 
L 388.8 34.56 
" style="fill: none; stroke: #000000; stroke-width: 0.8; stroke-linejoin: miter; stroke-linecap: square"/>
   </g>
  </g>
 </g>
 <defs>
  <clipPath id="p58649c4c9f">
   <rect x="54" y="34.56" width="334.8" height="217.44"/>
  </clipPath>
 </defs>
</svg>
