<?xml version="1.0" encoding="utf-8" standalone="no"?>
<!DOCTYPE svg PUBLIC "-//W3C//DTD SVG 1.1//EN"
  "http://www.w3.org/Graphics/SVG/1.1/DTD/svg11.dtd">
<!-- Created with matplotlib (https://matplotlib.org/) -->
<svg height="288pt" version="1.1" viewBox="0 0 432 288" width="432pt" xmlns="http://www.w3.org/2000/svg" xmlns:xlink="http://www.w3.org/1999/xlink">
 <defs>
  <style type="text/css">
*{stroke-linecap:butt;stroke-linejoin:round;}
  </style>
 </defs>
 <g id="figure_1">
  <g id="patch_1">
   <path d="M 0 288 
L 432 288 
L 432 0 
L 0 0 
z
" style="fill:#ffffff;"/>
  </g>
  <g id="axes_1">
   <g id="patch_2">
    <path d="M 54 252 
L 388.8 252 
L 388.8 34.56 
L 54 34.56 
z
" style="fill:#ffffff;"/>
   </g>
   <g id="matplotlib.axis_1">
    <g id="xtick_1">
     <g id="line2d_1">
      <defs>
       <path d="M 0 0 
L 0 3.5 
" id="m81c6bcba3c" style="stroke:#000000;stroke-width:0.8;"/>
      </defs>
      <g>
       <use style="stroke:#000000;stroke-width:0.8;" x="104.762192" xlink:href="#m81c6bcba3c" y="252"/>
      </g>
     </g>
     <g id="text_1">
      <!-- −40 -->
      <defs>
       <path d="M 10.59375 35.5 
L 73.1875 35.5 
L 73.1875 27.203125 
L 10.59375 27.203125 
z
" id="DejaVuSans-8722"/>
       <path d="M 37.796875 64.3125 
L 12.890625 25.390625 
L 37.796875 25.390625 
z
M 35.203125 72.90625 
L 47.609375 72.90625 
L 47.609375 25.390625 
L 58.015625 25.390625 
L 58.015625 17.1875 
L 47.609375 17.1875 
L 47.609375 0 
L 37.796875 0 
L 37.796875 17.1875 
L 4.890625 17.1875 
L 4.890625 26.703125 
z
" id="DejaVuSans-52"/>
       <path d="M 31.78125 66.40625 
Q 24.171875 66.40625 20.328125 58.90625 
Q 16.5 51.421875 16.5 36.375 
Q 16.5 21.390625 20.328125 13.890625 
Q 24.171875 6.390625 31.78125 6.390625 
Q 39.453125 6.390625 43.28125 13.890625 
Q 47.125 21.390625 47.125 36.375 
Q 47.125 51.421875 43.28125 58.90625 
Q 39.453125 66.40625 31.78125 66.40625 
z
M 31.78125 74.21875 
Q 44.046875 74.21875 50.515625 64.515625 
Q 56.984375 54.828125 56.984375 36.375 
Q 56.984375 17.96875 50.515625 8.265625 
Q 44.046875 -1.421875 31.78125 -1.421875 
Q 19.53125 -1.421875 13.0625 8.265625 
Q 6.59375 17.96875 6.59375 36.375 
Q 6.59375 54.828125 13.0625 64.515625 
Q 19.53125 74.21875 31.78125 74.21875 
z
" id="DejaVuSans-48"/>
      </defs>
      <g transform="translate(94.209848 266.598437)scale(0.1 -0.1)">
       <use xlink:href="#DejaVuSans-8722"/>
       <use x="83.789062" xlink:href="#DejaVuSans-52"/>
       <use x="147.412109" xlink:href="#DejaVuSans-48"/>
      </g>
     </g>
    </g>
    <g id="xtick_2">
     <g id="line2d_2">
      <g>
       <use style="stroke:#000000;stroke-width:0.8;" x="175.851056" xlink:href="#m81c6bcba3c" y="252"/>
      </g>
     </g>
     <g id="text_2">
      <!-- −20 -->
      <defs>
       <path d="M 19.1875 8.296875 
L 53.609375 8.296875 
L 53.609375 0 
L 7.328125 0 
L 7.328125 8.296875 
Q 12.9375 14.109375 22.625 23.890625 
Q 32.328125 33.6875 34.8125 36.53125 
Q 39.546875 41.84375 41.421875 45.53125 
Q 43.3125 49.21875 43.3125 52.78125 
Q 43.3125 58.59375 39.234375 62.25 
Q 35.15625 65.921875 28.609375 65.921875 
Q 23.96875 65.921875 18.8125 64.3125 
Q 13.671875 62.703125 7.8125 59.421875 
L 7.8125 69.390625 
Q 13.765625 71.78125 18.9375 73 
Q 24.125 74.21875 28.421875 74.21875 
Q 39.75 74.21875 46.484375 68.546875 
Q 53.21875 62.890625 53.21875 53.421875 
Q 53.21875 48.921875 51.53125 44.890625 
Q 49.859375 40.875 45.40625 35.40625 
Q 44.1875 33.984375 37.640625 27.21875 
Q 31.109375 20.453125 19.1875 8.296875 
z
" id="DejaVuSans-50"/>
      </defs>
      <g transform="translate(165.298713 266.598437)scale(0.1 -0.1)">
       <use xlink:href="#DejaVuSans-8722"/>
       <use x="83.789062" xlink:href="#DejaVuSans-50"/>
       <use x="147.412109" xlink:href="#DejaVuSans-48"/>
      </g>
     </g>
    </g>
    <g id="xtick_3">
     <g id="line2d_3">
      <g>
       <use style="stroke:#000000;stroke-width:0.8;" x="246.939921" xlink:href="#m81c6bcba3c" y="252"/>
      </g>
     </g>
     <g id="text_3">
      <!-- 0 -->
      <g transform="translate(243.758671 266.598437)scale(0.1 -0.1)">
       <use xlink:href="#DejaVuSans-48"/>
      </g>
     </g>
    </g>
    <g id="xtick_4">
     <g id="line2d_4">
      <g>
       <use style="stroke:#000000;stroke-width:0.8;" x="318.028786" xlink:href="#m81c6bcba3c" y="252"/>
      </g>
     </g>
     <g id="text_4">
      <!-- 20 -->
      <g transform="translate(311.666286 266.598437)scale(0.1 -0.1)">
       <use xlink:href="#DejaVuSans-50"/>
       <use x="63.623047" xlink:href="#DejaVuSans-48"/>
      </g>
     </g>
    </g>
    <g id="text_5">
     <!-- Qunatiles Normales -->
     <defs>
      <path d="M 39.40625 66.21875 
Q 28.65625 66.21875 22.328125 58.203125 
Q 16.015625 50.203125 16.015625 36.375 
Q 16.015625 22.609375 22.328125 14.59375 
Q 28.65625 6.59375 39.40625 6.59375 
Q 50.140625 6.59375 56.421875 14.59375 
Q 62.703125 22.609375 62.703125 36.375 
Q 62.703125 50.203125 56.421875 58.203125 
Q 50.140625 66.21875 39.40625 66.21875 
z
M 53.21875 1.3125 
L 66.21875 -12.890625 
L 54.296875 -12.890625 
L 43.5 -1.21875 
Q 41.890625 -1.3125 41.03125 -1.359375 
Q 40.1875 -1.421875 39.40625 -1.421875 
Q 24.03125 -1.421875 14.8125 8.859375 
Q 5.609375 19.140625 5.609375 36.375 
Q 5.609375 53.65625 14.8125 63.9375 
Q 24.03125 74.21875 39.40625 74.21875 
Q 54.734375 74.21875 63.90625 63.9375 
Q 73.09375 53.65625 73.09375 36.375 
Q 73.09375 23.6875 67.984375 14.640625 
Q 62.890625 5.609375 53.21875 1.3125 
z
" id="DejaVuSans-81"/>
      <path d="M 8.5 21.578125 
L 8.5 54.6875 
L 17.484375 54.6875 
L 17.484375 21.921875 
Q 17.484375 14.15625 20.5 10.265625 
Q 23.53125 6.390625 29.59375 6.390625 
Q 36.859375 6.390625 41.078125 11.03125 
Q 45.3125 15.671875 45.3125 23.6875 
L 45.3125 54.6875 
L 54.296875 54.6875 
L 54.296875 0 
L 45.3125 0 
L 45.3125 8.40625 
Q 42.046875 3.421875 37.71875 1 
Q 33.40625 -1.421875 27.6875 -1.421875 
Q 18.265625 -1.421875 13.375 4.4375 
Q 8.5 10.296875 8.5 21.578125 
z
M 31.109375 56 
z
" id="DejaVuSans-117"/>
      <path d="M 54.890625 33.015625 
L 54.890625 0 
L 45.90625 0 
L 45.90625 32.71875 
Q 45.90625 40.484375 42.875 44.328125 
Q 39.84375 48.1875 33.796875 48.1875 
Q 26.515625 48.1875 22.3125 43.546875 
Q 18.109375 38.921875 18.109375 30.90625 
L 18.109375 0 
L 9.078125 0 
L 9.078125 54.6875 
L 18.109375 54.6875 
L 18.109375 46.1875 
Q 21.34375 51.125 25.703125 53.5625 
Q 30.078125 56 35.796875 56 
Q 45.21875 56 50.046875 50.171875 
Q 54.890625 44.34375 54.890625 33.015625 
z
" id="DejaVuSans-110"/>
      <path d="M 34.28125 27.484375 
Q 23.390625 27.484375 19.1875 25 
Q 14.984375 22.515625 14.984375 16.5 
Q 14.984375 11.71875 18.140625 8.90625 
Q 21.296875 6.109375 26.703125 6.109375 
Q 34.1875 6.109375 38.703125 11.40625 
Q 43.21875 16.703125 43.21875 25.484375 
L 43.21875 27.484375 
z
M 52.203125 31.203125 
L 52.203125 0 
L 43.21875 0 
L 43.21875 8.296875 
Q 40.140625 3.328125 35.546875 0.953125 
Q 30.953125 -1.421875 24.3125 -1.421875 
Q 15.921875 -1.421875 10.953125 3.296875 
Q 6 8.015625 6 15.921875 
Q 6 25.140625 12.171875 29.828125 
Q 18.359375 34.515625 30.609375 34.515625 
L 43.21875 34.515625 
L 43.21875 35.40625 
Q 43.21875 41.609375 39.140625 45 
Q 35.0625 48.390625 27.6875 48.390625 
Q 23 48.390625 18.546875 47.265625 
Q 14.109375 46.140625 10.015625 43.890625 
L 10.015625 52.203125 
Q 14.9375 54.109375 19.578125 55.046875 
Q 24.21875 56 28.609375 56 
Q 40.484375 56 46.34375 49.84375 
Q 52.203125 43.703125 52.203125 31.203125 
z
" id="DejaVuSans-97"/>
      <path d="M 18.3125 70.21875 
L 18.3125 54.6875 
L 36.8125 54.6875 
L 36.8125 47.703125 
L 18.3125 47.703125 
L 18.3125 18.015625 
Q 18.3125 11.328125 20.140625 9.421875 
Q 21.96875 7.515625 27.59375 7.515625 
L 36.8125 7.515625 
L 36.8125 0 
L 27.59375 0 
Q 17.1875 0 13.234375 3.875 
Q 9.28125 7.765625 9.28125 18.015625 
L 9.28125 47.703125 
L 2.6875 47.703125 
L 2.6875 54.6875 
L 9.28125 54.6875 
L 9.28125 70.21875 
z
" id="DejaVuSans-116"/>
      <path d="M 9.421875 54.6875 
L 18.40625 54.6875 
L 18.40625 0 
L 9.421875 0 
z
M 9.421875 75.984375 
L 18.40625 75.984375 
L 18.40625 64.59375 
L 9.421875 64.59375 
z
" id="DejaVuSans-105"/>
      <path d="M 9.421875 75.984375 
L 18.40625 75.984375 
L 18.40625 0 
L 9.421875 0 
z
" id="DejaVuSans-108"/>
      <path d="M 56.203125 29.59375 
L 56.203125 25.203125 
L 14.890625 25.203125 
Q 15.484375 15.921875 20.484375 11.0625 
Q 25.484375 6.203125 34.421875 6.203125 
Q 39.59375 6.203125 44.453125 7.46875 
Q 49.3125 8.734375 54.109375 11.28125 
L 54.109375 2.78125 
Q 49.265625 0.734375 44.1875 -0.34375 
Q 39.109375 -1.421875 33.890625 -1.421875 
Q 20.796875 -1.421875 13.15625 6.1875 
Q 5.515625 13.8125 5.515625 26.8125 
Q 5.515625 40.234375 12.765625 48.109375 
Q 20.015625 56 32.328125 56 
Q 43.359375 56 49.78125 48.890625 
Q 56.203125 41.796875 56.203125 29.59375 
z
M 47.21875 32.234375 
Q 47.125 39.59375 43.09375 43.984375 
Q 39.0625 48.390625 32.421875 48.390625 
Q 24.90625 48.390625 20.390625 44.140625 
Q 15.875 39.890625 15.1875 32.171875 
z
" id="DejaVuSans-101"/>
      <path d="M 44.28125 53.078125 
L 44.28125 44.578125 
Q 40.484375 46.53125 36.375 47.5 
Q 32.28125 48.484375 27.875 48.484375 
Q 21.1875 48.484375 17.84375 46.4375 
Q 14.5 44.390625 14.5 40.28125 
Q 14.5 37.15625 16.890625 35.375 
Q 19.28125 33.59375 26.515625 31.984375 
L 29.59375 31.296875 
Q 39.15625 29.25 43.1875 25.515625 
Q 47.21875 21.78125 47.21875 15.09375 
Q 47.21875 7.46875 41.1875 3.015625 
Q 35.15625 -1.421875 24.609375 -1.421875 
Q 20.21875 -1.421875 15.453125 -0.5625 
Q 10.6875 0.296875 5.421875 2 
L 5.421875 11.28125 
Q 10.40625 8.6875 15.234375 7.390625 
Q 20.0625 6.109375 24.8125 6.109375 
Q 31.15625 6.109375 34.5625 8.28125 
Q 37.984375 10.453125 37.984375 14.40625 
Q 37.984375 18.0625 35.515625 20.015625 
Q 33.0625 21.96875 24.703125 23.78125 
L 21.578125 24.515625 
Q 13.234375 26.265625 9.515625 29.90625 
Q 5.8125 33.546875 5.8125 39.890625 
Q 5.8125 47.609375 11.28125 51.796875 
Q 16.75 56 26.8125 56 
Q 31.78125 56 36.171875 55.265625 
Q 40.578125 54.546875 44.28125 53.078125 
z
" id="DejaVuSans-115"/>
      <path id="DejaVuSans-32"/>
      <path d="M 9.8125 72.90625 
L 23.09375 72.90625 
L 55.421875 11.921875 
L 55.421875 72.90625 
L 64.984375 72.90625 
L 64.984375 0 
L 51.703125 0 
L 19.390625 60.984375 
L 19.390625 0 
L 9.8125 0 
z
" id="DejaVuSans-78"/>
      <path d="M 30.609375 48.390625 
Q 23.390625 48.390625 19.1875 42.75 
Q 14.984375 37.109375 14.984375 27.296875 
Q 14.984375 17.484375 19.15625 11.84375 
Q 23.34375 6.203125 30.609375 6.203125 
Q 37.796875 6.203125 41.984375 11.859375 
Q 46.1875 17.53125 46.1875 27.296875 
Q 46.1875 37.015625 41.984375 42.703125 
Q 37.796875 48.390625 30.609375 48.390625 
z
M 30.609375 56 
Q 42.328125 56 49.015625 48.375 
Q 55.71875 40.765625 55.71875 27.296875 
Q 55.71875 13.875 49.015625 6.21875 
Q 42.328125 -1.421875 30.609375 -1.421875 
Q 18.84375 -1.421875 12.171875 6.21875 
Q 5.515625 13.875 5.515625 27.296875 
Q 5.515625 40.765625 12.171875 48.375 
Q 18.84375 56 30.609375 56 
z
" id="DejaVuSans-111"/>
      <path d="M 41.109375 46.296875 
Q 39.59375 47.171875 37.8125 47.578125 
Q 36.03125 48 33.890625 48 
Q 26.265625 48 22.1875 43.046875 
Q 18.109375 38.09375 18.109375 28.8125 
L 18.109375 0 
L 9.078125 0 
L 9.078125 54.6875 
L 18.109375 54.6875 
L 18.109375 46.1875 
Q 20.953125 51.171875 25.484375 53.578125 
Q 30.03125 56 36.53125 56 
Q 37.453125 56 38.578125 55.875 
Q 39.703125 55.765625 41.0625 55.515625 
z
" id="DejaVuSans-114"/>
      <path d="M 52 44.1875 
Q 55.375 50.25 60.0625 53.125 
Q 64.75 56 71.09375 56 
Q 79.640625 56 84.28125 50.015625 
Q 88.921875 44.046875 88.921875 33.015625 
L 88.921875 0 
L 79.890625 0 
L 79.890625 32.71875 
Q 79.890625 40.578125 77.09375 44.375 
Q 74.3125 48.1875 68.609375 48.1875 
Q 61.625 48.1875 57.5625 43.546875 
Q 53.515625 38.921875 53.515625 30.90625 
L 53.515625 0 
L 44.484375 0 
L 44.484375 32.71875 
Q 44.484375 40.625 41.703125 44.40625 
Q 38.921875 48.1875 33.109375 48.1875 
Q 26.21875 48.1875 22.15625 43.53125 
Q 18.109375 38.875 18.109375 30.90625 
L 18.109375 0 
L 9.078125 0 
L 9.078125 54.6875 
L 18.109375 54.6875 
L 18.109375 46.1875 
Q 21.1875 51.21875 25.484375 53.609375 
Q 29.78125 56 35.6875 56 
Q 41.65625 56 45.828125 52.96875 
Q 50 49.953125 52 44.1875 
z
" id="DejaVuSans-109"/>
     </defs>
     <g transform="translate(172.28125 280.276563)scale(0.1 -0.1)">
      <use xlink:href="#DejaVuSans-81"/>
      <use x="78.710938" xlink:href="#DejaVuSans-117"/>
      <use x="142.089844" xlink:href="#DejaVuSans-110"/>
      <use x="205.46875" xlink:href="#DejaVuSans-97"/>
      <use x="266.748047" xlink:href="#DejaVuSans-116"/>
      <use x="305.957031" xlink:href="#DejaVuSans-105"/>
      <use x="333.740234" xlink:href="#DejaVuSans-108"/>
      <use x="361.523438" xlink:href="#DejaVuSans-101"/>
      <use x="423.046875" xlink:href="#DejaVuSans-115"/>
      <use x="475.146484" xlink:href="#DejaVuSans-32"/>
      <use x="506.933594" xlink:href="#DejaVuSans-78"/>
      <use x="581.738281" xlink:href="#DejaVuSans-111"/>
      <use x="642.919922" xlink:href="#DejaVuSans-114"/>
      <use x="682.283203" xlink:href="#DejaVuSans-109"/>
      <use x="779.695312" xlink:href="#DejaVuSans-97"/>
      <use x="840.974609" xlink:href="#DejaVuSans-108"/>
      <use x="868.757812" xlink:href="#DejaVuSans-101"/>
      <use x="930.28125" xlink:href="#DejaVuSans-115"/>
     </g>
    </g>
   </g>
   <g id="matplotlib.axis_2">
    <g id="ytick_1">
     <g id="line2d_5">
      <defs>
       <path d="M 0 0 
L -3.5 0 
" id="m8dbce2fd4d" style="stroke:#000000;stroke-width:0.8;"/>
      </defs>
      <g>
       <use style="stroke:#000000;stroke-width:0.8;" x="54" xlink:href="#m8dbce2fd4d" y="245.530081"/>
      </g>
     </g>
     <g id="text_6">
      <!-- −80 -->
      <defs>
       <path d="M 31.78125 34.625 
Q 24.75 34.625 20.71875 30.859375 
Q 16.703125 27.09375 16.703125 20.515625 
Q 16.703125 13.921875 20.71875 10.15625 
Q 24.75 6.390625 31.78125 6.390625 
Q 38.8125 6.390625 42.859375 10.171875 
Q 46.921875 13.96875 46.921875 20.515625 
Q 46.921875 27.09375 42.890625 30.859375 
Q 38.875 34.625 31.78125 34.625 
z
M 21.921875 38.8125 
Q 15.578125 40.375 12.03125 44.71875 
Q 8.5 49.078125 8.5 55.328125 
Q 8.5 64.0625 14.71875 69.140625 
Q 20.953125 74.21875 31.78125 74.21875 
Q 42.671875 74.21875 48.875 69.140625 
Q 55.078125 64.0625 55.078125 55.328125 
Q 55.078125 49.078125 51.53125 44.71875 
Q 48 40.375 41.703125 38.8125 
Q 48.828125 37.15625 52.796875 32.3125 
Q 56.78125 27.484375 56.78125 20.515625 
Q 56.78125 9.90625 50.3125 4.234375 
Q 43.84375 -1.421875 31.78125 -1.421875 
Q 19.734375 -1.421875 13.25 4.234375 
Q 6.78125 9.90625 6.78125 20.515625 
Q 6.78125 27.484375 10.78125 32.3125 
Q 14.796875 37.15625 21.921875 38.8125 
z
M 18.3125 54.390625 
Q 18.3125 48.734375 21.84375 45.5625 
Q 25.390625 42.390625 31.78125 42.390625 
Q 38.140625 42.390625 41.71875 45.5625 
Q 45.3125 48.734375 45.3125 54.390625 
Q 45.3125 60.0625 41.71875 63.234375 
Q 38.140625 66.40625 31.78125 66.40625 
Q 25.390625 66.40625 21.84375 63.234375 
Q 18.3125 60.0625 18.3125 54.390625 
z
" id="DejaVuSans-56"/>
      </defs>
      <g transform="translate(25.895312 249.3293)scale(0.1 -0.1)">
       <use xlink:href="#DejaVuSans-8722"/>
       <use x="83.789062" xlink:href="#DejaVuSans-56"/>
       <use x="147.412109" xlink:href="#DejaVuSans-48"/>
      </g>
     </g>
    </g>
    <g id="ytick_2">
     <g id="line2d_6">
      <g>
       <use style="stroke:#000000;stroke-width:0.8;" x="54" xlink:href="#m8dbce2fd4d" y="212.423074"/>
      </g>
     </g>
     <g id="text_7">
      <!-- −60 -->
      <defs>
       <path d="M 33.015625 40.375 
Q 26.375 40.375 22.484375 35.828125 
Q 18.609375 31.296875 18.609375 23.390625 
Q 18.609375 15.53125 22.484375 10.953125 
Q 26.375 6.390625 33.015625 6.390625 
Q 39.65625 6.390625 43.53125 10.953125 
Q 47.40625 15.53125 47.40625 23.390625 
Q 47.40625 31.296875 43.53125 35.828125 
Q 39.65625 40.375 33.015625 40.375 
z
M 52.59375 71.296875 
L 52.59375 62.3125 
Q 48.875 64.0625 45.09375 64.984375 
Q 41.3125 65.921875 37.59375 65.921875 
Q 27.828125 65.921875 22.671875 59.328125 
Q 17.53125 52.734375 16.796875 39.40625 
Q 19.671875 43.65625 24.015625 45.921875 
Q 28.375 48.1875 33.59375 48.1875 
Q 44.578125 48.1875 50.953125 41.515625 
Q 57.328125 34.859375 57.328125 23.390625 
Q 57.328125 12.15625 50.6875 5.359375 
Q 44.046875 -1.421875 33.015625 -1.421875 
Q 20.359375 -1.421875 13.671875 8.265625 
Q 6.984375 17.96875 6.984375 36.375 
Q 6.984375 53.65625 15.1875 63.9375 
Q 23.390625 74.21875 37.203125 74.21875 
Q 40.921875 74.21875 44.703125 73.484375 
Q 48.484375 72.75 52.59375 71.296875 
z
" id="DejaVuSans-54"/>
      </defs>
      <g transform="translate(25.895312 216.222293)scale(0.1 -0.1)">
       <use xlink:href="#DejaVuSans-8722"/>
       <use x="83.789062" xlink:href="#DejaVuSans-54"/>
       <use x="147.412109" xlink:href="#DejaVuSans-48"/>
      </g>
     </g>
    </g>
    <g id="ytick_3">
     <g id="line2d_7">
      <g>
       <use style="stroke:#000000;stroke-width:0.8;" x="54" xlink:href="#m8dbce2fd4d" y="179.316068"/>
      </g>
     </g>
     <g id="text_8">
      <!-- −40 -->
      <g transform="translate(25.895312 183.115287)scale(0.1 -0.1)">
       <use xlink:href="#DejaVuSans-8722"/>
       <use x="83.789062" xlink:href="#DejaVuSans-52"/>
       <use x="147.412109" xlink:href="#DejaVuSans-48"/>
      </g>
     </g>
    </g>
    <g id="ytick_4">
     <g id="line2d_8">
      <g>
       <use style="stroke:#000000;stroke-width:0.8;" x="54" xlink:href="#m8dbce2fd4d" y="146.209061"/>
      </g>
     </g>
     <g id="text_9">
      <!-- −20 -->
      <g transform="translate(25.895312 150.00828)scale(0.1 -0.1)">
       <use xlink:href="#DejaVuSans-8722"/>
       <use x="83.789062" xlink:href="#DejaVuSans-50"/>
       <use x="147.412109" xlink:href="#DejaVuSans-48"/>
      </g>
     </g>
    </g>
    <g id="ytick_5">
     <g id="line2d_9">
      <g>
       <use style="stroke:#000000;stroke-width:0.8;" x="54" xlink:href="#m8dbce2fd4d" y="113.102055"/>
      </g>
     </g>
     <g id="text_10">
      <!-- 0 -->
      <g transform="translate(40.6375 116.901273)scale(0.1 -0.1)">
       <use xlink:href="#DejaVuSans-48"/>
      </g>
     </g>
    </g>
    <g id="ytick_6">
     <g id="line2d_10">
      <g>
       <use style="stroke:#000000;stroke-width:0.8;" x="54" xlink:href="#m8dbce2fd4d" y="79.995048"/>
      </g>
     </g>
     <g id="text_11">
      <!-- 20 -->
      <g transform="translate(34.275 83.794267)scale(0.1 -0.1)">
       <use xlink:href="#DejaVuSans-50"/>
       <use x="63.623047" xlink:href="#DejaVuSans-48"/>
      </g>
     </g>
    </g>
    <g id="ytick_7">
     <g id="line2d_11">
      <g>
       <use style="stroke:#000000;stroke-width:0.8;" x="54" xlink:href="#m8dbce2fd4d" y="46.888041"/>
      </g>
     </g>
     <g id="text_12">
      <!-- 40 -->
      <g transform="translate(34.275 50.68726)scale(0.1 -0.1)">
       <use xlink:href="#DejaVuSans-52"/>
       <use x="63.623047" xlink:href="#DejaVuSans-48"/>
      </g>
     </g>
    </g>
    <g id="text_13">
     <!-- Residuales -->
     <defs>
      <path d="M 44.390625 34.1875 
Q 47.5625 33.109375 50.5625 29.59375 
Q 53.5625 26.078125 56.59375 19.921875 
L 66.609375 0 
L 56 0 
L 46.6875 18.703125 
Q 43.0625 26.03125 39.671875 28.421875 
Q 36.28125 30.8125 30.421875 30.8125 
L 19.671875 30.8125 
L 19.671875 0 
L 9.8125 0 
L 9.8125 72.90625 
L 32.078125 72.90625 
Q 44.578125 72.90625 50.734375 67.671875 
Q 56.890625 62.453125 56.890625 51.90625 
Q 56.890625 45.015625 53.6875 40.46875 
Q 50.484375 35.9375 44.390625 34.1875 
z
M 19.671875 64.796875 
L 19.671875 38.921875 
L 32.078125 38.921875 
Q 39.203125 38.921875 42.84375 42.21875 
Q 46.484375 45.515625 46.484375 51.90625 
Q 46.484375 58.296875 42.84375 61.546875 
Q 39.203125 64.796875 32.078125 64.796875 
z
" id="DejaVuSans-82"/>
      <path d="M 45.40625 46.390625 
L 45.40625 75.984375 
L 54.390625 75.984375 
L 54.390625 0 
L 45.40625 0 
L 45.40625 8.203125 
Q 42.578125 3.328125 38.25 0.953125 
Q 33.9375 -1.421875 27.875 -1.421875 
Q 17.96875 -1.421875 11.734375 6.484375 
Q 5.515625 14.40625 5.515625 27.296875 
Q 5.515625 40.1875 11.734375 48.09375 
Q 17.96875 56 27.875 56 
Q 33.9375 56 38.25 53.625 
Q 42.578125 51.265625 45.40625 46.390625 
z
M 14.796875 27.296875 
Q 14.796875 17.390625 18.875 11.75 
Q 22.953125 6.109375 30.078125 6.109375 
Q 37.203125 6.109375 41.296875 11.75 
Q 45.40625 17.390625 45.40625 27.296875 
Q 45.40625 37.203125 41.296875 42.84375 
Q 37.203125 48.484375 30.078125 48.484375 
Q 22.953125 48.484375 18.875 42.84375 
Q 14.796875 37.203125 14.796875 27.296875 
z
" id="DejaVuSans-100"/>
     </defs>
     <g transform="translate(19.815625 170.076875)rotate(-90)scale(0.1 -0.1)">
      <use xlink:href="#DejaVuSans-82"/>
      <use x="64.982422" xlink:href="#DejaVuSans-101"/>
      <use x="126.505859" xlink:href="#DejaVuSans-115"/>
      <use x="178.605469" xlink:href="#DejaVuSans-105"/>
      <use x="206.388672" xlink:href="#DejaVuSans-100"/>
      <use x="269.865234" xlink:href="#DejaVuSans-117"/>
      <use x="333.244141" xlink:href="#DejaVuSans-97"/>
      <use x="394.523438" xlink:href="#DejaVuSans-108"/>
      <use x="422.306641" xlink:href="#DejaVuSans-101"/>
      <use x="483.830078" xlink:href="#DejaVuSans-115"/>
     </g>
    </g>
   </g>
   <g id="line2d_12">
    <defs>
     <path d="M 0 3 
C 0.795609 3 1.55874 2.683901 2.12132 2.12132 
C 2.683901 1.55874 3 0.795609 3 0 
C 3 -0.795609 2.683901 -1.55874 2.12132 -2.12132 
C 1.55874 -2.683901 0.795609 -3 0 -3 
C -0.795609 -3 -1.55874 -2.683901 -2.12132 -2.12132 
C -2.683901 -1.55874 -3 -0.795609 -3 0 
C -3 0.795609 -2.683901 1.55874 -2.12132 2.12132 
C -1.55874 2.683901 -0.795609 3 0 3 
z
" id="mba407b1b4c" style="stroke:#1f77b4;"/>
    </defs>
    <g clip-path="url(#p5e933e59c1)">
     <use style="fill:#1f77b4;stroke:#1f77b4;" x="69.218182" xlink:href="#mba407b1b4c" y="242.116364"/>
     <use style="fill:#1f77b4;stroke:#1f77b4;" x="71.598289" xlink:href="#mba407b1b4c" y="195.02852"/>
     <use style="fill:#1f77b4;stroke:#1f77b4;" x="103.758742" xlink:href="#mba407b1b4c" y="194.751017"/>
     <use style="fill:#1f77b4;stroke:#1f77b4;" x="150.264169" xlink:href="#mba407b1b4c" y="178.936163"/>
     <use style="fill:#1f77b4;stroke:#1f77b4;" x="163.366947" xlink:href="#mba407b1b4c" y="156.524364"/>
     <use style="fill:#1f77b4;stroke:#1f77b4;" x="165.027159" xlink:href="#mba407b1b4c" y="151.58177"/>
     <use style="fill:#1f77b4;stroke:#1f77b4;" x="175.434295" xlink:href="#mba407b1b4c" y="151.210065"/>
     <use style="fill:#1f77b4;stroke:#1f77b4;" x="177.293346" xlink:href="#mba407b1b4c" y="145.71645"/>
     <use style="fill:#1f77b4;stroke:#1f77b4;" x="177.670418" xlink:href="#mba407b1b4c" y="145.507521"/>
     <use style="fill:#1f77b4;stroke:#1f77b4;" x="180.339243" xlink:href="#mba407b1b4c" y="145.333849"/>
     <use style="fill:#1f77b4;stroke:#1f77b4;" x="182.437186" xlink:href="#mba407b1b4c" y="143.854725"/>
     <use style="fill:#1f77b4;stroke:#1f77b4;" x="183.973255" xlink:href="#mba407b1b4c" y="142.967548"/>
     <use style="fill:#1f77b4;stroke:#1f77b4;" x="186.79053" xlink:href="#mba407b1b4c" y="142.278875"/>
     <use style="fill:#1f77b4;stroke:#1f77b4;" x="187.699879" xlink:href="#mba407b1b4c" y="140.762358"/>
     <use style="fill:#1f77b4;stroke:#1f77b4;" x="188.993998" xlink:href="#mba407b1b4c" y="140.667095"/>
     <use style="fill:#1f77b4;stroke:#1f77b4;" x="196.009103" xlink:href="#mba407b1b4c" y="139.87644"/>
     <use style="fill:#1f77b4;stroke:#1f77b4;" x="205.443406" xlink:href="#mba407b1b4c" y="135.5991"/>
     <use style="fill:#1f77b4;stroke:#1f77b4;" x="208.80992" xlink:href="#mba407b1b4c" y="131.045037"/>
     <use style="fill:#1f77b4;stroke:#1f77b4;" x="212.669221" xlink:href="#mba407b1b4c" y="130.771896"/>
     <use style="fill:#1f77b4;stroke:#1f77b4;" x="215.579524" xlink:href="#mba407b1b4c" y="128.184497"/>
     <use style="fill:#1f77b4;stroke:#1f77b4;" x="216.698917" xlink:href="#mba407b1b4c" y="127.441721"/>
     <use style="fill:#1f77b4;stroke:#1f77b4;" x="217.330172" xlink:href="#mba407b1b4c" y="127.032059"/>
     <use style="fill:#1f77b4;stroke:#1f77b4;" x="217.920496" xlink:href="#mba407b1b4c" y="126.800878"/>
     <use style="fill:#1f77b4;stroke:#1f77b4;" x="218.744081" xlink:href="#mba407b1b4c" y="126.488465"/>
     <use style="fill:#1f77b4;stroke:#1f77b4;" x="219.812913" xlink:href="#mba407b1b4c" y="126.041792"/>
     <use style="fill:#1f77b4;stroke:#1f77b4;" x="224.177164" xlink:href="#mba407b1b4c" y="125.488408"/>
     <use style="fill:#1f77b4;stroke:#1f77b4;" x="227.556195" xlink:href="#mba407b1b4c" y="122.155583"/>
     <use style="fill:#1f77b4;stroke:#1f77b4;" x="227.860855" xlink:href="#mba407b1b4c" y="122.104844"/>
     <use style="fill:#1f77b4;stroke:#1f77b4;" x="229.236705" xlink:href="#mba407b1b4c" y="121.870003"/>
     <use style="fill:#1f77b4;stroke:#1f77b4;" x="230.490285" xlink:href="#mba407b1b4c" y="120.784576"/>
     <use style="fill:#1f77b4;stroke:#1f77b4;" x="231.071597" xlink:href="#mba407b1b4c" y="120.73781"/>
     <use style="fill:#1f77b4;stroke:#1f77b4;" x="232.768087" xlink:href="#mba407b1b4c" y="120.187507"/>
     <use style="fill:#1f77b4;stroke:#1f77b4;" x="235.073647" xlink:href="#mba407b1b4c" y="119.054801"/>
     <use style="fill:#1f77b4;stroke:#1f77b4;" x="236.58774" xlink:href="#mba407b1b4c" y="118.016442"/>
     <use style="fill:#1f77b4;stroke:#1f77b4;" x="237.054972" xlink:href="#mba407b1b4c" y="117.779097"/>
     <use style="fill:#1f77b4;stroke:#1f77b4;" x="237.453299" xlink:href="#mba407b1b4c" y="117.583115"/>
     <use style="fill:#1f77b4;stroke:#1f77b4;" x="238.126795" xlink:href="#mba407b1b4c" y="117.406667"/>
     <use style="fill:#1f77b4;stroke:#1f77b4;" x="239.546581" xlink:href="#mba407b1b4c" y="116.81653"/>
     <use style="fill:#1f77b4;stroke:#1f77b4;" x="241.230001" xlink:href="#mba407b1b4c" y="115.972482"/>
     <use style="fill:#1f77b4;stroke:#1f77b4;" x="242.694283" xlink:href="#mba407b1b4c" y="115.276621"/>
     <use style="fill:#1f77b4;stroke:#1f77b4;" x="243.762083" xlink:href="#mba407b1b4c" y="114.586008"/>
     <use style="fill:#1f77b4;stroke:#1f77b4;" x="244.359658" xlink:href="#mba407b1b4c" y="114.5711"/>
     <use style="fill:#1f77b4;stroke:#1f77b4;" x="246.556132" xlink:href="#mba407b1b4c" y="113.501566"/>
     <use style="fill:#1f77b4;stroke:#1f77b4;" x="248.2505" xlink:href="#mba407b1b4c" y="112.550531"/>
     <use style="fill:#1f77b4;stroke:#1f77b4;" x="249.001239" xlink:href="#mba407b1b4c" y="112.275991"/>
     <use style="fill:#1f77b4;stroke:#1f77b4;" x="250.499933" xlink:href="#mba407b1b4c" y="111.59422"/>
     <use style="fill:#1f77b4;stroke:#1f77b4;" x="251.988081" xlink:href="#mba407b1b4c" y="110.753611"/>
     <use style="fill:#1f77b4;stroke:#1f77b4;" x="252.062811" xlink:href="#mba407b1b4c" y="110.737746"/>
     <use style="fill:#1f77b4;stroke:#1f77b4;" x="252.782587" xlink:href="#mba407b1b4c" y="110.587335"/>
     <use style="fill:#1f77b4;stroke:#1f77b4;" x="255.943742" xlink:href="#mba407b1b4c" y="108.937054"/>
     <use style="fill:#1f77b4;stroke:#1f77b4;" x="256.723793" xlink:href="#mba407b1b4c" y="108.673893"/>
     <use style="fill:#1f77b4;stroke:#1f77b4;" x="259.588802" xlink:href="#mba407b1b4c" y="107.236767"/>
     <use style="fill:#1f77b4;stroke:#1f77b4;" x="260.501304" xlink:href="#mba407b1b4c" y="106.880321"/>
     <use style="fill:#1f77b4;stroke:#1f77b4;" x="264.090418" xlink:href="#mba407b1b4c" y="105.12606"/>
     <use style="fill:#1f77b4;stroke:#1f77b4;" x="264.762655" xlink:href="#mba407b1b4c" y="104.812066"/>
     <use style="fill:#1f77b4;stroke:#1f77b4;" x="265.977818" xlink:href="#mba407b1b4c" y="104.235859"/>
     <use style="fill:#1f77b4;stroke:#1f77b4;" x="266.007111" xlink:href="#mba407b1b4c" y="104.221969"/>
     <use style="fill:#1f77b4;stroke:#1f77b4;" x="267.612642" xlink:href="#mba407b1b4c" y="103.446816"/>
     <use style="fill:#1f77b4;stroke:#1f77b4;" x="269.183445" xlink:href="#mba407b1b4c" y="102.703116"/>
     <use style="fill:#1f77b4;stroke:#1f77b4;" x="269.505027" xlink:href="#mba407b1b4c" y="102.584736"/>
     <use style="fill:#1f77b4;stroke:#1f77b4;" x="270.486693" xlink:href="#mba407b1b4c" y="102.092025"/>
     <use style="fill:#1f77b4;stroke:#1f77b4;" x="271.378956" xlink:href="#mba407b1b4c" y="101.675894"/>
     <use style="fill:#1f77b4;stroke:#1f77b4;" x="271.518222" xlink:href="#mba407b1b4c" y="101.652725"/>
     <use style="fill:#1f77b4;stroke:#1f77b4;" x="271.62515" xlink:href="#mba407b1b4c" y="101.598007"/>
     <use style="fill:#1f77b4;stroke:#1f77b4;" x="273.131214" xlink:href="#mba407b1b4c" y="100.771617"/>
     <use style="fill:#1f77b4;stroke:#1f77b4;" x="273.664215" xlink:href="#mba407b1b4c" y="100.631115"/>
     <use style="fill:#1f77b4;stroke:#1f77b4;" x="274.207174" xlink:href="#mba407b1b4c" y="100.347663"/>
     <use style="fill:#1f77b4;stroke:#1f77b4;" x="274.718903" xlink:href="#mba407b1b4c" y="100.115211"/>
     <use style="fill:#1f77b4;stroke:#1f77b4;" x="276.525883" xlink:href="#mba407b1b4c" y="99.08413"/>
     <use style="fill:#1f77b4;stroke:#1f77b4;" x="277.255595" xlink:href="#mba407b1b4c" y="98.950159"/>
     <use style="fill:#1f77b4;stroke:#1f77b4;" x="277.779894" xlink:href="#mba407b1b4c" y="98.662401"/>
     <use style="fill:#1f77b4;stroke:#1f77b4;" x="278.19724" xlink:href="#mba407b1b4c" y="98.498201"/>
     <use style="fill:#1f77b4;stroke:#1f77b4;" x="278.47513" xlink:href="#mba407b1b4c" y="98.379736"/>
     <use style="fill:#1f77b4;stroke:#1f77b4;" x="281.386772" xlink:href="#mba407b1b4c" y="96.434433"/>
     <use style="fill:#1f77b4;stroke:#1f77b4;" x="283.026028" xlink:href="#mba407b1b4c" y="96.225346"/>
     <use style="fill:#1f77b4;stroke:#1f77b4;" x="283.989302" xlink:href="#mba407b1b4c" y="95.637861"/>
     <use style="fill:#1f77b4;stroke:#1f77b4;" x="284.674828" xlink:href="#mba407b1b4c" y="95.462753"/>
     <use style="fill:#1f77b4;stroke:#1f77b4;" x="284.862072" xlink:href="#mba407b1b4c" y="95.427282"/>
     <use style="fill:#1f77b4;stroke:#1f77b4;" x="285.17328" xlink:href="#mba407b1b4c" y="95.204981"/>
     <use style="fill:#1f77b4;stroke:#1f77b4;" x="285.621" xlink:href="#mba407b1b4c" y="94.999869"/>
     <use style="fill:#1f77b4;stroke:#1f77b4;" x="287.043865" xlink:href="#mba407b1b4c" y="93.961626"/>
     <use style="fill:#1f77b4;stroke:#1f77b4;" x="288.334182" xlink:href="#mba407b1b4c" y="93.705116"/>
     <use style="fill:#1f77b4;stroke:#1f77b4;" x="289.131577" xlink:href="#mba407b1b4c" y="93.217987"/>
     <use style="fill:#1f77b4;stroke:#1f77b4;" x="290.268889" xlink:href="#mba407b1b4c" y="92.628397"/>
     <use style="fill:#1f77b4;stroke:#1f77b4;" x="290.977036" xlink:href="#mba407b1b4c" y="92.555808"/>
     <use style="fill:#1f77b4;stroke:#1f77b4;" x="291.306803" xlink:href="#mba407b1b4c" y="92.305992"/>
     <use style="fill:#1f77b4;stroke:#1f77b4;" x="291.897434" xlink:href="#mba407b1b4c" y="91.989627"/>
     <use style="fill:#1f77b4;stroke:#1f77b4;" x="293.877429" xlink:href="#mba407b1b4c" y="90.246677"/>
     <use style="fill:#1f77b4;stroke:#1f77b4;" x="296.103547" xlink:href="#mba407b1b4c" y="90.147433"/>
     <use style="fill:#1f77b4;stroke:#1f77b4;" x="297.693164" xlink:href="#mba407b1b4c" y="88.411886"/>
     <use style="fill:#1f77b4;stroke:#1f77b4;" x="300.26029" xlink:href="#mba407b1b4c" y="88.033703"/>
     <use style="fill:#1f77b4;stroke:#1f77b4;" x="300.92352" xlink:href="#mba407b1b4c" y="87.830674"/>
     <use style="fill:#1f77b4;stroke:#1f77b4;" x="301.26305" xlink:href="#mba407b1b4c" y="87.749311"/>
     <use style="fill:#1f77b4;stroke:#1f77b4;" x="302.070544" xlink:href="#mba407b1b4c" y="86.746592"/>
     <use style="fill:#1f77b4;stroke:#1f77b4;" x="303.819389" xlink:href="#mba407b1b4c" y="86.305035"/>
     <use style="fill:#1f77b4;stroke:#1f77b4;" x="304.605093" xlink:href="#mba407b1b4c" y="86.100638"/>
     <use style="fill:#1f77b4;stroke:#1f77b4;" x="305.730336" xlink:href="#mba407b1b4c" y="84.689279"/>
     <use style="fill:#1f77b4;stroke:#1f77b4;" x="308.712127" xlink:href="#mba407b1b4c" y="83.267909"/>
     <use style="fill:#1f77b4;stroke:#1f77b4;" x="311.203675" xlink:href="#mba407b1b4c" y="82.861615"/>
     <use style="fill:#1f77b4;stroke:#1f77b4;" x="311.953234" xlink:href="#mba407b1b4c" y="82.688466"/>
     <use style="fill:#1f77b4;stroke:#1f77b4;" x="312.313449" xlink:href="#mba407b1b4c" y="82.527026"/>
     <use style="fill:#1f77b4;stroke:#1f77b4;" x="312.636652" xlink:href="#mba407b1b4c" y="82.410593"/>
     <use style="fill:#1f77b4;stroke:#1f77b4;" x="313.178018" xlink:href="#mba407b1b4c" y="81.436945"/>
     <use style="fill:#1f77b4;stroke:#1f77b4;" x="317.059046" xlink:href="#mba407b1b4c" y="74.505011"/>
     <use style="fill:#1f77b4;stroke:#1f77b4;" x="331.408275" xlink:href="#mba407b1b4c" y="68.577295"/>
     <use style="fill:#1f77b4;stroke:#1f77b4;" x="342.738769" xlink:href="#mba407b1b4c" y="67.737237"/>
     <use style="fill:#1f77b4;stroke:#1f77b4;" x="344.744102" xlink:href="#mba407b1b4c" y="65.678025"/>
     <use style="fill:#1f77b4;stroke:#1f77b4;" x="349.083758" xlink:href="#mba407b1b4c" y="63.638504"/>
     <use style="fill:#1f77b4;stroke:#1f77b4;" x="354.182663" xlink:href="#mba407b1b4c" y="54.663834"/>
     <use style="fill:#1f77b4;stroke:#1f77b4;" x="372.449073" xlink:href="#mba407b1b4c" y="54.299274"/>
     <use style="fill:#1f77b4;stroke:#1f77b4;" x="373.581818" xlink:href="#mba407b1b4c" y="44.443636"/>
    </g>
   </g>
   <g id="patch_3">
    <path d="M 54 252 
L 54 34.56 
" style="fill:none;stroke:#000000;stroke-linecap:square;stroke-linejoin:miter;stroke-width:0.8;"/>
   </g>
   <g id="patch_4">
    <path d="M 388.8 252 
L 388.8 34.56 
" style="fill:none;stroke:#000000;stroke-linecap:square;stroke-linejoin:miter;stroke-width:0.8;"/>
   </g>
   <g id="patch_5">
    <path d="M 54 252 
L 388.8 252 
" style="fill:none;stroke:#000000;stroke-linecap:square;stroke-linejoin:miter;stroke-width:0.8;"/>
   </g>
   <g id="patch_6">
    <path d="M 54 34.56 
L 388.8 34.56 
" style="fill:none;stroke:#000000;stroke-linecap:square;stroke-linejoin:miter;stroke-width:0.8;"/>
   </g>
  </g>
 </g>
 <defs>
  <clipPath id="p5e933e59c1">
   <rect height="217.44" width="334.8" x="54" y="34.56"/>
  </clipPath>
 </defs>
</svg>
