<?xml version="1.0" encoding="utf-8" standalone="no"?>
<!DOCTYPE svg PUBLIC "-//W3C//DTD SVG 1.1//EN"
  "http://www.w3.org/Graphics/SVG/1.1/DTD/svg11.dtd">
<svg xmlns:xlink="http://www.w3.org/1999/xlink" width="432pt" height="288pt" viewBox="0 0 432 288" xmlns="http://www.w3.org/2000/svg" version="1.1">
 <metadata>
  <rdf:RDF xmlns:dc="http://purl.org/dc/elements/1.1/" xmlns:cc="http://creativecommons.org/ns#" xmlns:rdf="http://www.w3.org/1999/02/22-rdf-syntax-ns#">
   <cc:Work>
    <dc:type rdf:resource="http://purl.org/dc/dcmitype/StillImage"/>
    <dc:date>2022-07-18T22:43:24.697886</dc:date>
    <dc:format>image/svg+xml</dc:format>
    <dc:creator>
     <cc:Agent>
      <dc:title>Matplotlib v3.5.2, https://matplotlib.org/</dc:title>
     </cc:Agent>
    </dc:creator>
   </cc:Work>
  </rdf:RDF>
 </metadata>
 <defs>
  <style type="text/css">*{stroke-linejoin: round; stroke-linecap: butt}</style>
 </defs>
 <g id="figure_1">
  <g id="patch_1">
   <path d="M 0 288 
L 432 288 
L 432 0 
L 0 0 
L 0 288 
z
" style="fill: none"/>
  </g>
  <g id="axes_1">
   <g id="patch_2">
    <path d="M 54 252 
L 388.8 252 
L 388.8 34.56 
L 54 34.56 
z
" style="fill: #ffffff"/>
   </g>
   <g id="matplotlib.axis_1">
    <g id="xtick_1">
     <g id="line2d_1">
      <defs>
       <path id="mfd994997fd" d="M 0 0 
L 0 3.5 
" style="stroke: #000000; stroke-width: 0.8"/>
      </defs>
      <g>
       <use xlink:href="#mfd994997fd" x="101.074773" y="252" style="stroke: #000000; stroke-width: 0.8"/>
      </g>
     </g>
     <g id="text_1">
      <!-- 20 -->
      <g transform="translate(94.712273 266.598437)scale(0.1 -0.1)">
       <defs>
        <path id="DejaVuSans-32" d="M 1228 531 
L 3431 531 
L 3431 0 
L 469 0 
L 469 531 
Q 828 903 1448 1529 
Q 2069 2156 2228 2338 
Q 2531 2678 2651 2914 
Q 2772 3150 2772 3378 
Q 2772 3750 2511 3984 
Q 2250 4219 1831 4219 
Q 1534 4219 1204 4116 
Q 875 4013 500 3803 
L 500 4441 
Q 881 4594 1212 4672 
Q 1544 4750 1819 4750 
Q 2544 4750 2975 4387 
Q 3406 4025 3406 3419 
Q 3406 3131 3298 2873 
Q 3191 2616 2906 2266 
Q 2828 2175 2409 1742 
Q 1991 1309 1228 531 
z
" transform="scale(0.015625)"/>
        <path id="DejaVuSans-30" d="M 2034 4250 
Q 1547 4250 1301 3770 
Q 1056 3291 1056 2328 
Q 1056 1369 1301 889 
Q 1547 409 2034 409 
Q 2525 409 2770 889 
Q 3016 1369 3016 2328 
Q 3016 3291 2770 3770 
Q 2525 4250 2034 4250 
z
M 2034 4750 
Q 2819 4750 3233 4129 
Q 3647 3509 3647 2328 
Q 3647 1150 3233 529 
Q 2819 -91 2034 -91 
Q 1250 -91 836 529 
Q 422 1150 422 2328 
Q 422 3509 836 4129 
Q 1250 4750 2034 4750 
z
" transform="scale(0.015625)"/>
       </defs>
       <use xlink:href="#DejaVuSans-32"/>
       <use xlink:href="#DejaVuSans-30" x="63.623047"/>
      </g>
     </g>
    </g>
    <g id="xtick_2">
     <g id="line2d_2">
      <g>
       <use xlink:href="#mfd994997fd" x="155.197081" y="252" style="stroke: #000000; stroke-width: 0.8"/>
      </g>
     </g>
     <g id="text_2">
      <!-- 40 -->
      <g transform="translate(148.834581 266.598437)scale(0.1 -0.1)">
       <defs>
        <path id="DejaVuSans-34" d="M 2419 4116 
L 825 1625 
L 2419 1625 
L 2419 4116 
z
M 2253 4666 
L 3047 4666 
L 3047 1625 
L 3713 1625 
L 3713 1100 
L 3047 1100 
L 3047 0 
L 2419 0 
L 2419 1100 
L 313 1100 
L 313 1709 
L 2253 4666 
z
" transform="scale(0.015625)"/>
       </defs>
       <use xlink:href="#DejaVuSans-34"/>
       <use xlink:href="#DejaVuSans-30" x="63.623047"/>
      </g>
     </g>
    </g>
    <g id="xtick_3">
     <g id="line2d_3">
      <g>
       <use xlink:href="#mfd994997fd" x="209.319389" y="252" style="stroke: #000000; stroke-width: 0.8"/>
      </g>
     </g>
     <g id="text_3">
      <!-- 60 -->
      <g transform="translate(202.956889 266.598437)scale(0.1 -0.1)">
       <defs>
        <path id="DejaVuSans-36" d="M 2113 2584 
Q 1688 2584 1439 2293 
Q 1191 2003 1191 1497 
Q 1191 994 1439 701 
Q 1688 409 2113 409 
Q 2538 409 2786 701 
Q 3034 994 3034 1497 
Q 3034 2003 2786 2293 
Q 2538 2584 2113 2584 
z
M 3366 4563 
L 3366 3988 
Q 3128 4100 2886 4159 
Q 2644 4219 2406 4219 
Q 1781 4219 1451 3797 
Q 1122 3375 1075 2522 
Q 1259 2794 1537 2939 
Q 1816 3084 2150 3084 
Q 2853 3084 3261 2657 
Q 3669 2231 3669 1497 
Q 3669 778 3244 343 
Q 2819 -91 2113 -91 
Q 1303 -91 875 529 
Q 447 1150 447 2328 
Q 447 3434 972 4092 
Q 1497 4750 2381 4750 
Q 2619 4750 2861 4703 
Q 3103 4656 3366 4563 
z
" transform="scale(0.015625)"/>
       </defs>
       <use xlink:href="#DejaVuSans-36"/>
       <use xlink:href="#DejaVuSans-30" x="63.623047"/>
      </g>
     </g>
    </g>
    <g id="xtick_4">
     <g id="line2d_4">
      <g>
       <use xlink:href="#mfd994997fd" x="263.441698" y="252" style="stroke: #000000; stroke-width: 0.8"/>
      </g>
     </g>
     <g id="text_4">
      <!-- 80 -->
      <g transform="translate(257.079198 266.598437)scale(0.1 -0.1)">
       <defs>
        <path id="DejaVuSans-38" d="M 2034 2216 
Q 1584 2216 1326 1975 
Q 1069 1734 1069 1313 
Q 1069 891 1326 650 
Q 1584 409 2034 409 
Q 2484 409 2743 651 
Q 3003 894 3003 1313 
Q 3003 1734 2745 1975 
Q 2488 2216 2034 2216 
z
M 1403 2484 
Q 997 2584 770 2862 
Q 544 3141 544 3541 
Q 544 4100 942 4425 
Q 1341 4750 2034 4750 
Q 2731 4750 3128 4425 
Q 3525 4100 3525 3541 
Q 3525 3141 3298 2862 
Q 3072 2584 2669 2484 
Q 3125 2378 3379 2068 
Q 3634 1759 3634 1313 
Q 3634 634 3220 271 
Q 2806 -91 2034 -91 
Q 1263 -91 848 271 
Q 434 634 434 1313 
Q 434 1759 690 2068 
Q 947 2378 1403 2484 
z
M 1172 3481 
Q 1172 3119 1398 2916 
Q 1625 2713 2034 2713 
Q 2441 2713 2670 2916 
Q 2900 3119 2900 3481 
Q 2900 3844 2670 4047 
Q 2441 4250 2034 4250 
Q 1625 4250 1398 4047 
Q 1172 3844 1172 3481 
z
" transform="scale(0.015625)"/>
       </defs>
       <use xlink:href="#DejaVuSans-38"/>
       <use xlink:href="#DejaVuSans-30" x="63.623047"/>
      </g>
     </g>
    </g>
    <g id="xtick_5">
     <g id="line2d_5">
      <g>
       <use xlink:href="#mfd994997fd" x="317.564006" y="252" style="stroke: #000000; stroke-width: 0.8"/>
      </g>
     </g>
     <g id="text_5">
      <!-- 100 -->
      <g transform="translate(308.020256 266.598437)scale(0.1 -0.1)">
       <defs>
        <path id="DejaVuSans-31" d="M 794 531 
L 1825 531 
L 1825 4091 
L 703 3866 
L 703 4441 
L 1819 4666 
L 2450 4666 
L 2450 531 
L 3481 531 
L 3481 0 
L 794 0 
L 794 531 
z
" transform="scale(0.015625)"/>
       </defs>
       <use xlink:href="#DejaVuSans-31"/>
       <use xlink:href="#DejaVuSans-30" x="63.623047"/>
       <use xlink:href="#DejaVuSans-30" x="127.246094"/>
      </g>
     </g>
    </g>
    <g id="xtick_6">
     <g id="line2d_6">
      <g>
       <use xlink:href="#mfd994997fd" x="371.686314" y="252" style="stroke: #000000; stroke-width: 0.8"/>
      </g>
     </g>
     <g id="text_6">
      <!-- 120 -->
      <g transform="translate(362.142564 266.598437)scale(0.1 -0.1)">
       <use xlink:href="#DejaVuSans-31"/>
       <use xlink:href="#DejaVuSans-32" x="63.623047"/>
       <use xlink:href="#DejaVuSans-30" x="127.246094"/>
      </g>
     </g>
    </g>
    <g id="text_7">
     <!-- Ozono Estimado -->
     <g transform="translate(180.682031 280.276563)scale(0.1 -0.1)">
      <defs>
       <path id="DejaVuSans-4f" d="M 2522 4238 
Q 1834 4238 1429 3725 
Q 1025 3213 1025 2328 
Q 1025 1447 1429 934 
Q 1834 422 2522 422 
Q 3209 422 3611 934 
Q 4013 1447 4013 2328 
Q 4013 3213 3611 3725 
Q 3209 4238 2522 4238 
z
M 2522 4750 
Q 3503 4750 4090 4092 
Q 4678 3434 4678 2328 
Q 4678 1225 4090 567 
Q 3503 -91 2522 -91 
Q 1538 -91 948 565 
Q 359 1222 359 2328 
Q 359 3434 948 4092 
Q 1538 4750 2522 4750 
z
" transform="scale(0.015625)"/>
       <path id="DejaVuSans-7a" d="M 353 3500 
L 3084 3500 
L 3084 2975 
L 922 459 
L 3084 459 
L 3084 0 
L 275 0 
L 275 525 
L 2438 3041 
L 353 3041 
L 353 3500 
z
" transform="scale(0.015625)"/>
       <path id="DejaVuSans-6f" d="M 1959 3097 
Q 1497 3097 1228 2736 
Q 959 2375 959 1747 
Q 959 1119 1226 758 
Q 1494 397 1959 397 
Q 2419 397 2687 759 
Q 2956 1122 2956 1747 
Q 2956 2369 2687 2733 
Q 2419 3097 1959 3097 
z
M 1959 3584 
Q 2709 3584 3137 3096 
Q 3566 2609 3566 1747 
Q 3566 888 3137 398 
Q 2709 -91 1959 -91 
Q 1206 -91 779 398 
Q 353 888 353 1747 
Q 353 2609 779 3096 
Q 1206 3584 1959 3584 
z
" transform="scale(0.015625)"/>
       <path id="DejaVuSans-6e" d="M 3513 2113 
L 3513 0 
L 2938 0 
L 2938 2094 
Q 2938 2591 2744 2837 
Q 2550 3084 2163 3084 
Q 1697 3084 1428 2787 
Q 1159 2491 1159 1978 
L 1159 0 
L 581 0 
L 581 3500 
L 1159 3500 
L 1159 2956 
Q 1366 3272 1645 3428 
Q 1925 3584 2291 3584 
Q 2894 3584 3203 3211 
Q 3513 2838 3513 2113 
z
" transform="scale(0.015625)"/>
       <path id="DejaVuSans-20" transform="scale(0.015625)"/>
       <path id="DejaVuSans-45" d="M 628 4666 
L 3578 4666 
L 3578 4134 
L 1259 4134 
L 1259 2753 
L 3481 2753 
L 3481 2222 
L 1259 2222 
L 1259 531 
L 3634 531 
L 3634 0 
L 628 0 
L 628 4666 
z
" transform="scale(0.015625)"/>
       <path id="DejaVuSans-73" d="M 2834 3397 
L 2834 2853 
Q 2591 2978 2328 3040 
Q 2066 3103 1784 3103 
Q 1356 3103 1142 2972 
Q 928 2841 928 2578 
Q 928 2378 1081 2264 
Q 1234 2150 1697 2047 
L 1894 2003 
Q 2506 1872 2764 1633 
Q 3022 1394 3022 966 
Q 3022 478 2636 193 
Q 2250 -91 1575 -91 
Q 1294 -91 989 -36 
Q 684 19 347 128 
L 347 722 
Q 666 556 975 473 
Q 1284 391 1588 391 
Q 1994 391 2212 530 
Q 2431 669 2431 922 
Q 2431 1156 2273 1281 
Q 2116 1406 1581 1522 
L 1381 1569 
Q 847 1681 609 1914 
Q 372 2147 372 2553 
Q 372 3047 722 3315 
Q 1072 3584 1716 3584 
Q 2034 3584 2315 3537 
Q 2597 3491 2834 3397 
z
" transform="scale(0.015625)"/>
       <path id="DejaVuSans-74" d="M 1172 4494 
L 1172 3500 
L 2356 3500 
L 2356 3053 
L 1172 3053 
L 1172 1153 
Q 1172 725 1289 603 
Q 1406 481 1766 481 
L 2356 481 
L 2356 0 
L 1766 0 
Q 1100 0 847 248 
Q 594 497 594 1153 
L 594 3053 
L 172 3053 
L 172 3500 
L 594 3500 
L 594 4494 
L 1172 4494 
z
" transform="scale(0.015625)"/>
       <path id="DejaVuSans-69" d="M 603 3500 
L 1178 3500 
L 1178 0 
L 603 0 
L 603 3500 
z
M 603 4863 
L 1178 4863 
L 1178 4134 
L 603 4134 
L 603 4863 
z
" transform="scale(0.015625)"/>
       <path id="DejaVuSans-6d" d="M 3328 2828 
Q 3544 3216 3844 3400 
Q 4144 3584 4550 3584 
Q 5097 3584 5394 3201 
Q 5691 2819 5691 2113 
L 5691 0 
L 5113 0 
L 5113 2094 
Q 5113 2597 4934 2840 
Q 4756 3084 4391 3084 
Q 3944 3084 3684 2787 
Q 3425 2491 3425 1978 
L 3425 0 
L 2847 0 
L 2847 2094 
Q 2847 2600 2669 2842 
Q 2491 3084 2119 3084 
Q 1678 3084 1418 2786 
Q 1159 2488 1159 1978 
L 1159 0 
L 581 0 
L 581 3500 
L 1159 3500 
L 1159 2956 
Q 1356 3278 1631 3431 
Q 1906 3584 2284 3584 
Q 2666 3584 2933 3390 
Q 3200 3197 3328 2828 
z
" transform="scale(0.015625)"/>
       <path id="DejaVuSans-61" d="M 2194 1759 
Q 1497 1759 1228 1600 
Q 959 1441 959 1056 
Q 959 750 1161 570 
Q 1363 391 1709 391 
Q 2188 391 2477 730 
Q 2766 1069 2766 1631 
L 2766 1759 
L 2194 1759 
z
M 3341 1997 
L 3341 0 
L 2766 0 
L 2766 531 
Q 2569 213 2275 61 
Q 1981 -91 1556 -91 
Q 1019 -91 701 211 
Q 384 513 384 1019 
Q 384 1609 779 1909 
Q 1175 2209 1959 2209 
L 2766 2209 
L 2766 2266 
Q 2766 2663 2505 2880 
Q 2244 3097 1772 3097 
Q 1472 3097 1187 3025 
Q 903 2953 641 2809 
L 641 3341 
Q 956 3463 1253 3523 
Q 1550 3584 1831 3584 
Q 2591 3584 2966 3190 
Q 3341 2797 3341 1997 
z
" transform="scale(0.015625)"/>
       <path id="DejaVuSans-64" d="M 2906 2969 
L 2906 4863 
L 3481 4863 
L 3481 0 
L 2906 0 
L 2906 525 
Q 2725 213 2448 61 
Q 2172 -91 1784 -91 
Q 1150 -91 751 415 
Q 353 922 353 1747 
Q 353 2572 751 3078 
Q 1150 3584 1784 3584 
Q 2172 3584 2448 3432 
Q 2725 3281 2906 2969 
z
M 947 1747 
Q 947 1113 1208 752 
Q 1469 391 1925 391 
Q 2381 391 2643 752 
Q 2906 1113 2906 1747 
Q 2906 2381 2643 2742 
Q 2381 3103 1925 3103 
Q 1469 3103 1208 2742 
Q 947 2381 947 1747 
z
" transform="scale(0.015625)"/>
      </defs>
      <use xlink:href="#DejaVuSans-4f"/>
      <use xlink:href="#DejaVuSans-7a" x="78.710938"/>
      <use xlink:href="#DejaVuSans-6f" x="131.201172"/>
      <use xlink:href="#DejaVuSans-6e" x="192.382812"/>
      <use xlink:href="#DejaVuSans-6f" x="255.761719"/>
      <use xlink:href="#DejaVuSans-20" x="316.943359"/>
      <use xlink:href="#DejaVuSans-45" x="348.730469"/>
      <use xlink:href="#DejaVuSans-73" x="411.914062"/>
      <use xlink:href="#DejaVuSans-74" x="464.013672"/>
      <use xlink:href="#DejaVuSans-69" x="503.222656"/>
      <use xlink:href="#DejaVuSans-6d" x="531.005859"/>
      <use xlink:href="#DejaVuSans-61" x="628.417969"/>
      <use xlink:href="#DejaVuSans-64" x="689.697266"/>
      <use xlink:href="#DejaVuSans-6f" x="753.173828"/>
     </g>
    </g>
   </g>
   <g id="matplotlib.axis_2">
    <g id="ytick_1">
     <g id="line2d_7">
      <defs>
       <path id="m22b3c7d7b7" d="M 0 0 
L -3.5 0 
" style="stroke: #000000; stroke-width: 0.8"/>
      </defs>
      <g>
       <use xlink:href="#m22b3c7d7b7" x="54" y="243.073516" style="stroke: #000000; stroke-width: 0.8"/>
      </g>
     </g>
     <g id="text_8">
      <!-- 0 -->
      <g transform="translate(40.6375 246.872735)scale(0.1 -0.1)">
       <use xlink:href="#DejaVuSans-30"/>
      </g>
     </g>
    </g>
    <g id="ytick_2">
     <g id="line2d_8">
      <g>
       <use xlink:href="#m22b3c7d7b7" x="54" y="201.079483" style="stroke: #000000; stroke-width: 0.8"/>
      </g>
     </g>
     <g id="text_9">
      <!-- 10 -->
      <g transform="translate(34.275 204.878701)scale(0.1 -0.1)">
       <use xlink:href="#DejaVuSans-31"/>
       <use xlink:href="#DejaVuSans-30" x="63.623047"/>
      </g>
     </g>
    </g>
    <g id="ytick_3">
     <g id="line2d_9">
      <g>
       <use xlink:href="#m22b3c7d7b7" x="54" y="159.085449" style="stroke: #000000; stroke-width: 0.8"/>
      </g>
     </g>
     <g id="text_10">
      <!-- 20 -->
      <g transform="translate(34.275 162.884668)scale(0.1 -0.1)">
       <use xlink:href="#DejaVuSans-32"/>
       <use xlink:href="#DejaVuSans-30" x="63.623047"/>
      </g>
     </g>
    </g>
    <g id="ytick_4">
     <g id="line2d_10">
      <g>
       <use xlink:href="#m22b3c7d7b7" x="54" y="117.091416" style="stroke: #000000; stroke-width: 0.8"/>
      </g>
     </g>
     <g id="text_11">
      <!-- 30 -->
      <g transform="translate(34.275 120.890634)scale(0.1 -0.1)">
       <defs>
        <path id="DejaVuSans-33" d="M 2597 2516 
Q 3050 2419 3304 2112 
Q 3559 1806 3559 1356 
Q 3559 666 3084 287 
Q 2609 -91 1734 -91 
Q 1441 -91 1130 -33 
Q 819 25 488 141 
L 488 750 
Q 750 597 1062 519 
Q 1375 441 1716 441 
Q 2309 441 2620 675 
Q 2931 909 2931 1356 
Q 2931 1769 2642 2001 
Q 2353 2234 1838 2234 
L 1294 2234 
L 1294 2753 
L 1863 2753 
Q 2328 2753 2575 2939 
Q 2822 3125 2822 3475 
Q 2822 3834 2567 4026 
Q 2313 4219 1838 4219 
Q 1578 4219 1281 4162 
Q 984 4106 628 3988 
L 628 4550 
Q 988 4650 1302 4700 
Q 1616 4750 1894 4750 
Q 2613 4750 3031 4423 
Q 3450 4097 3450 3541 
Q 3450 3153 3228 2886 
Q 3006 2619 2597 2516 
z
" transform="scale(0.015625)"/>
       </defs>
       <use xlink:href="#DejaVuSans-33"/>
       <use xlink:href="#DejaVuSans-30" x="63.623047"/>
      </g>
     </g>
    </g>
    <g id="ytick_5">
     <g id="line2d_11">
      <g>
       <use xlink:href="#m22b3c7d7b7" x="54" y="75.097382" style="stroke: #000000; stroke-width: 0.8"/>
      </g>
     </g>
     <g id="text_12">
      <!-- 40 -->
      <g transform="translate(34.275 78.896601)scale(0.1 -0.1)">
       <use xlink:href="#DejaVuSans-34"/>
       <use xlink:href="#DejaVuSans-30" x="63.623047"/>
      </g>
     </g>
    </g>
    <g id="text_13">
     <!-- Residuales Absolutos -->
     <g transform="translate(28.195312 196.106562)rotate(-90)scale(0.1 -0.1)">
      <defs>
       <path id="DejaVuSans-52" d="M 2841 2188 
Q 3044 2119 3236 1894 
Q 3428 1669 3622 1275 
L 4263 0 
L 3584 0 
L 2988 1197 
Q 2756 1666 2539 1819 
Q 2322 1972 1947 1972 
L 1259 1972 
L 1259 0 
L 628 0 
L 628 4666 
L 2053 4666 
Q 2853 4666 3247 4331 
Q 3641 3997 3641 3322 
Q 3641 2881 3436 2590 
Q 3231 2300 2841 2188 
z
M 1259 4147 
L 1259 2491 
L 2053 2491 
Q 2509 2491 2742 2702 
Q 2975 2913 2975 3322 
Q 2975 3731 2742 3939 
Q 2509 4147 2053 4147 
L 1259 4147 
z
" transform="scale(0.015625)"/>
       <path id="DejaVuSans-65" d="M 3597 1894 
L 3597 1613 
L 953 1613 
Q 991 1019 1311 708 
Q 1631 397 2203 397 
Q 2534 397 2845 478 
Q 3156 559 3463 722 
L 3463 178 
Q 3153 47 2828 -22 
Q 2503 -91 2169 -91 
Q 1331 -91 842 396 
Q 353 884 353 1716 
Q 353 2575 817 3079 
Q 1281 3584 2069 3584 
Q 2775 3584 3186 3129 
Q 3597 2675 3597 1894 
z
M 3022 2063 
Q 3016 2534 2758 2815 
Q 2500 3097 2075 3097 
Q 1594 3097 1305 2825 
Q 1016 2553 972 2059 
L 3022 2063 
z
" transform="scale(0.015625)"/>
       <path id="DejaVuSans-75" d="M 544 1381 
L 544 3500 
L 1119 3500 
L 1119 1403 
Q 1119 906 1312 657 
Q 1506 409 1894 409 
Q 2359 409 2629 706 
Q 2900 1003 2900 1516 
L 2900 3500 
L 3475 3500 
L 3475 0 
L 2900 0 
L 2900 538 
Q 2691 219 2414 64 
Q 2138 -91 1772 -91 
Q 1169 -91 856 284 
Q 544 659 544 1381 
z
M 1991 3584 
L 1991 3584 
z
" transform="scale(0.015625)"/>
       <path id="DejaVuSans-6c" d="M 603 4863 
L 1178 4863 
L 1178 0 
L 603 0 
L 603 4863 
z
" transform="scale(0.015625)"/>
       <path id="DejaVuSans-41" d="M 2188 4044 
L 1331 1722 
L 3047 1722 
L 2188 4044 
z
M 1831 4666 
L 2547 4666 
L 4325 0 
L 3669 0 
L 3244 1197 
L 1141 1197 
L 716 0 
L 50 0 
L 1831 4666 
z
" transform="scale(0.015625)"/>
       <path id="DejaVuSans-62" d="M 3116 1747 
Q 3116 2381 2855 2742 
Q 2594 3103 2138 3103 
Q 1681 3103 1420 2742 
Q 1159 2381 1159 1747 
Q 1159 1113 1420 752 
Q 1681 391 2138 391 
Q 2594 391 2855 752 
Q 3116 1113 3116 1747 
z
M 1159 2969 
Q 1341 3281 1617 3432 
Q 1894 3584 2278 3584 
Q 2916 3584 3314 3078 
Q 3713 2572 3713 1747 
Q 3713 922 3314 415 
Q 2916 -91 2278 -91 
Q 1894 -91 1617 61 
Q 1341 213 1159 525 
L 1159 0 
L 581 0 
L 581 4863 
L 1159 4863 
L 1159 2969 
z
" transform="scale(0.015625)"/>
      </defs>
      <use xlink:href="#DejaVuSans-52"/>
      <use xlink:href="#DejaVuSans-65" x="64.982422"/>
      <use xlink:href="#DejaVuSans-73" x="126.505859"/>
      <use xlink:href="#DejaVuSans-69" x="178.605469"/>
      <use xlink:href="#DejaVuSans-64" x="206.388672"/>
      <use xlink:href="#DejaVuSans-75" x="269.865234"/>
      <use xlink:href="#DejaVuSans-61" x="333.244141"/>
      <use xlink:href="#DejaVuSans-6c" x="394.523438"/>
      <use xlink:href="#DejaVuSans-65" x="422.306641"/>
      <use xlink:href="#DejaVuSans-73" x="483.830078"/>
      <use xlink:href="#DejaVuSans-20" x="535.929688"/>
      <use xlink:href="#DejaVuSans-41" x="567.716797"/>
      <use xlink:href="#DejaVuSans-62" x="636.125"/>
      <use xlink:href="#DejaVuSans-73" x="699.601562"/>
      <use xlink:href="#DejaVuSans-6f" x="751.701172"/>
      <use xlink:href="#DejaVuSans-6c" x="812.882812"/>
      <use xlink:href="#DejaVuSans-75" x="840.666016"/>
      <use xlink:href="#DejaVuSans-74" x="904.044922"/>
      <use xlink:href="#DejaVuSans-6f" x="943.253906"/>
      <use xlink:href="#DejaVuSans-73" x="1004.435547"/>
     </g>
    </g>
   </g>
   <g id="line2d_12">
    <defs>
     <path id="meca951979f" d="M 0 3 
C 0.795609 3 1.55874 2.683901 2.12132 2.12132 
C 2.683901 1.55874 3 0.795609 3 0 
C 3 -0.795609 2.683901 -1.55874 2.12132 -2.12132 
C 1.55874 -2.683901 0.795609 -3 0 -3 
C -0.795609 -3 -1.55874 -2.683901 -2.12132 -2.12132 
C -2.683901 -1.55874 -3 -0.795609 -3 0 
C -3 0.795609 -2.683901 1.55874 -2.12132 2.12132 
C -1.55874 2.683901 -0.795609 3 0 3 
z
" style="stroke: #1f77b4"/>
    </defs>
    <g clip-path="url(#p559b49493c)">
     <use xlink:href="#meca951979f" x="130.554637" y="200.633481" style="fill: #1f77b4; stroke: #1f77b4"/>
     <use xlink:href="#meca951979f" x="122.256306" y="208.752984" style="fill: #1f77b4; stroke: #1f77b4"/>
     <use xlink:href="#meca951979f" x="88.779227" y="228.558761" style="fill: #1f77b4; stroke: #1f77b4"/>
     <use xlink:href="#meca951979f" x="91.801404" y="237.081726" style="fill: #1f77b4; stroke: #1f77b4"/>
     <use xlink:href="#meca951979f" x="111.5938" y="239.348093" style="fill: #1f77b4; stroke: #1f77b4"/>
     <use xlink:href="#meca951979f" x="91.327124" y="232.146325" style="fill: #1f77b4; stroke: #1f77b4"/>
     <use xlink:href="#meca951979f" x="69.218182" y="242.116364" style="fill: #1f77b4; stroke: #1f77b4"/>
     <use xlink:href="#meca951979f" x="113.380624" y="207.17944" style="fill: #1f77b4; stroke: #1f77b4"/>
     <use xlink:href="#meca951979f" x="110.314519" y="190.940466" style="fill: #1f77b4; stroke: #1f77b4"/>
     <use xlink:href="#meca951979f" x="104.196472" y="213.032782" style="fill: #1f77b4; stroke: #1f77b4"/>
     <use xlink:href="#meca951979f" x="86.454658" y="228.78454" style="fill: #1f77b4; stroke: #1f77b4"/>
     <use xlink:href="#meca951979f" x="99.619799" y="220.134953" style="fill: #1f77b4; stroke: #1f77b4"/>
     <use xlink:href="#meca951979f" x="97.756785" y="179.132949" style="fill: #1f77b4; stroke: #1f77b4"/>
     <use xlink:href="#meca951979f" x="80.521316" y="216.17713" style="fill: #1f77b4; stroke: #1f77b4"/>
     <use xlink:href="#meca951979f" x="107.648194" y="211.280248" style="fill: #1f77b4; stroke: #1f77b4"/>
     <use xlink:href="#meca951979f" x="88.462142" y="224.851417" style="fill: #1f77b4; stroke: #1f77b4"/>
     <use xlink:href="#meca951979f" x="75.942194" y="202.286086" style="fill: #1f77b4; stroke: #1f77b4"/>
     <use xlink:href="#meca951979f" x="118.360632" y="178.454348" style="fill: #1f77b4; stroke: #1f77b4"/>
     <use xlink:href="#meca951979f" x="82.680336" y="204.427913" style="fill: #1f77b4; stroke: #1f77b4"/>
     <use xlink:href="#meca951979f" x="94.802951" y="182.947938" style="fill: #1f77b4; stroke: #1f77b4"/>
     <use xlink:href="#meca951979f" x="78.698477" y="195.751328" style="fill: #1f77b4; stroke: #1f77b4"/>
     <use xlink:href="#meca951979f" x="146.600118" y="208.735562" style="fill: #1f77b4; stroke: #1f77b4"/>
     <use xlink:href="#meca951979f" x="255.69868" y="84.078632" style="fill: #1f77b4; stroke: #1f77b4"/>
     <use xlink:href="#meca951979f" x="179.604844" y="192.598858" style="fill: #1f77b4; stroke: #1f77b4"/>
     <use xlink:href="#meca951979f" x="148.690798" y="206.976659" style="fill: #1f77b4; stroke: #1f77b4"/>
     <use xlink:href="#meca951979f" x="224.714134" y="220.769947" style="fill: #1f77b4; stroke: #1f77b4"/>
     <use xlink:href="#meca951979f" x="183.785888" y="194.509438" style="fill: #1f77b4; stroke: #1f77b4"/>
     <use xlink:href="#meca951979f" x="167.483137" y="152.617916" style="fill: #1f77b4; stroke: #1f77b4"/>
     <use xlink:href="#meca951979f" x="107.531029" y="237.253975" style="fill: #1f77b4; stroke: #1f77b4"/>
     <use xlink:href="#meca951979f" x="116.169102" y="195.107336" style="fill: #1f77b4; stroke: #1f77b4"/>
     <use xlink:href="#meca951979f" x="91.277052" y="227.869219" style="fill: #1f77b4; stroke: #1f77b4"/>
     <use xlink:href="#meca951979f" x="92.668397" y="222.52347" style="fill: #1f77b4; stroke: #1f77b4"/>
     <use xlink:href="#meca951979f" x="112.127542" y="196.525787" style="fill: #1f77b4; stroke: #1f77b4"/>
     <use xlink:href="#meca951979f" x="351.312771" y="148.4664" style="fill: #1f77b4; stroke: #1f77b4"/>
     <use xlink:href="#meca951979f" x="213.299452" y="190.703739" style="fill: #1f77b4; stroke: #1f77b4"/>
     <use xlink:href="#meca951979f" x="172.73478" y="182.262942" style="fill: #1f77b4; stroke: #1f77b4"/>
     <use xlink:href="#meca951979f" x="259.2808" y="182.340025" style="fill: #1f77b4; stroke: #1f77b4"/>
     <use xlink:href="#meca951979f" x="148.124998" y="232.098918" style="fill: #1f77b4; stroke: #1f77b4"/>
     <use xlink:href="#meca951979f" x="311.816645" y="155.406107" style="fill: #1f77b4; stroke: #1f77b4"/>
     <use xlink:href="#meca951979f" x="287.724364" y="209.365981" style="fill: #1f77b4; stroke: #1f77b4"/>
     <use xlink:href="#meca951979f" x="297.830866" y="225.04945" style="fill: #1f77b4; stroke: #1f77b4"/>
     <use xlink:href="#meca951979f" x="247.731668" y="197.697365" style="fill: #1f77b4; stroke: #1f77b4"/>
     <use xlink:href="#meca951979f" x="105.394771" y="194.375624" style="fill: #1f77b4; stroke: #1f77b4"/>
     <use xlink:href="#meca951979f" x="133.244858" y="222.547166" style="fill: #1f77b4; stroke: #1f77b4"/>
     <use xlink:href="#meca951979f" x="96.982214" y="194.832187" style="fill: #1f77b4; stroke: #1f77b4"/>
     <use xlink:href="#meca951979f" x="224.854291" y="168.573309" style="fill: #1f77b4; stroke: #1f77b4"/>
     <use xlink:href="#meca951979f" x="159.821097" y="214.900861" style="fill: #1f77b4; stroke: #1f77b4"/>
     <use xlink:href="#meca951979f" x="255.697118" y="175.303044" style="fill: #1f77b4; stroke: #1f77b4"/>
     <use xlink:href="#meca951979f" x="268.475696" y="231.062255" style="fill: #1f77b4; stroke: #1f77b4"/>
     <use xlink:href="#meca951979f" x="203.082744" y="220.797157" style="fill: #1f77b4; stroke: #1f77b4"/>
     <use xlink:href="#meca951979f" x="117.232551" y="201.201944" style="fill: #1f77b4; stroke: #1f77b4"/>
     <use xlink:href="#meca951979f" x="211.947675" y="163.164075" style="fill: #1f77b4; stroke: #1f77b4"/>
     <use xlink:href="#meca951979f" x="232.764086" y="77.884099" style="fill: #1f77b4; stroke: #1f77b4"/>
     <use xlink:href="#meca951979f" x="142.07128" y="179.454328" style="fill: #1f77b4; stroke: #1f77b4"/>
     <use xlink:href="#meca951979f" x="150.564343" y="185.491501" style="fill: #1f77b4; stroke: #1f77b4"/>
     <use xlink:href="#meca951979f" x="259.465297" y="228.504052" style="fill: #1f77b4; stroke: #1f77b4"/>
     <use xlink:href="#meca951979f" x="240.66957" y="152.429653" style="fill: #1f77b4; stroke: #1f77b4"/>
     <use xlink:href="#meca951979f" x="225.647571" y="234.532735" style="fill: #1f77b4; stroke: #1f77b4"/>
     <use xlink:href="#meca951979f" x="167.29372" y="182.056655" style="fill: #1f77b4; stroke: #1f77b4"/>
     <use xlink:href="#meca951979f" x="150.332934" y="239.72464" style="fill: #1f77b4; stroke: #1f77b4"/>
     <use xlink:href="#meca951979f" x="97.790064" y="201.977356" style="fill: #1f77b4; stroke: #1f77b4"/>
     <use xlink:href="#meca951979f" x="150.151607" y="150.117503" style="fill: #1f77b4; stroke: #1f77b4"/>
     <use xlink:href="#meca951979f" x="337.009311" y="180.862251" style="fill: #1f77b4; stroke: #1f77b4"/>
     <use xlink:href="#meca951979f" x="246.771599" y="179.409898" style="fill: #1f77b4; stroke: #1f77b4"/>
     <use xlink:href="#meca951979f" x="267.224509" y="122.961657" style="fill: #1f77b4; stroke: #1f77b4"/>
     <use xlink:href="#meca951979f" x="208.344559" y="177.395824" style="fill: #1f77b4; stroke: #1f77b4"/>
     <use xlink:href="#meca951979f" x="156.041606" y="191.370127" style="fill: #1f77b4; stroke: #1f77b4"/>
     <use xlink:href="#meca951979f" x="139.962748" y="114.447493" style="fill: #1f77b4; stroke: #1f77b4"/>
     <use xlink:href="#meca951979f" x="107.253123" y="241.884638" style="fill: #1f77b4; stroke: #1f77b4"/>
     <use xlink:href="#meca951979f" x="141.560429" y="142.123226" style="fill: #1f77b4; stroke: #1f77b4"/>
     <use xlink:href="#meca951979f" x="135.348595" y="202.484932" style="fill: #1f77b4; stroke: #1f77b4"/>
     <use xlink:href="#meca951979f" x="132.429062" y="240.610748" style="fill: #1f77b4; stroke: #1f77b4"/>
     <use xlink:href="#meca951979f" x="131.348923" y="189.26786" style="fill: #1f77b4; stroke: #1f77b4"/>
     <use xlink:href="#meca951979f" x="119.849837" y="218.137404" style="fill: #1f77b4; stroke: #1f77b4"/>
     <use xlink:href="#meca951979f" x="83.19726" y="224.622757" style="fill: #1f77b4; stroke: #1f77b4"/>
     <use xlink:href="#meca951979f" x="149.370396" y="213.034534" style="fill: #1f77b4; stroke: #1f77b4"/>
     <use xlink:href="#meca951979f" x="373.581818" y="44.443636" style="fill: #1f77b4; stroke: #1f77b4"/>
     <use xlink:href="#meca951979f" x="241.628116" y="238.618593" style="fill: #1f77b4; stroke: #1f77b4"/>
     <use xlink:href="#meca951979f" x="275.497607" y="207.567304" style="fill: #1f77b4; stroke: #1f77b4"/>
     <use xlink:href="#meca951979f" x="352.755812" y="222.095597" style="fill: #1f77b4; stroke: #1f77b4"/>
     <use xlink:href="#meca951979f" x="300.815309" y="201.874022" style="fill: #1f77b4; stroke: #1f77b4"/>
     <use xlink:href="#meca951979f" x="283.41771" y="233.071362" style="fill: #1f77b4; stroke: #1f77b4"/>
     <use xlink:href="#meca951979f" x="254.024752" y="161.26966" style="fill: #1f77b4; stroke: #1f77b4"/>
     <use xlink:href="#meca951979f" x="290.818455" y="192.190916" style="fill: #1f77b4; stroke: #1f77b4"/>
     <use xlink:href="#meca951979f" x="304.002231" y="150.735056" style="fill: #1f77b4; stroke: #1f77b4"/>
     <use xlink:href="#meca951979f" x="290.126954" y="238.290787" style="fill: #1f77b4; stroke: #1f77b4"/>
     <use xlink:href="#meca951979f" x="194.967015" y="210.753571" style="fill: #1f77b4; stroke: #1f77b4"/>
     <use xlink:href="#meca951979f" x="123.864336" y="228.045969" style="fill: #1f77b4; stroke: #1f77b4"/>
     <use xlink:href="#meca951979f" x="143.564853" y="177.136571" style="fill: #1f77b4; stroke: #1f77b4"/>
     <use xlink:href="#meca951979f" x="137.584618" y="199.015027" style="fill: #1f77b4; stroke: #1f77b4"/>
     <use xlink:href="#meca951979f" x="119.452277" y="218.754347" style="fill: #1f77b4; stroke: #1f77b4"/>
     <use xlink:href="#meca951979f" x="120.867207" y="229.156839" style="fill: #1f77b4; stroke: #1f77b4"/>
     <use xlink:href="#meca951979f" x="145.618903" y="211.412296" style="fill: #1f77b4; stroke: #1f77b4"/>
     <use xlink:href="#meca951979f" x="115.560323" y="224.793958" style="fill: #1f77b4; stroke: #1f77b4"/>
     <use xlink:href="#meca951979f" x="225.656677" y="83.340084" style="fill: #1f77b4; stroke: #1f77b4"/>
     <use xlink:href="#meca951979f" x="87.229437" y="218.365545" style="fill: #1f77b4; stroke: #1f77b4"/>
     <use xlink:href="#meca951979f" x="94.244831" y="224.276533" style="fill: #1f77b4; stroke: #1f77b4"/>
     <use xlink:href="#meca951979f" x="209.31269" y="184.292266" style="fill: #1f77b4; stroke: #1f77b4"/>
     <use xlink:href="#meca951979f" x="84.738915" y="226.122015" style="fill: #1f77b4; stroke: #1f77b4"/>
     <use xlink:href="#meca951979f" x="100.522014" y="214.535475" style="fill: #1f77b4; stroke: #1f77b4"/>
     <use xlink:href="#meca951979f" x="107.598295" y="236.399232" style="fill: #1f77b4; stroke: #1f77b4"/>
     <use xlink:href="#meca951979f" x="198.724196" y="74.7416" style="fill: #1f77b4; stroke: #1f77b4"/>
     <use xlink:href="#meca951979f" x="90.258071" y="230.463264" style="fill: #1f77b4; stroke: #1f77b4"/>
     <use xlink:href="#meca951979f" x="93.84408" y="219.254574" style="fill: #1f77b4; stroke: #1f77b4"/>
     <use xlink:href="#meca951979f" x="141.495911" y="238.609382" style="fill: #1f77b4; stroke: #1f77b4"/>
     <use xlink:href="#meca951979f" x="92.400318" y="201.942464" style="fill: #1f77b4; stroke: #1f77b4"/>
     <use xlink:href="#meca951979f" x="73.901329" y="226.101648" style="fill: #1f77b4; stroke: #1f77b4"/>
     <use xlink:href="#meca951979f" x="152.315762" y="205.550772" style="fill: #1f77b4; stroke: #1f77b4"/>
     <use xlink:href="#meca951979f" x="98.929776" y="221.205746" style="fill: #1f77b4; stroke: #1f77b4"/>
     <use xlink:href="#meca951979f" x="130.582087" y="188.884677" style="fill: #1f77b4; stroke: #1f77b4"/>
     <use xlink:href="#meca951979f" x="99.139827" y="240.070828" style="fill: #1f77b4; stroke: #1f77b4"/>
    </g>
   </g>
   <g id="line2d_13">
    <path d="M 69.218182 225.626207 
L 73.901329 224.068953 
L 75.942194 223.383483 
L 78.698477 222.449949 
L 80.521316 221.827424 
L 82.680336 221.084925 
L 83.19726 220.906358 
L 84.738915 220.372101 
L 86.454658 219.774731 
L 87.229437 219.504092 
L 88.462142 219.072437 
L 88.779227 218.961204 
L 90.258071 218.441402 
L 91.277052 218.082293 
L 91.327124 218.064627 
L 91.801404 217.897208 
L 92.400318 217.68556 
L 92.668397 217.590737 
L 93.84408 217.174232 
L 94.244831 217.032011 
L 94.802951 216.833725 
L 96.982214 216.057008 
L 97.756785 215.779994 
L 97.790064 215.768081 
L 98.929776 215.359596 
L 99.139827 215.284211 
L 99.619799 215.111846 
L 100.522014 214.787467 
L 104.196472 213.462309 
L 105.394771 213.02921 
L 107.253123 212.357259 
L 107.531029 212.256786 
L 107.598295 212.232468 
L 107.648194 212.214429 
L 110.314519 211.251121 
L 111.5938 210.789358 
L 112.127542 210.596786 
L 113.380624 210.144842 
L 115.560323 209.358947 
L 116.169102 209.139403 
L 117.232551 208.755666 
L 118.360632 208.348054 
L 119.452277 207.952745 
L 119.849837 207.808504 
L 120.867207 207.43852 
L 122.256306 206.930565 
L 123.864336 206.336241 
L 130.554637 203.598762 
L 130.582087 203.586745 
L 131.348923 203.25158 
L 132.429062 202.782297 
L 133.244858 202.430723 
L 135.348595 201.540575 
L 137.584618 200.600397 
L 139.962748 199.607065 
L 141.495911 198.955994 
L 141.560429 198.927624 
L 142.07128 198.7054 
L 143.564853 198.039117 
L 145.618903 197.098529 
L 146.600118 196.637987 
L 148.124998 195.920608 
L 148.690798 195.654967 
L 149.370396 195.336721 
L 150.151607 194.971024 
L 150.332934 194.887244 
L 150.564343 194.78109 
L 152.315762 194.012455 
L 156.041606 192.544442 
L 159.821097 191.133444 
L 167.29372 188.862342 
L 167.483137 188.795005 
L 172.73478 186.889325 
L 179.604844 184.634354 
L 183.785888 183.52816 
L 194.967015 181.42001 
L 198.724196 180.519293 
L 203.082744 180.093489 
L 208.344559 180.354371 
L 209.31269 180.467765 
L 211.947675 180.807389 
L 213.299452 180.9948 
L 224.714134 181.908751 
L 224.854291 181.921476 
L 225.647571 181.991576 
L 225.656677 181.992362 
L 232.764086 182.317275 
L 240.66957 182.740366 
L 241.628116 182.782608 
L 246.771599 182.908442 
L 247.731668 182.928663 
L 254.024752 182.806889 
L 255.697118 182.699775 
L 255.69868 182.699662 
L 259.2808 182.380447 
L 259.465297 182.361097 
L 267.224509 181.362064 
L 268.475696 181.176259 
L 275.497607 180.070755 
L 283.41771 178.779222 
L 287.724364 178.084907 
L 290.126954 177.703493 
L 290.818455 177.594629 
L 297.830866 176.514786 
L 300.815309 176.068274 
L 304.002231 175.59917 
L 311.816645 174.475409 
L 337.009311 170.93029 
L 351.312771 168.81479 
L 352.755812 168.591958 
L 373.581818 165.084852 
" clip-path="url(#p559b49493c)" style="fill: none; stroke: #ff7f0e; stroke-width: 1.5; stroke-linecap: square"/>
   </g>
   <g id="patch_3">
    <path d="M 54 252 
L 54 34.56 
" style="fill: none; stroke: #000000; stroke-width: 0.8; stroke-linejoin: miter; stroke-linecap: square"/>
   </g>
   <g id="patch_4">
    <path d="M 388.8 252 
L 388.8 34.56 
" style="fill: none; stroke: #000000; stroke-width: 0.8; stroke-linejoin: miter; stroke-linecap: square"/>
   </g>
   <g id="patch_5">
    <path d="M 54 252 
L 388.8 252 
" style="fill: none; stroke: #000000; stroke-width: 0.8; stroke-linejoin: miter; stroke-linecap: square"/>
   </g>
   <g id="patch_6">
    <path d="M 54 34.56 
L 388.8 34.56 
" style="fill: none; stroke: #000000; stroke-width: 0.8; stroke-linejoin: miter; stroke-linecap: square"/>
   </g>
  </g>
 </g>
 <defs>
  <clipPath id="p559b49493c">
   <rect x="54" y="34.56" width="334.8" height="217.44"/>
  </clipPath>
 </defs>
</svg>
