<?xml version="1.0" encoding="utf-8" standalone="no"?>
<!DOCTYPE svg PUBLIC "-//W3C//DTD SVG 1.1//EN"
  "http://www.w3.org/Graphics/SVG/1.1/DTD/svg11.dtd">
<svg xmlns:xlink="http://www.w3.org/1999/xlink" width="432pt" height="288pt" viewBox="0 0 432 288" xmlns="http://www.w3.org/2000/svg" version="1.1">
 <metadata>
  <rdf:RDF xmlns:dc="http://purl.org/dc/elements/1.1/" xmlns:cc="http://creativecommons.org/ns#" xmlns:rdf="http://www.w3.org/1999/02/22-rdf-syntax-ns#">
   <cc:Work>
    <dc:type rdf:resource="http://purl.org/dc/dcmitype/StillImage"/>
    <dc:date>2022-06-15T19:05:16.129413</dc:date>
    <dc:format>image/svg+xml</dc:format>
    <dc:creator>
     <cc:Agent>
      <dc:title>Matplotlib v3.5.2, https://matplotlib.org/</dc:title>
     </cc:Agent>
    </dc:creator>
   </cc:Work>
  </rdf:RDF>
 </metadata>
 <defs>
  <style type="text/css">*{stroke-linejoin: round; stroke-linecap: butt}</style>
 </defs>
 <g id="figure_1">
  <g id="patch_1">
   <path d="M 0 288 
L 432 288 
L 432 0 
L 0 0 
L 0 288 
z
" style="fill: none"/>
  </g>
  <g id="axes_1">
   <g id="patch_2">
    <path d="M 54 252 
L 388.8 252 
L 388.8 34.56 
L 54 34.56 
z
" style="fill: #ffffff"/>
   </g>
   <g id="PathCollection_1">
    <defs>
     <path id="m77ec2de41f" d="M 0 3 
C 0.795609 3 1.55874 2.683901 2.12132 2.12132 
C 2.683901 1.55874 3 0.795609 3 0 
C 3 -0.795609 2.683901 -1.55874 2.12132 -2.12132 
C 1.55874 -2.683901 0.795609 -3 0 -3 
C -0.795609 -3 -1.55874 -2.683901 -2.12132 -2.12132 
C -2.683901 -1.55874 -3 -0.795609 -3 0 
C -3 0.795609 -2.683901 1.55874 -2.12132 2.12132 
C -1.55874 2.683901 -0.795609 3 0 3 
z
" style="stroke: #1f77b4"/>
    </defs>
    <g clip-path="url(#p9ac928a1cb)">
     <use xlink:href="#m77ec2de41f" x="142.119652" y="192.698182" style="fill: #1f77b4; stroke: #1f77b4"/>
     <use xlink:href="#m77ec2de41f" x="133.006968" y="167.989091" style="fill: #1f77b4; stroke: #1f77b4"/>
     <use xlink:href="#m77ec2de41f" x="89.266086" y="158.105455" style="fill: #1f77b4; stroke: #1f77b4"/>
     <use xlink:href="#m77ec2de41f" x="100.201306" y="217.407273" style="fill: #1f77b4; stroke: #1f77b4"/>
     <use xlink:href="#m77ec2de41f" x="109.31399" y="202.581818" style="fill: #1f77b4; stroke: #1f77b4"/>
     <use xlink:href="#m77ec2de41f" x="102.023843" y="232.232727" style="fill: #1f77b4; stroke: #1f77b4"/>
     <use xlink:href="#m77ec2de41f" x="81.975939" y="222.349091" style="fill: #1f77b4; stroke: #1f77b4"/>
     <use xlink:href="#m77ec2de41f" x="96.556233" y="182.814545" style="fill: #1f77b4; stroke: #1f77b4"/>
     <use xlink:href="#m77ec2de41f" x="87.443549" y="197.64" style="fill: #1f77b4; stroke: #1f77b4"/>
     <use xlink:href="#m77ec2de41f" x="92.911159" y="187.756364" style="fill: #1f77b4; stroke: #1f77b4"/>
     <use xlink:href="#m77ec2de41f" x="100.201306" y="237.174545" style="fill: #1f77b4; stroke: #1f77b4"/>
     <use xlink:href="#m77ec2de41f" x="92.911159" y="207.523636" style="fill: #1f77b4; stroke: #1f77b4"/>
     <use xlink:href="#m77ec2de41f" x="129.361894" y="197.64" style="fill: #1f77b4; stroke: #1f77b4"/>
     <use xlink:href="#m77ec2de41f" x="78.330866" y="242.116364" style="fill: #1f77b4; stroke: #1f77b4"/>
     <use xlink:href="#m77ec2de41f" x="122.071747" y="187.756364" style="fill: #1f77b4; stroke: #1f77b4"/>
     <use xlink:href="#m77ec2de41f" x="87.443549" y="217.407273" style="fill: #1f77b4; stroke: #1f77b4"/>
     <use xlink:href="#m77ec2de41f" x="69.218182" y="232.232727" style="fill: #1f77b4; stroke: #1f77b4"/>
     <use xlink:href="#m77ec2de41f" x="87.443549" y="163.047273" style="fill: #1f77b4; stroke: #1f77b4"/>
     <use xlink:href="#m77ec2de41f" x="74.685792" y="222.349091" style="fill: #1f77b4; stroke: #1f77b4"/>
     <use xlink:href="#m77ec2de41f" x="125.716821" y="222.349091" style="fill: #1f77b4; stroke: #1f77b4"/>
     <use xlink:href="#m77ec2de41f" x="109.31399" y="192.698182" style="fill: #1f77b4; stroke: #1f77b4"/>
     <use xlink:href="#m77ec2de41f" x="149.409799" y="123.512727" style="fill: #1f77b4; stroke: #1f77b4"/>
     <use xlink:href="#m77ec2de41f" x="276.987371" y="133.396364" style="fill: #1f77b4; stroke: #1f77b4"/>
     <use xlink:href="#m77ec2de41f" x="134.829505" y="148.221818" style="fill: #1f77b4; stroke: #1f77b4"/>
     <use xlink:href="#m77ec2de41f" x="120.249211" y="118.570909" style="fill: #1f77b4; stroke: #1f77b4"/>
     <use xlink:href="#m77ec2de41f" x="196.795754" y="79.036364" style="fill: #1f77b4; stroke: #1f77b4"/>
     <use xlink:href="#m77ec2de41f" x="138.474578" y="93.861818" style="fill: #1f77b4; stroke: #1f77b4"/>
     <use xlink:href="#m77ec2de41f" x="109.31399" y="118.570909" style="fill: #1f77b4; stroke: #1f77b4"/>
     <use xlink:href="#m77ec2de41f" x="105.668917" y="143.28" style="fill: #1f77b4; stroke: #1f77b4"/>
     <use xlink:href="#m77ec2de41f" x="134.829505" y="167.989091" style="fill: #1f77b4; stroke: #1f77b4"/>
     <use xlink:href="#m77ec2de41f" x="103.84638" y="202.581818" style="fill: #1f77b4; stroke: #1f77b4"/>
     <use xlink:href="#m77ec2de41f" x="89.266086" y="163.047273" style="fill: #1f77b4; stroke: #1f77b4"/>
     <use xlink:href="#m77ec2de41f" x="91.088623" y="148.221818" style="fill: #1f77b4; stroke: #1f77b4"/>
     <use xlink:href="#m77ec2de41f" x="313.438106" y="108.687273" style="fill: #1f77b4; stroke: #1f77b4"/>
     <use xlink:href="#m77ec2de41f" x="156.699946" y="103.745455" style="fill: #1f77b4; stroke: #1f77b4"/>
     <use xlink:href="#m77ec2de41f" x="125.716821" y="123.512727" style="fill: #1f77b4; stroke: #1f77b4"/>
     <use xlink:href="#m77ec2de41f" x="184.037997" y="113.629091" style="fill: #1f77b4; stroke: #1f77b4"/>
     <use xlink:href="#m77ec2de41f" x="140.297115" y="113.629091" style="fill: #1f77b4; stroke: #1f77b4"/>
     <use xlink:href="#m77ec2de41f" x="207.730974" y="88.92" style="fill: #1f77b4; stroke: #1f77b4"/>
     <use xlink:href="#m77ec2de41f" x="244.181709" y="69.152727" style="fill: #1f77b4; stroke: #1f77b4"/>
     <use xlink:href="#m77ec2de41f" x="244.181709" y="69.152727" style="fill: #1f77b4; stroke: #1f77b4"/>
     <use xlink:href="#m77ec2de41f" x="222.311268" y="83.978182" style="fill: #1f77b4; stroke: #1f77b4"/>
     <use xlink:href="#m77ec2de41f" x="85.621013" y="163.047273" style="fill: #1f77b4; stroke: #1f77b4"/>
     <use xlink:href="#m77ec2de41f" x="116.604137" y="123.512727" style="fill: #1f77b4; stroke: #1f77b4"/>
     <use xlink:href="#m77ec2de41f" x="80.153402" y="128.454545" style="fill: #1f77b4; stroke: #1f77b4"/>
     <use xlink:href="#m77ec2de41f" x="154.877409" y="123.512727" style="fill: #1f77b4; stroke: #1f77b4"/>
     <use xlink:href="#m77ec2de41f" x="131.184431" y="118.570909" style="fill: #1f77b4; stroke: #1f77b4"/>
     <use xlink:href="#m77ec2de41f" x="178.570386" y="108.687273" style="fill: #1f77b4; stroke: #1f77b4"/>
     <use xlink:href="#m77ec2de41f" x="211.376048" y="93.861818" style="fill: #1f77b4; stroke: #1f77b4"/>
     <use xlink:href="#m77ec2de41f" x="182.21546" y="103.745455" style="fill: #1f77b4; stroke: #1f77b4"/>
     <use xlink:href="#m77ec2de41f" x="96.556233" y="158.105455" style="fill: #1f77b4; stroke: #1f77b4"/>
     <use xlink:href="#m77ec2de41f" x="213.198585" y="98.803636" style="fill: #1f77b4; stroke: #1f77b4"/>
     <use xlink:href="#m77ec2de41f" x="264.229614" y="103.745455" style="fill: #1f77b4; stroke: #1f77b4"/>
     <use xlink:href="#m77ec2de41f" x="103.84638" y="118.570909" style="fill: #1f77b4; stroke: #1f77b4"/>
     <use xlink:href="#m77ec2de41f" x="162.167556" y="98.803636" style="fill: #1f77b4; stroke: #1f77b4"/>
     <use xlink:href="#m77ec2de41f" x="216.843658" y="88.92" style="fill: #1f77b4; stroke: #1f77b4"/>
     <use xlink:href="#m77ec2de41f" x="158.522482" y="98.803636" style="fill: #1f77b4; stroke: #1f77b4"/>
     <use xlink:href="#m77ec2de41f" x="184.037997" y="113.629091" style="fill: #1f77b4; stroke: #1f77b4"/>
     <use xlink:href="#m77ec2de41f" x="174.925313" y="123.512727" style="fill: #1f77b4; stroke: #1f77b4"/>
     <use xlink:href="#m77ec2de41f" x="138.474578" y="123.512727" style="fill: #1f77b4; stroke: #1f77b4"/>
     <use xlink:href="#m77ec2de41f" x="83.798476" y="123.512727" style="fill: #1f77b4; stroke: #1f77b4"/>
     <use xlink:href="#m77ec2de41f" x="96.556233" y="118.570909" style="fill: #1f77b4; stroke: #1f77b4"/>
     <use xlink:href="#m77ec2de41f" x="289.745128" y="83.978182" style="fill: #1f77b4; stroke: #1f77b4"/>
     <use xlink:href="#m77ec2de41f" x="229.601415" y="79.036364" style="fill: #1f77b4; stroke: #1f77b4"/>
     <use xlink:href="#m77ec2de41f" x="267.874687" y="79.036364" style="fill: #1f77b4; stroke: #1f77b4"/>
     <use xlink:href="#m77ec2de41f" x="147.587262" y="98.803636" style="fill: #1f77b4; stroke: #1f77b4"/>
     <use xlink:href="#m77ec2de41f" x="118.426674" y="118.570909" style="fill: #1f77b4; stroke: #1f77b4"/>
     <use xlink:href="#m77ec2de41f" x="185.860533" y="128.454545" style="fill: #1f77b4; stroke: #1f77b4"/>
     <use xlink:href="#m77ec2de41f" x="107.491453" y="143.28" style="fill: #1f77b4; stroke: #1f77b4"/>
     <use xlink:href="#m77ec2de41f" x="174.925313" y="133.396364" style="fill: #1f77b4; stroke: #1f77b4"/>
     <use xlink:href="#m77ec2de41f" x="109.31399" y="148.221818" style="fill: #1f77b4; stroke: #1f77b4"/>
     <use xlink:href="#m77ec2de41f" x="123.894284" y="138.338182" style="fill: #1f77b4; stroke: #1f77b4"/>
     <use xlink:href="#m77ec2de41f" x="147.587262" y="138.338182" style="fill: #1f77b4; stroke: #1f77b4"/>
     <use xlink:href="#m77ec2de41f" x="105.668917" y="143.28" style="fill: #1f77b4; stroke: #1f77b4"/>
     <use xlink:href="#m77ec2de41f" x="83.798476" y="167.989091" style="fill: #1f77b4; stroke: #1f77b4"/>
     <use xlink:href="#m77ec2de41f" x="149.409799" y="133.396364" style="fill: #1f77b4; stroke: #1f77b4"/>
     <use xlink:href="#m77ec2de41f" x="373.581818" y="123.512727" style="fill: #1f77b4; stroke: #1f77b4"/>
     <use xlink:href="#m77ec2de41f" x="200.440827" y="98.803636" style="fill: #1f77b4; stroke: #1f77b4"/>
     <use xlink:href="#m77ec2de41f" x="205.908438" y="44.443636" style="fill: #1f77b4; stroke: #1f77b4"/>
     <use xlink:href="#m77ec2de41f" x="282.454981" y="59.269091" style="fill: #1f77b4; stroke: #1f77b4"/>
     <use xlink:href="#m77ec2de41f" x="220.488732" y="49.385455" style="fill: #1f77b4; stroke: #1f77b4"/>
     <use xlink:href="#m77ec2de41f" x="222.311268" y="59.269091" style="fill: #1f77b4; stroke: #1f77b4"/>
     <use xlink:href="#m77ec2de41f" x="242.359173" y="74.094545" style="fill: #1f77b4; stroke: #1f77b4"/>
     <use xlink:href="#m77ec2de41f" x="209.553511" y="69.152727" style="fill: #1f77b4; stroke: #1f77b4"/>
     <use xlink:href="#m77ec2de41f" x="200.440827" y="64.210909" style="fill: #1f77b4; stroke: #1f77b4"/>
     <use xlink:href="#m77ec2de41f" x="233.246489" y="64.210909" style="fill: #1f77b4; stroke: #1f77b4"/>
     <use xlink:href="#m77ec2de41f" x="153.054872" y="93.861818" style="fill: #1f77b4; stroke: #1f77b4"/>
     <use xlink:href="#m77ec2de41f" x="125.716821" y="108.687273" style="fill: #1f77b4; stroke: #1f77b4"/>
     <use xlink:href="#m77ec2de41f" x="103.84638" y="128.454545" style="fill: #1f77b4; stroke: #1f77b4"/>
     <use xlink:href="#m77ec2de41f" x="109.31399" y="138.338182" style="fill: #1f77b4; stroke: #1f77b4"/>
     <use xlink:href="#m77ec2de41f" x="105.668917" y="153.163636" style="fill: #1f77b4; stroke: #1f77b4"/>
     <use xlink:href="#m77ec2de41f" x="111.136527" y="163.047273" style="fill: #1f77b4; stroke: #1f77b4"/>
     <use xlink:href="#m77ec2de41f" x="147.587262" y="123.512727" style="fill: #1f77b4; stroke: #1f77b4"/>
     <use xlink:href="#m77ec2de41f" x="105.668917" y="148.221818" style="fill: #1f77b4; stroke: #1f77b4"/>
     <use xlink:href="#m77ec2de41f" x="118.426674" y="143.28" style="fill: #1f77b4; stroke: #1f77b4"/>
     <use xlink:href="#m77ec2de41f" x="83.798476" y="172.930909" style="fill: #1f77b4; stroke: #1f77b4"/>
     <use xlink:href="#m77ec2de41f" x="91.088623" y="172.930909" style="fill: #1f77b4; stroke: #1f77b4"/>
     <use xlink:href="#m77ec2de41f" x="151.232335" y="138.338182" style="fill: #1f77b4; stroke: #1f77b4"/>
     <use xlink:href="#m77ec2de41f" x="100.201306" y="192.698182" style="fill: #1f77b4; stroke: #1f77b4"/>
     <use xlink:href="#m77ec2de41f" x="91.088623" y="148.221818" style="fill: #1f77b4; stroke: #1f77b4"/>
     <use xlink:href="#m77ec2de41f" x="111.136527" y="187.756364" style="fill: #1f77b4; stroke: #1f77b4"/>
     <use xlink:href="#m77ec2de41f" x="96.556233" y="118.570909" style="fill: #1f77b4; stroke: #1f77b4"/>
     <use xlink:href="#m77ec2de41f" x="91.088623" y="207.523636" style="fill: #1f77b4; stroke: #1f77b4"/>
     <use xlink:href="#m77ec2de41f" x="109.31399" y="172.930909" style="fill: #1f77b4; stroke: #1f77b4"/>
     <use xlink:href="#m77ec2de41f" x="133.006968" y="123.512727" style="fill: #1f77b4; stroke: #1f77b4"/>
     <use xlink:href="#m77ec2de41f" x="80.153402" y="182.814545" style="fill: #1f77b4; stroke: #1f77b4"/>
     <use xlink:href="#m77ec2de41f" x="92.911159" y="212.465455" style="fill: #1f77b4; stroke: #1f77b4"/>
     <use xlink:href="#m77ec2de41f" x="122.071747" y="177.872727" style="fill: #1f77b4; stroke: #1f77b4"/>
     <use xlink:href="#m77ec2de41f" x="92.911159" y="153.163636" style="fill: #1f77b4; stroke: #1f77b4"/>
     <use xlink:href="#m77ec2de41f" x="100.201306" y="148.221818" style="fill: #1f77b4; stroke: #1f77b4"/>
     <use xlink:href="#m77ec2de41f" x="103.84638" y="187.756364" style="fill: #1f77b4; stroke: #1f77b4"/>
    </g>
   </g>
   <g id="matplotlib.axis_1">
    <g id="xtick_1">
     <g id="line2d_1">
      <defs>
       <path id="m45d55e922a" d="M 0 0 
L 0 3.5 
" style="stroke: #000000; stroke-width: 0.8"/>
      </defs>
      <g>
       <use xlink:href="#m45d55e922a" x="67.395645" y="252" style="stroke: #000000; stroke-width: 0.8"/>
      </g>
     </g>
     <g id="text_1">
      <!-- 0 -->
      <g transform="translate(64.214395 266.598437)scale(0.1 -0.1)">
       <defs>
        <path id="DejaVuSans-30" d="M 2034 4250 
Q 1547 4250 1301 3770 
Q 1056 3291 1056 2328 
Q 1056 1369 1301 889 
Q 1547 409 2034 409 
Q 2525 409 2770 889 
Q 3016 1369 3016 2328 
Q 3016 3291 2770 3770 
Q 2525 4250 2034 4250 
z
M 2034 4750 
Q 2819 4750 3233 4129 
Q 3647 3509 3647 2328 
Q 3647 1150 3233 529 
Q 2819 -91 2034 -91 
Q 1250 -91 836 529 
Q 422 1150 422 2328 
Q 422 3509 836 4129 
Q 1250 4750 2034 4750 
z
" transform="scale(0.015625)"/>
       </defs>
       <use xlink:href="#DejaVuSans-30"/>
      </g>
     </g>
    </g>
    <g id="xtick_2">
     <g id="line2d_2">
      <g>
       <use xlink:href="#m45d55e922a" x="112.959064" y="252" style="stroke: #000000; stroke-width: 0.8"/>
      </g>
     </g>
     <g id="text_2">
      <!-- 25 -->
      <g transform="translate(106.596564 266.598437)scale(0.1 -0.1)">
       <defs>
        <path id="DejaVuSans-32" d="M 1228 531 
L 3431 531 
L 3431 0 
L 469 0 
L 469 531 
Q 828 903 1448 1529 
Q 2069 2156 2228 2338 
Q 2531 2678 2651 2914 
Q 2772 3150 2772 3378 
Q 2772 3750 2511 3984 
Q 2250 4219 1831 4219 
Q 1534 4219 1204 4116 
Q 875 4013 500 3803 
L 500 4441 
Q 881 4594 1212 4672 
Q 1544 4750 1819 4750 
Q 2544 4750 2975 4387 
Q 3406 4025 3406 3419 
Q 3406 3131 3298 2873 
Q 3191 2616 2906 2266 
Q 2828 2175 2409 1742 
Q 1991 1309 1228 531 
z
" transform="scale(0.015625)"/>
        <path id="DejaVuSans-35" d="M 691 4666 
L 3169 4666 
L 3169 4134 
L 1269 4134 
L 1269 2991 
Q 1406 3038 1543 3061 
Q 1681 3084 1819 3084 
Q 2600 3084 3056 2656 
Q 3513 2228 3513 1497 
Q 3513 744 3044 326 
Q 2575 -91 1722 -91 
Q 1428 -91 1123 -41 
Q 819 9 494 109 
L 494 744 
Q 775 591 1075 516 
Q 1375 441 1709 441 
Q 2250 441 2565 725 
Q 2881 1009 2881 1497 
Q 2881 1984 2565 2268 
Q 2250 2553 1709 2553 
Q 1456 2553 1204 2497 
Q 953 2441 691 2322 
L 691 4666 
z
" transform="scale(0.015625)"/>
       </defs>
       <use xlink:href="#DejaVuSans-32"/>
       <use xlink:href="#DejaVuSans-35" x="63.623047"/>
      </g>
     </g>
    </g>
    <g id="xtick_3">
     <g id="line2d_3">
      <g>
       <use xlink:href="#m45d55e922a" x="158.522482" y="252" style="stroke: #000000; stroke-width: 0.8"/>
      </g>
     </g>
     <g id="text_3">
      <!-- 50 -->
      <g transform="translate(152.159982 266.598437)scale(0.1 -0.1)">
       <use xlink:href="#DejaVuSans-35"/>
       <use xlink:href="#DejaVuSans-30" x="63.623047"/>
      </g>
     </g>
    </g>
    <g id="xtick_4">
     <g id="line2d_4">
      <g>
       <use xlink:href="#m45d55e922a" x="204.085901" y="252" style="stroke: #000000; stroke-width: 0.8"/>
      </g>
     </g>
     <g id="text_4">
      <!-- 75 -->
      <g transform="translate(197.723401 266.598437)scale(0.1 -0.1)">
       <defs>
        <path id="DejaVuSans-37" d="M 525 4666 
L 3525 4666 
L 3525 4397 
L 1831 0 
L 1172 0 
L 2766 4134 
L 525 4134 
L 525 4666 
z
" transform="scale(0.015625)"/>
       </defs>
       <use xlink:href="#DejaVuSans-37"/>
       <use xlink:href="#DejaVuSans-35" x="63.623047"/>
      </g>
     </g>
    </g>
    <g id="xtick_5">
     <g id="line2d_5">
      <g>
       <use xlink:href="#m45d55e922a" x="249.64932" y="252" style="stroke: #000000; stroke-width: 0.8"/>
      </g>
     </g>
     <g id="text_5">
      <!-- 100 -->
      <g transform="translate(240.10557 266.598437)scale(0.1 -0.1)">
       <defs>
        <path id="DejaVuSans-31" d="M 794 531 
L 1825 531 
L 1825 4091 
L 703 3866 
L 703 4441 
L 1819 4666 
L 2450 4666 
L 2450 531 
L 3481 531 
L 3481 0 
L 794 0 
L 794 531 
z
" transform="scale(0.015625)"/>
       </defs>
       <use xlink:href="#DejaVuSans-31"/>
       <use xlink:href="#DejaVuSans-30" x="63.623047"/>
       <use xlink:href="#DejaVuSans-30" x="127.246094"/>
      </g>
     </g>
    </g>
    <g id="xtick_6">
     <g id="line2d_6">
      <g>
       <use xlink:href="#m45d55e922a" x="295.212738" y="252" style="stroke: #000000; stroke-width: 0.8"/>
      </g>
     </g>
     <g id="text_6">
      <!-- 125 -->
      <g transform="translate(285.668988 266.598437)scale(0.1 -0.1)">
       <use xlink:href="#DejaVuSans-31"/>
       <use xlink:href="#DejaVuSans-32" x="63.623047"/>
       <use xlink:href="#DejaVuSans-35" x="127.246094"/>
      </g>
     </g>
    </g>
    <g id="xtick_7">
     <g id="line2d_7">
      <g>
       <use xlink:href="#m45d55e922a" x="340.776157" y="252" style="stroke: #000000; stroke-width: 0.8"/>
      </g>
     </g>
     <g id="text_7">
      <!-- 150 -->
      <g transform="translate(331.232407 266.598437)scale(0.1 -0.1)">
       <use xlink:href="#DejaVuSans-31"/>
       <use xlink:href="#DejaVuSans-35" x="63.623047"/>
       <use xlink:href="#DejaVuSans-30" x="127.246094"/>
      </g>
     </g>
    </g>
    <g id="xtick_8">
     <g id="line2d_8">
      <g>
       <use xlink:href="#m45d55e922a" x="386.339575" y="252" style="stroke: #000000; stroke-width: 0.8"/>
      </g>
     </g>
     <g id="text_8">
      <!-- 175 -->
      <g transform="translate(376.795825 266.598437)scale(0.1 -0.1)">
       <use xlink:href="#DejaVuSans-31"/>
       <use xlink:href="#DejaVuSans-37" x="63.623047"/>
       <use xlink:href="#DejaVuSans-35" x="127.246094"/>
      </g>
     </g>
    </g>
   </g>
   <g id="matplotlib.axis_2">
    <g id="ytick_1">
     <g id="line2d_9">
      <defs>
       <path id="md742a164b6" d="M 0 0 
L -3.5 0 
" style="stroke: #000000; stroke-width: 0.8"/>
      </defs>
      <g>
       <use xlink:href="#md742a164b6" x="54" y="252" style="stroke: #000000; stroke-width: 0.8"/>
      </g>
     </g>
     <g id="text_9">
      <!-- 55 -->
      <g transform="translate(34.275 255.799219)scale(0.1 -0.1)">
       <use xlink:href="#DejaVuSans-35"/>
       <use xlink:href="#DejaVuSans-35" x="63.623047"/>
      </g>
     </g>
    </g>
    <g id="ytick_2">
     <g id="line2d_10">
      <g>
       <use xlink:href="#md742a164b6" x="54" y="227.290909" style="stroke: #000000; stroke-width: 0.8"/>
      </g>
     </g>
     <g id="text_10">
      <!-- 60 -->
      <g transform="translate(34.275 231.090128)scale(0.1 -0.1)">
       <defs>
        <path id="DejaVuSans-36" d="M 2113 2584 
Q 1688 2584 1439 2293 
Q 1191 2003 1191 1497 
Q 1191 994 1439 701 
Q 1688 409 2113 409 
Q 2538 409 2786 701 
Q 3034 994 3034 1497 
Q 3034 2003 2786 2293 
Q 2538 2584 2113 2584 
z
M 3366 4563 
L 3366 3988 
Q 3128 4100 2886 4159 
Q 2644 4219 2406 4219 
Q 1781 4219 1451 3797 
Q 1122 3375 1075 2522 
Q 1259 2794 1537 2939 
Q 1816 3084 2150 3084 
Q 2853 3084 3261 2657 
Q 3669 2231 3669 1497 
Q 3669 778 3244 343 
Q 2819 -91 2113 -91 
Q 1303 -91 875 529 
Q 447 1150 447 2328 
Q 447 3434 972 4092 
Q 1497 4750 2381 4750 
Q 2619 4750 2861 4703 
Q 3103 4656 3366 4563 
z
" transform="scale(0.015625)"/>
       </defs>
       <use xlink:href="#DejaVuSans-36"/>
       <use xlink:href="#DejaVuSans-30" x="63.623047"/>
      </g>
     </g>
    </g>
    <g id="ytick_3">
     <g id="line2d_11">
      <g>
       <use xlink:href="#md742a164b6" x="54" y="202.581818" style="stroke: #000000; stroke-width: 0.8"/>
      </g>
     </g>
     <g id="text_11">
      <!-- 65 -->
      <g transform="translate(34.275 206.381037)scale(0.1 -0.1)">
       <use xlink:href="#DejaVuSans-36"/>
       <use xlink:href="#DejaVuSans-35" x="63.623047"/>
      </g>
     </g>
    </g>
    <g id="ytick_4">
     <g id="line2d_12">
      <g>
       <use xlink:href="#md742a164b6" x="54" y="177.872727" style="stroke: #000000; stroke-width: 0.8"/>
      </g>
     </g>
     <g id="text_12">
      <!-- 70 -->
      <g transform="translate(34.275 181.671946)scale(0.1 -0.1)">
       <use xlink:href="#DejaVuSans-37"/>
       <use xlink:href="#DejaVuSans-30" x="63.623047"/>
      </g>
     </g>
    </g>
    <g id="ytick_5">
     <g id="line2d_13">
      <g>
       <use xlink:href="#md742a164b6" x="54" y="153.163636" style="stroke: #000000; stroke-width: 0.8"/>
      </g>
     </g>
     <g id="text_13">
      <!-- 75 -->
      <g transform="translate(34.275 156.962855)scale(0.1 -0.1)">
       <use xlink:href="#DejaVuSans-37"/>
       <use xlink:href="#DejaVuSans-35" x="63.623047"/>
      </g>
     </g>
    </g>
    <g id="ytick_6">
     <g id="line2d_14">
      <g>
       <use xlink:href="#md742a164b6" x="54" y="128.454545" style="stroke: #000000; stroke-width: 0.8"/>
      </g>
     </g>
     <g id="text_14">
      <!-- 80 -->
      <g transform="translate(34.275 132.253764)scale(0.1 -0.1)">
       <defs>
        <path id="DejaVuSans-38" d="M 2034 2216 
Q 1584 2216 1326 1975 
Q 1069 1734 1069 1313 
Q 1069 891 1326 650 
Q 1584 409 2034 409 
Q 2484 409 2743 651 
Q 3003 894 3003 1313 
Q 3003 1734 2745 1975 
Q 2488 2216 2034 2216 
z
M 1403 2484 
Q 997 2584 770 2862 
Q 544 3141 544 3541 
Q 544 4100 942 4425 
Q 1341 4750 2034 4750 
Q 2731 4750 3128 4425 
Q 3525 4100 3525 3541 
Q 3525 3141 3298 2862 
Q 3072 2584 2669 2484 
Q 3125 2378 3379 2068 
Q 3634 1759 3634 1313 
Q 3634 634 3220 271 
Q 2806 -91 2034 -91 
Q 1263 -91 848 271 
Q 434 634 434 1313 
Q 434 1759 690 2068 
Q 947 2378 1403 2484 
z
M 1172 3481 
Q 1172 3119 1398 2916 
Q 1625 2713 2034 2713 
Q 2441 2713 2670 2916 
Q 2900 3119 2900 3481 
Q 2900 3844 2670 4047 
Q 2441 4250 2034 4250 
Q 1625 4250 1398 4047 
Q 1172 3844 1172 3481 
z
" transform="scale(0.015625)"/>
       </defs>
       <use xlink:href="#DejaVuSans-38"/>
       <use xlink:href="#DejaVuSans-30" x="63.623047"/>
      </g>
     </g>
    </g>
    <g id="ytick_7">
     <g id="line2d_15">
      <g>
       <use xlink:href="#md742a164b6" x="54" y="103.745455" style="stroke: #000000; stroke-width: 0.8"/>
      </g>
     </g>
     <g id="text_15">
      <!-- 85 -->
      <g transform="translate(34.275 107.544673)scale(0.1 -0.1)">
       <use xlink:href="#DejaVuSans-38"/>
       <use xlink:href="#DejaVuSans-35" x="63.623047"/>
      </g>
     </g>
    </g>
    <g id="ytick_8">
     <g id="line2d_16">
      <g>
       <use xlink:href="#md742a164b6" x="54" y="79.036364" style="stroke: #000000; stroke-width: 0.8"/>
      </g>
     </g>
     <g id="text_16">
      <!-- 90 -->
      <g transform="translate(34.275 82.835582)scale(0.1 -0.1)">
       <defs>
        <path id="DejaVuSans-39" d="M 703 97 
L 703 672 
Q 941 559 1184 500 
Q 1428 441 1663 441 
Q 2288 441 2617 861 
Q 2947 1281 2994 2138 
Q 2813 1869 2534 1725 
Q 2256 1581 1919 1581 
Q 1219 1581 811 2004 
Q 403 2428 403 3163 
Q 403 3881 828 4315 
Q 1253 4750 1959 4750 
Q 2769 4750 3195 4129 
Q 3622 3509 3622 2328 
Q 3622 1225 3098 567 
Q 2575 -91 1691 -91 
Q 1453 -91 1209 -44 
Q 966 3 703 97 
z
M 1959 2075 
Q 2384 2075 2632 2365 
Q 2881 2656 2881 3163 
Q 2881 3666 2632 3958 
Q 2384 4250 1959 4250 
Q 1534 4250 1286 3958 
Q 1038 3666 1038 3163 
Q 1038 2656 1286 2365 
Q 1534 2075 1959 2075 
z
" transform="scale(0.015625)"/>
       </defs>
       <use xlink:href="#DejaVuSans-39"/>
       <use xlink:href="#DejaVuSans-30" x="63.623047"/>
      </g>
     </g>
    </g>
    <g id="ytick_9">
     <g id="line2d_17">
      <g>
       <use xlink:href="#md742a164b6" x="54" y="54.327273" style="stroke: #000000; stroke-width: 0.8"/>
      </g>
     </g>
     <g id="text_17">
      <!-- 95 -->
      <g transform="translate(34.275 58.126491)scale(0.1 -0.1)">
       <use xlink:href="#DejaVuSans-39"/>
       <use xlink:href="#DejaVuSans-35" x="63.623047"/>
      </g>
     </g>
    </g>
   </g>
   <g id="patch_3">
    <path d="M 54 252 
L 54 34.56 
" style="fill: none; stroke: #000000; stroke-width: 0.8; stroke-linejoin: miter; stroke-linecap: square"/>
   </g>
   <g id="patch_4">
    <path d="M 388.8 252 
L 388.8 34.56 
" style="fill: none; stroke: #000000; stroke-width: 0.8; stroke-linejoin: miter; stroke-linecap: square"/>
   </g>
   <g id="patch_5">
    <path d="M 54 252 
L 388.8 252 
" style="fill: none; stroke: #000000; stroke-width: 0.8; stroke-linejoin: miter; stroke-linecap: square"/>
   </g>
   <g id="patch_6">
    <path d="M 54 34.56 
L 388.8 34.56 
" style="fill: none; stroke: #000000; stroke-width: 0.8; stroke-linejoin: miter; stroke-linecap: square"/>
   </g>
  </g>
 </g>
 <defs>
  <clipPath id="p9ac928a1cb">
   <rect x="54" y="34.56" width="334.8" height="217.44"/>
  </clipPath>
 </defs>
</svg>
