<?xml version="1.0" encoding="utf-8" standalone="no"?>
<!DOCTYPE svg PUBLIC "-//W3C//DTD SVG 1.1//EN"
  "http://www.w3.org/Graphics/SVG/1.1/DTD/svg11.dtd">
<svg xmlns:xlink="http://www.w3.org/1999/xlink" width="432pt" height="288pt" viewBox="0 0 432 288" xmlns="http://www.w3.org/2000/svg" version="1.1">
 <metadata>
  <rdf:RDF xmlns:dc="http://purl.org/dc/elements/1.1/" xmlns:cc="http://creativecommons.org/ns#" xmlns:rdf="http://www.w3.org/1999/02/22-rdf-syntax-ns#">
   <cc:Work>
    <dc:type rdf:resource="http://purl.org/dc/dcmitype/StillImage"/>
    <dc:date>2022-06-15T19:05:16.363270</dc:date>
    <dc:format>image/svg+xml</dc:format>
    <dc:creator>
     <cc:Agent>
      <dc:title>Matplotlib v3.5.2, https://matplotlib.org/</dc:title>
     </cc:Agent>
    </dc:creator>
   </cc:Work>
  </rdf:RDF>
 </metadata>
 <defs>
  <style type="text/css">*{stroke-linejoin: round; stroke-linecap: butt}</style>
 </defs>
 <g id="figure_1">
  <g id="patch_1">
   <path d="M 0 288 
L 432 288 
L 432 0 
L 0 0 
L 0 288 
z
" style="fill: none"/>
  </g>
  <g id="axes_1">
   <g id="patch_2">
    <path d="M 54 252 
L 388.8 252 
L 388.8 34.56 
L 54 34.56 
z
" style="fill: #ffffff"/>
   </g>
   <g id="PathCollection_1">
    <defs>
     <path id="ma228d9e165" d="M 0 3 
C 0.795609 3 1.55874 2.683901 2.12132 2.12132 
C 2.683901 1.55874 3 0.795609 3 0 
C 3 -0.795609 2.683901 -1.55874 2.12132 -2.12132 
C 1.55874 -2.683901 0.795609 -3 0 -3 
C -0.795609 -3 -1.55874 -2.683901 -2.12132 -2.12132 
C -2.683901 -1.55874 -3 -0.795609 -3 0 
C -3 0.795609 -2.683901 1.55874 -2.12132 2.12132 
C -1.55874 2.683901 -0.795609 3 0 3 
z
" style="stroke: #1f77b4"/>
    </defs>
    <g clip-path="url(#p6cfb9d441f)">
     <use xlink:href="#ma228d9e165" x="239.550125" y="192.698182" style="fill: #1f77b4; stroke: #1f77b4"/>
     <use xlink:href="#ma228d9e165" x="172.534279" y="167.989091" style="fill: #1f77b4; stroke: #1f77b4"/>
     <use xlink:href="#ma228d9e165" x="201.388324" y="158.105455" style="fill: #1f77b4; stroke: #1f77b4"/>
     <use xlink:href="#ma228d9e165" x="354.03553" y="217.407273" style="fill: #1f77b4; stroke: #1f77b4"/>
     <use xlink:href="#ma228d9e165" x="341.004671" y="202.581818" style="fill: #1f77b4; stroke: #1f77b4"/>
     <use xlink:href="#ma228d9e165" x="154.849541" y="232.232727" style="fill: #1f77b4; stroke: #1f77b4"/>
     <use xlink:href="#ma228d9e165" x="80.38749" y="222.349091" style="fill: #1f77b4; stroke: #1f77b4"/>
     <use xlink:href="#ma228d9e165" x="300.981318" y="182.814545" style="fill: #1f77b4; stroke: #1f77b4"/>
     <use xlink:href="#ma228d9e165" x="332.62769" y="197.64" style="fill: #1f77b4; stroke: #1f77b4"/>
     <use xlink:href="#ma228d9e165" x="317.735279" y="187.756364" style="fill: #1f77b4; stroke: #1f77b4"/>
     <use xlink:href="#ma228d9e165" x="123.203169" y="237.174545" style="fill: #1f77b4; stroke: #1f77b4"/>
     <use xlink:href="#ma228d9e165" x="373.581818" y="207.523636" style="fill: #1f77b4; stroke: #1f77b4"/>
     <use xlink:href="#ma228d9e165" x="348.450876" y="197.64" style="fill: #1f77b4; stroke: #1f77b4"/>
     <use xlink:href="#ma228d9e165" x="135.303253" y="242.116364" style="fill: #1f77b4; stroke: #1f77b4"/>
     <use xlink:href="#ma228d9e165" x="362.41251" y="187.756364" style="fill: #1f77b4; stroke: #1f77b4"/>
     <use xlink:href="#ma228d9e165" x="103.656881" y="217.407273" style="fill: #1f77b4; stroke: #1f77b4"/>
     <use xlink:href="#ma228d9e165" x="70.148957" y="232.232727" style="fill: #1f77b4; stroke: #1f77b4"/>
     <use xlink:href="#ma228d9e165" x="360.550959" y="163.047273" style="fill: #1f77b4; stroke: #1f77b4"/>
     <use xlink:href="#ma228d9e165" x="85.972143" y="222.349091" style="fill: #1f77b4; stroke: #1f77b4"/>
     <use xlink:href="#ma228d9e165" x="148.334112" y="222.349091" style="fill: #1f77b4; stroke: #1f77b4"/>
     <use xlink:href="#ma228d9e165" x="74.802836" y="192.698182" style="fill: #1f77b4; stroke: #1f77b4"/>
     <use xlink:href="#ma228d9e165" x="297.258215" y="123.512727" style="fill: #1f77b4; stroke: #1f77b4"/>
     <use xlink:href="#ma228d9e165" x="270.265721" y="133.396364" style="fill: #1f77b4; stroke: #1f77b4"/>
     <use xlink:href="#ma228d9e165" x="322.389158" y="148.221818" style="fill: #1f77b4; stroke: #1f77b4"/>
     <use xlink:href="#ma228d9e165" x="180.911259" y="118.570909" style="fill: #1f77b4; stroke: #1f77b4"/>
     <use xlink:href="#ma228d9e165" x="333.558465" y="79.036364" style="fill: #1f77b4; stroke: #1f77b4"/>
     <use xlink:href="#ma228d9e165" x="363.343286" y="93.861818" style="fill: #1f77b4; stroke: #1f77b4"/>
     <use xlink:href="#ma228d9e165" x="200.457548" y="118.570909" style="fill: #1f77b4; stroke: #1f77b4"/>
     <use xlink:href="#ma228d9e165" x="240.480901" y="143.28" style="fill: #1f77b4; stroke: #1f77b4"/>
     <use xlink:href="#ma228d9e165" x="327.043036" y="167.989091" style="fill: #1f77b4; stroke: #1f77b4"/>
     <use xlink:href="#ma228d9e165" x="97.141451" y="202.581818" style="fill: #1f77b4; stroke: #1f77b4"/>
     <use xlink:href="#ma228d9e165" x="174.39583" y="163.047273" style="fill: #1f77b4; stroke: #1f77b4"/>
     <use xlink:href="#ma228d9e165" x="190.219016" y="148.221818" style="fill: #1f77b4; stroke: #1f77b4"/>
     <use xlink:href="#ma228d9e165" x="313.081401" y="108.687273" style="fill: #1f77b4; stroke: #1f77b4"/>
     <use xlink:href="#ma228d9e165" x="293.535113" y="103.745455" style="fill: #1f77b4; stroke: #1f77b4"/>
     <use xlink:href="#ma228d9e165" x="282.365805" y="123.512727" style="fill: #1f77b4; stroke: #1f77b4"/>
     <use xlink:href="#ma228d9e165" x="225.58849" y="113.629091" style="fill: #1f77b4; stroke: #1f77b4"/>
     <use xlink:href="#ma228d9e165" x="354.966305" y="113.629091" style="fill: #1f77b4; stroke: #1f77b4"/>
     <use xlink:href="#ma228d9e165" x="319.596831" y="88.92" style="fill: #1f77b4; stroke: #1f77b4"/>
     <use xlink:href="#ma228d9e165" x="311.21985" y="69.152727" style="fill: #1f77b4; stroke: #1f77b4"/>
     <use xlink:href="#ma228d9e165" x="315.873728" y="69.152727" style="fill: #1f77b4; stroke: #1f77b4"/>
     <use xlink:href="#ma228d9e165" x="225.58849" y="83.978182" style="fill: #1f77b4; stroke: #1f77b4"/>
     <use xlink:href="#ma228d9e165" x="308.427523" y="163.047273" style="fill: #1f77b4; stroke: #1f77b4"/>
     <use xlink:href="#ma228d9e165" x="225.58849" y="123.512727" style="fill: #1f77b4; stroke: #1f77b4"/>
     <use xlink:href="#ma228d9e165" x="107.379983" y="128.454545" style="fill: #1f77b4; stroke: #1f77b4"/>
     <use xlink:href="#ma228d9e165" x="304.70442" y="123.512727" style="fill: #1f77b4; stroke: #1f77b4"/>
     <use xlink:href="#ma228d9e165" x="317.735279" y="118.570909" style="fill: #1f77b4; stroke: #1f77b4"/>
     <use xlink:href="#ma228d9e165" x="327.973812" y="108.687273" style="fill: #1f77b4; stroke: #1f77b4"/>
     <use xlink:href="#ma228d9e165" x="236.757798" y="93.861818" style="fill: #1f77b4; stroke: #1f77b4"/>
     <use xlink:href="#ma228d9e165" x="267.473394" y="103.745455" style="fill: #1f77b4; stroke: #1f77b4"/>
     <use xlink:href="#ma228d9e165" x="69.218182" y="158.105455" style="fill: #1f77b4; stroke: #1f77b4"/>
     <use xlink:href="#ma228d9e165" x="336.350792" y="98.803636" style="fill: #1f77b4; stroke: #1f77b4"/>
     <use xlink:href="#ma228d9e165" x="270.265721" y="103.745455" style="fill: #1f77b4; stroke: #1f77b4"/>
     <use xlink:href="#ma228d9e165" x="138.09558" y="118.570909" style="fill: #1f77b4; stroke: #1f77b4"/>
     <use xlink:href="#ma228d9e165" x="139.026355" y="98.803636" style="fill: #1f77b4; stroke: #1f77b4"/>
     <use xlink:href="#ma228d9e165" x="260.957965" y="88.92" style="fill: #1f77b4; stroke: #1f77b4"/>
     <use xlink:href="#ma228d9e165" x="318.666055" y="98.803636" style="fill: #1f77b4; stroke: #1f77b4"/>
     <use xlink:href="#ma228d9e165" x="298.188991" y="113.629091" style="fill: #1f77b4; stroke: #1f77b4"/>
     <use xlink:href="#ma228d9e165" x="299.119766" y="123.512727" style="fill: #1f77b4; stroke: #1f77b4"/>
     <use xlink:href="#ma228d9e165" x="139.957131" y="123.512727" style="fill: #1f77b4; stroke: #1f77b4"/>
     <use xlink:href="#ma228d9e165" x="85.041368" y="123.512727" style="fill: #1f77b4; stroke: #1f77b4"/>
     <use xlink:href="#ma228d9e165" x="134.372477" y="118.570909" style="fill: #1f77b4; stroke: #1f77b4"/>
     <use xlink:href="#ma228d9e165" x="300.050542" y="83.978182" style="fill: #1f77b4; stroke: #1f77b4"/>
     <use xlink:href="#ma228d9e165" x="275.850375" y="79.036364" style="fill: #1f77b4; stroke: #1f77b4"/>
     <use xlink:href="#ma228d9e165" x="255.373311" y="79.036364" style="fill: #1f77b4; stroke: #1f77b4"/>
     <use xlink:href="#ma228d9e165" x="241.411676" y="98.803636" style="fill: #1f77b4; stroke: #1f77b4"/>
     <use xlink:href="#ma228d9e165" x="316.804504" y="118.570909" style="fill: #1f77b4; stroke: #1f77b4"/>
     <use xlink:href="#ma228d9e165" x="208.834529" y="128.454545" style="fill: #1f77b4; stroke: #1f77b4"/>
     <use xlink:href="#ma228d9e165" x="128.787823" y="143.28" style="fill: #1f77b4; stroke: #1f77b4"/>
     <use xlink:href="#ma228d9e165" x="110.17231" y="133.396364" style="fill: #1f77b4; stroke: #1f77b4"/>
     <use xlink:href="#ma228d9e165" x="169.741952" y="148.221818" style="fill: #1f77b4; stroke: #1f77b4"/>
     <use xlink:href="#ma228d9e165" x="289.81201" y="138.338182" style="fill: #1f77b4; stroke: #1f77b4"/>
     <use xlink:href="#ma228d9e165" x="239.550125" y="138.338182" style="fill: #1f77b4; stroke: #1f77b4"/>
     <use xlink:href="#ma228d9e165" x="303.773645" y="143.28" style="fill: #1f77b4; stroke: #1f77b4"/>
     <use xlink:href="#ma228d9e165" x="96.210676" y="167.989091" style="fill: #1f77b4; stroke: #1f77b4"/>
     <use xlink:href="#ma228d9e165" x="260.027189" y="133.396364" style="fill: #1f77b4; stroke: #1f77b4"/>
     <use xlink:href="#ma228d9e165" x="284.227356" y="123.512727" style="fill: #1f77b4; stroke: #1f77b4"/>
     <use xlink:href="#ma228d9e165" x="262.819516" y="98.803636" style="fill: #1f77b4; stroke: #1f77b4"/>
     <use xlink:href="#ma228d9e165" x="251.650209" y="44.443636" style="fill: #1f77b4; stroke: #1f77b4"/>
     <use xlink:href="#ma228d9e165" x="272.127273" y="59.269091" style="fill: #1f77b4; stroke: #1f77b4"/>
     <use xlink:href="#ma228d9e165" x="283.29658" y="49.385455" style="fill: #1f77b4; stroke: #1f77b4"/>
     <use xlink:href="#ma228d9e165" x="237.688574" y="59.269091" style="fill: #1f77b4; stroke: #1f77b4"/>
     <use xlink:href="#ma228d9e165" x="218.142285" y="74.094545" style="fill: #1f77b4; stroke: #1f77b4"/>
     <use xlink:href="#ma228d9e165" x="246.065555" y="69.152727" style="fill: #1f77b4; stroke: #1f77b4"/>
     <use xlink:href="#ma228d9e165" x="233.034696" y="64.210909" style="fill: #1f77b4; stroke: #1f77b4"/>
     <use xlink:href="#ma228d9e165" x="238.619349" y="64.210909" style="fill: #1f77b4; stroke: #1f77b4"/>
     <use xlink:href="#ma228d9e165" x="151.126439" y="93.861818" style="fill: #1f77b4; stroke: #1f77b4"/>
     <use xlink:href="#ma228d9e165" x="148.334112" y="108.687273" style="fill: #1f77b4; stroke: #1f77b4"/>
     <use xlink:href="#ma228d9e165" x="297.258215" y="128.454545" style="fill: #1f77b4; stroke: #1f77b4"/>
     <use xlink:href="#ma228d9e165" x="267.473394" y="138.338182" style="fill: #1f77b4; stroke: #1f77b4"/>
     <use xlink:href="#ma228d9e165" x="276.781151" y="153.163636" style="fill: #1f77b4; stroke: #1f77b4"/>
     <use xlink:href="#ma228d9e165" x="303.773645" y="163.047273" style="fill: #1f77b4; stroke: #1f77b4"/>
     <use xlink:href="#ma228d9e165" x="282.365805" y="123.512727" style="fill: #1f77b4; stroke: #1f77b4"/>
     <use xlink:href="#ma228d9e165" x="303.773645" y="148.221818" style="fill: #1f77b4; stroke: #1f77b4"/>
     <use xlink:href="#ma228d9e165" x="284.227356" y="143.28" style="fill: #1f77b4; stroke: #1f77b4"/>
     <use xlink:href="#ma228d9e165" x="85.041368" y="172.930909" style="fill: #1f77b4; stroke: #1f77b4"/>
     <use xlink:href="#ma228d9e165" x="166.949625" y="172.930909" style="fill: #1f77b4; stroke: #1f77b4"/>
     <use xlink:href="#ma228d9e165" x="283.29658" y="138.338182" style="fill: #1f77b4; stroke: #1f77b4"/>
     <use xlink:href="#ma228d9e165" x="271.196497" y="192.698182" style="fill: #1f77b4; stroke: #1f77b4"/>
     <use xlink:href="#ma228d9e165" x="87.833695" y="148.221818" style="fill: #1f77b4; stroke: #1f77b4"/>
     <use xlink:href="#ma228d9e165" x="284.227356" y="187.756364" style="fill: #1f77b4; stroke: #1f77b4"/>
     <use xlink:href="#ma228d9e165" x="249.788657" y="118.570909" style="fill: #1f77b4; stroke: #1f77b4"/>
     <use xlink:href="#ma228d9e165" x="284.227356" y="207.523636" style="fill: #1f77b4; stroke: #1f77b4"/>
     <use xlink:href="#ma228d9e165" x="75.733611" y="172.930909" style="fill: #1f77b4; stroke: #1f77b4"/>
     <use xlink:href="#ma228d9e165" x="192.080567" y="123.512727" style="fill: #1f77b4; stroke: #1f77b4"/>
     <use xlink:href="#ma228d9e165" x="108.310759" y="182.814545" style="fill: #1f77b4; stroke: #1f77b4"/>
     <use xlink:href="#ma228d9e165" x="81.318265" y="212.465455" style="fill: #1f77b4; stroke: #1f77b4"/>
     <use xlink:href="#ma228d9e165" x="242.342452" y="177.872727" style="fill: #1f77b4; stroke: #1f77b4"/>
     <use xlink:href="#ma228d9e165" x="240.480901" y="153.163636" style="fill: #1f77b4; stroke: #1f77b4"/>
     <use xlink:href="#ma228d9e165" x="184.634362" y="148.221818" style="fill: #1f77b4; stroke: #1f77b4"/>
     <use xlink:href="#ma228d9e165" x="270.265721" y="187.756364" style="fill: #1f77b4; stroke: #1f77b4"/>
    </g>
   </g>
   <g id="matplotlib.axis_1">
    <g id="xtick_1">
     <g id="line2d_1">
      <defs>
       <path id="m8f00541c66" d="M 0 0 
L 0 3.5 
" style="stroke: #000000; stroke-width: 0.8"/>
      </defs>
      <g>
       <use xlink:href="#m8f00541c66" x="62.702752" y="252" style="stroke: #000000; stroke-width: 0.8"/>
      </g>
     </g>
     <g id="text_1">
      <!-- 0 -->
      <g transform="translate(59.521502 266.598437)scale(0.1 -0.1)">
       <defs>
        <path id="DejaVuSans-30" d="M 2034 4250 
Q 1547 4250 1301 3770 
Q 1056 3291 1056 2328 
Q 1056 1369 1301 889 
Q 1547 409 2034 409 
Q 2525 409 2770 889 
Q 3016 1369 3016 2328 
Q 3016 3291 2770 3770 
Q 2525 4250 2034 4250 
z
M 2034 4750 
Q 2819 4750 3233 4129 
Q 3647 3509 3647 2328 
Q 3647 1150 3233 529 
Q 2819 -91 2034 -91 
Q 1250 -91 836 529 
Q 422 1150 422 2328 
Q 422 3509 836 4129 
Q 1250 4750 2034 4750 
z
" transform="scale(0.015625)"/>
       </defs>
       <use xlink:href="#DejaVuSans-30"/>
      </g>
     </g>
    </g>
    <g id="xtick_2">
     <g id="line2d_2">
      <g>
       <use xlink:href="#m8f00541c66" x="109.241535" y="252" style="stroke: #000000; stroke-width: 0.8"/>
      </g>
     </g>
     <g id="text_2">
      <!-- 50 -->
      <g transform="translate(102.879035 266.598437)scale(0.1 -0.1)">
       <defs>
        <path id="DejaVuSans-35" d="M 691 4666 
L 3169 4666 
L 3169 4134 
L 1269 4134 
L 1269 2991 
Q 1406 3038 1543 3061 
Q 1681 3084 1819 3084 
Q 2600 3084 3056 2656 
Q 3513 2228 3513 1497 
Q 3513 744 3044 326 
Q 2575 -91 1722 -91 
Q 1428 -91 1123 -41 
Q 819 9 494 109 
L 494 744 
Q 775 591 1075 516 
Q 1375 441 1709 441 
Q 2250 441 2565 725 
Q 2881 1009 2881 1497 
Q 2881 1984 2565 2268 
Q 2250 2553 1709 2553 
Q 1456 2553 1204 2497 
Q 953 2441 691 2322 
L 691 4666 
z
" transform="scale(0.015625)"/>
       </defs>
       <use xlink:href="#DejaVuSans-35"/>
       <use xlink:href="#DejaVuSans-30" x="63.623047"/>
      </g>
     </g>
    </g>
    <g id="xtick_3">
     <g id="line2d_3">
      <g>
       <use xlink:href="#m8f00541c66" x="155.780317" y="252" style="stroke: #000000; stroke-width: 0.8"/>
      </g>
     </g>
     <g id="text_3">
      <!-- 100 -->
      <g transform="translate(146.236567 266.598437)scale(0.1 -0.1)">
       <defs>
        <path id="DejaVuSans-31" d="M 794 531 
L 1825 531 
L 1825 4091 
L 703 3866 
L 703 4441 
L 1819 4666 
L 2450 4666 
L 2450 531 
L 3481 531 
L 3481 0 
L 794 0 
L 794 531 
z
" transform="scale(0.015625)"/>
       </defs>
       <use xlink:href="#DejaVuSans-31"/>
       <use xlink:href="#DejaVuSans-30" x="63.623047"/>
       <use xlink:href="#DejaVuSans-30" x="127.246094"/>
      </g>
     </g>
    </g>
    <g id="xtick_4">
     <g id="line2d_4">
      <g>
       <use xlink:href="#m8f00541c66" x="202.319099" y="252" style="stroke: #000000; stroke-width: 0.8"/>
      </g>
     </g>
     <g id="text_4">
      <!-- 150 -->
      <g transform="translate(192.775349 266.598437)scale(0.1 -0.1)">
       <use xlink:href="#DejaVuSans-31"/>
       <use xlink:href="#DejaVuSans-35" x="63.623047"/>
       <use xlink:href="#DejaVuSans-30" x="127.246094"/>
      </g>
     </g>
    </g>
    <g id="xtick_5">
     <g id="line2d_5">
      <g>
       <use xlink:href="#m8f00541c66" x="248.857882" y="252" style="stroke: #000000; stroke-width: 0.8"/>
      </g>
     </g>
     <g id="text_5">
      <!-- 200 -->
      <g transform="translate(239.314132 266.598437)scale(0.1 -0.1)">
       <defs>
        <path id="DejaVuSans-32" d="M 1228 531 
L 3431 531 
L 3431 0 
L 469 0 
L 469 531 
Q 828 903 1448 1529 
Q 2069 2156 2228 2338 
Q 2531 2678 2651 2914 
Q 2772 3150 2772 3378 
Q 2772 3750 2511 3984 
Q 2250 4219 1831 4219 
Q 1534 4219 1204 4116 
Q 875 4013 500 3803 
L 500 4441 
Q 881 4594 1212 4672 
Q 1544 4750 1819 4750 
Q 2544 4750 2975 4387 
Q 3406 4025 3406 3419 
Q 3406 3131 3298 2873 
Q 3191 2616 2906 2266 
Q 2828 2175 2409 1742 
Q 1991 1309 1228 531 
z
" transform="scale(0.015625)"/>
       </defs>
       <use xlink:href="#DejaVuSans-32"/>
       <use xlink:href="#DejaVuSans-30" x="63.623047"/>
       <use xlink:href="#DejaVuSans-30" x="127.246094"/>
      </g>
     </g>
    </g>
    <g id="xtick_6">
     <g id="line2d_6">
      <g>
       <use xlink:href="#m8f00541c66" x="295.396664" y="252" style="stroke: #000000; stroke-width: 0.8"/>
      </g>
     </g>
     <g id="text_6">
      <!-- 250 -->
      <g transform="translate(285.852914 266.598437)scale(0.1 -0.1)">
       <use xlink:href="#DejaVuSans-32"/>
       <use xlink:href="#DejaVuSans-35" x="63.623047"/>
       <use xlink:href="#DejaVuSans-30" x="127.246094"/>
      </g>
     </g>
    </g>
    <g id="xtick_7">
     <g id="line2d_7">
      <g>
       <use xlink:href="#m8f00541c66" x="341.935446" y="252" style="stroke: #000000; stroke-width: 0.8"/>
      </g>
     </g>
     <g id="text_7">
      <!-- 300 -->
      <g transform="translate(332.391696 266.598437)scale(0.1 -0.1)">
       <defs>
        <path id="DejaVuSans-33" d="M 2597 2516 
Q 3050 2419 3304 2112 
Q 3559 1806 3559 1356 
Q 3559 666 3084 287 
Q 2609 -91 1734 -91 
Q 1441 -91 1130 -33 
Q 819 25 488 141 
L 488 750 
Q 750 597 1062 519 
Q 1375 441 1716 441 
Q 2309 441 2620 675 
Q 2931 909 2931 1356 
Q 2931 1769 2642 2001 
Q 2353 2234 1838 2234 
L 1294 2234 
L 1294 2753 
L 1863 2753 
Q 2328 2753 2575 2939 
Q 2822 3125 2822 3475 
Q 2822 3834 2567 4026 
Q 2313 4219 1838 4219 
Q 1578 4219 1281 4162 
Q 984 4106 628 3988 
L 628 4550 
Q 988 4650 1302 4700 
Q 1616 4750 1894 4750 
Q 2613 4750 3031 4423 
Q 3450 4097 3450 3541 
Q 3450 3153 3228 2886 
Q 3006 2619 2597 2516 
z
" transform="scale(0.015625)"/>
       </defs>
       <use xlink:href="#DejaVuSans-33"/>
       <use xlink:href="#DejaVuSans-30" x="63.623047"/>
       <use xlink:href="#DejaVuSans-30" x="127.246094"/>
      </g>
     </g>
    </g>
    <g id="xtick_8">
     <g id="line2d_8">
      <g>
       <use xlink:href="#m8f00541c66" x="388.474229" y="252" style="stroke: #000000; stroke-width: 0.8"/>
      </g>
     </g>
     <g id="text_8">
      <!-- 350 -->
      <g transform="translate(378.930479 266.598437)scale(0.1 -0.1)">
       <use xlink:href="#DejaVuSans-33"/>
       <use xlink:href="#DejaVuSans-35" x="63.623047"/>
       <use xlink:href="#DejaVuSans-30" x="127.246094"/>
      </g>
     </g>
    </g>
   </g>
   <g id="matplotlib.axis_2">
    <g id="ytick_1">
     <g id="line2d_9">
      <defs>
       <path id="md9179ffc41" d="M 0 0 
L -3.5 0 
" style="stroke: #000000; stroke-width: 0.8"/>
      </defs>
      <g>
       <use xlink:href="#md9179ffc41" x="54" y="252" style="stroke: #000000; stroke-width: 0.8"/>
      </g>
     </g>
     <g id="text_9">
      <!-- 55 -->
      <g transform="translate(34.275 255.799219)scale(0.1 -0.1)">
       <use xlink:href="#DejaVuSans-35"/>
       <use xlink:href="#DejaVuSans-35" x="63.623047"/>
      </g>
     </g>
    </g>
    <g id="ytick_2">
     <g id="line2d_10">
      <g>
       <use xlink:href="#md9179ffc41" x="54" y="227.290909" style="stroke: #000000; stroke-width: 0.8"/>
      </g>
     </g>
     <g id="text_10">
      <!-- 60 -->
      <g transform="translate(34.275 231.090128)scale(0.1 -0.1)">
       <defs>
        <path id="DejaVuSans-36" d="M 2113 2584 
Q 1688 2584 1439 2293 
Q 1191 2003 1191 1497 
Q 1191 994 1439 701 
Q 1688 409 2113 409 
Q 2538 409 2786 701 
Q 3034 994 3034 1497 
Q 3034 2003 2786 2293 
Q 2538 2584 2113 2584 
z
M 3366 4563 
L 3366 3988 
Q 3128 4100 2886 4159 
Q 2644 4219 2406 4219 
Q 1781 4219 1451 3797 
Q 1122 3375 1075 2522 
Q 1259 2794 1537 2939 
Q 1816 3084 2150 3084 
Q 2853 3084 3261 2657 
Q 3669 2231 3669 1497 
Q 3669 778 3244 343 
Q 2819 -91 2113 -91 
Q 1303 -91 875 529 
Q 447 1150 447 2328 
Q 447 3434 972 4092 
Q 1497 4750 2381 4750 
Q 2619 4750 2861 4703 
Q 3103 4656 3366 4563 
z
" transform="scale(0.015625)"/>
       </defs>
       <use xlink:href="#DejaVuSans-36"/>
       <use xlink:href="#DejaVuSans-30" x="63.623047"/>
      </g>
     </g>
    </g>
    <g id="ytick_3">
     <g id="line2d_11">
      <g>
       <use xlink:href="#md9179ffc41" x="54" y="202.581818" style="stroke: #000000; stroke-width: 0.8"/>
      </g>
     </g>
     <g id="text_11">
      <!-- 65 -->
      <g transform="translate(34.275 206.381037)scale(0.1 -0.1)">
       <use xlink:href="#DejaVuSans-36"/>
       <use xlink:href="#DejaVuSans-35" x="63.623047"/>
      </g>
     </g>
    </g>
    <g id="ytick_4">
     <g id="line2d_12">
      <g>
       <use xlink:href="#md9179ffc41" x="54" y="177.872727" style="stroke: #000000; stroke-width: 0.8"/>
      </g>
     </g>
     <g id="text_12">
      <!-- 70 -->
      <g transform="translate(34.275 181.671946)scale(0.1 -0.1)">
       <defs>
        <path id="DejaVuSans-37" d="M 525 4666 
L 3525 4666 
L 3525 4397 
L 1831 0 
L 1172 0 
L 2766 4134 
L 525 4134 
L 525 4666 
z
" transform="scale(0.015625)"/>
       </defs>
       <use xlink:href="#DejaVuSans-37"/>
       <use xlink:href="#DejaVuSans-30" x="63.623047"/>
      </g>
     </g>
    </g>
    <g id="ytick_5">
     <g id="line2d_13">
      <g>
       <use xlink:href="#md9179ffc41" x="54" y="153.163636" style="stroke: #000000; stroke-width: 0.8"/>
      </g>
     </g>
     <g id="text_13">
      <!-- 75 -->
      <g transform="translate(34.275 156.962855)scale(0.1 -0.1)">
       <use xlink:href="#DejaVuSans-37"/>
       <use xlink:href="#DejaVuSans-35" x="63.623047"/>
      </g>
     </g>
    </g>
    <g id="ytick_6">
     <g id="line2d_14">
      <g>
       <use xlink:href="#md9179ffc41" x="54" y="128.454545" style="stroke: #000000; stroke-width: 0.8"/>
      </g>
     </g>
     <g id="text_14">
      <!-- 80 -->
      <g transform="translate(34.275 132.253764)scale(0.1 -0.1)">
       <defs>
        <path id="DejaVuSans-38" d="M 2034 2216 
Q 1584 2216 1326 1975 
Q 1069 1734 1069 1313 
Q 1069 891 1326 650 
Q 1584 409 2034 409 
Q 2484 409 2743 651 
Q 3003 894 3003 1313 
Q 3003 1734 2745 1975 
Q 2488 2216 2034 2216 
z
M 1403 2484 
Q 997 2584 770 2862 
Q 544 3141 544 3541 
Q 544 4100 942 4425 
Q 1341 4750 2034 4750 
Q 2731 4750 3128 4425 
Q 3525 4100 3525 3541 
Q 3525 3141 3298 2862 
Q 3072 2584 2669 2484 
Q 3125 2378 3379 2068 
Q 3634 1759 3634 1313 
Q 3634 634 3220 271 
Q 2806 -91 2034 -91 
Q 1263 -91 848 271 
Q 434 634 434 1313 
Q 434 1759 690 2068 
Q 947 2378 1403 2484 
z
M 1172 3481 
Q 1172 3119 1398 2916 
Q 1625 2713 2034 2713 
Q 2441 2713 2670 2916 
Q 2900 3119 2900 3481 
Q 2900 3844 2670 4047 
Q 2441 4250 2034 4250 
Q 1625 4250 1398 4047 
Q 1172 3844 1172 3481 
z
" transform="scale(0.015625)"/>
       </defs>
       <use xlink:href="#DejaVuSans-38"/>
       <use xlink:href="#DejaVuSans-30" x="63.623047"/>
      </g>
     </g>
    </g>
    <g id="ytick_7">
     <g id="line2d_15">
      <g>
       <use xlink:href="#md9179ffc41" x="54" y="103.745455" style="stroke: #000000; stroke-width: 0.8"/>
      </g>
     </g>
     <g id="text_15">
      <!-- 85 -->
      <g transform="translate(34.275 107.544673)scale(0.1 -0.1)">
       <use xlink:href="#DejaVuSans-38"/>
       <use xlink:href="#DejaVuSans-35" x="63.623047"/>
      </g>
     </g>
    </g>
    <g id="ytick_8">
     <g id="line2d_16">
      <g>
       <use xlink:href="#md9179ffc41" x="54" y="79.036364" style="stroke: #000000; stroke-width: 0.8"/>
      </g>
     </g>
     <g id="text_16">
      <!-- 90 -->
      <g transform="translate(34.275 82.835582)scale(0.1 -0.1)">
       <defs>
        <path id="DejaVuSans-39" d="M 703 97 
L 703 672 
Q 941 559 1184 500 
Q 1428 441 1663 441 
Q 2288 441 2617 861 
Q 2947 1281 2994 2138 
Q 2813 1869 2534 1725 
Q 2256 1581 1919 1581 
Q 1219 1581 811 2004 
Q 403 2428 403 3163 
Q 403 3881 828 4315 
Q 1253 4750 1959 4750 
Q 2769 4750 3195 4129 
Q 3622 3509 3622 2328 
Q 3622 1225 3098 567 
Q 2575 -91 1691 -91 
Q 1453 -91 1209 -44 
Q 966 3 703 97 
z
M 1959 2075 
Q 2384 2075 2632 2365 
Q 2881 2656 2881 3163 
Q 2881 3666 2632 3958 
Q 2384 4250 1959 4250 
Q 1534 4250 1286 3958 
Q 1038 3666 1038 3163 
Q 1038 2656 1286 2365 
Q 1534 2075 1959 2075 
z
" transform="scale(0.015625)"/>
       </defs>
       <use xlink:href="#DejaVuSans-39"/>
       <use xlink:href="#DejaVuSans-30" x="63.623047"/>
      </g>
     </g>
    </g>
    <g id="ytick_9">
     <g id="line2d_17">
      <g>
       <use xlink:href="#md9179ffc41" x="54" y="54.327273" style="stroke: #000000; stroke-width: 0.8"/>
      </g>
     </g>
     <g id="text_17">
      <!-- 95 -->
      <g transform="translate(34.275 58.126491)scale(0.1 -0.1)">
       <use xlink:href="#DejaVuSans-39"/>
       <use xlink:href="#DejaVuSans-35" x="63.623047"/>
      </g>
     </g>
    </g>
   </g>
   <g id="patch_3">
    <path d="M 54 252 
L 54 34.56 
" style="fill: none; stroke: #000000; stroke-width: 0.8; stroke-linejoin: miter; stroke-linecap: square"/>
   </g>
   <g id="patch_4">
    <path d="M 388.8 252 
L 388.8 34.56 
" style="fill: none; stroke: #000000; stroke-width: 0.8; stroke-linejoin: miter; stroke-linecap: square"/>
   </g>
   <g id="patch_5">
    <path d="M 54 252 
L 388.8 252 
" style="fill: none; stroke: #000000; stroke-width: 0.8; stroke-linejoin: miter; stroke-linecap: square"/>
   </g>
   <g id="patch_6">
    <path d="M 54 34.56 
L 388.8 34.56 
" style="fill: none; stroke: #000000; stroke-width: 0.8; stroke-linejoin: miter; stroke-linecap: square"/>
   </g>
  </g>
 </g>
 <defs>
  <clipPath id="p6cfb9d441f">
   <rect x="54" y="34.56" width="334.8" height="217.44"/>
  </clipPath>
 </defs>
</svg>
