<?xml version="1.0" encoding="utf-8" standalone="no"?>
<!DOCTYPE svg PUBLIC "-//W3C//DTD SVG 1.1//EN"
  "http://www.w3.org/Graphics/SVG/1.1/DTD/svg11.dtd">
<svg xmlns:xlink="http://www.w3.org/1999/xlink" width="432pt" height="288pt" viewBox="0 0 432 288" xmlns="http://www.w3.org/2000/svg" version="1.1">
 <metadata>
  <rdf:RDF xmlns:dc="http://purl.org/dc/elements/1.1/" xmlns:cc="http://creativecommons.org/ns#" xmlns:rdf="http://www.w3.org/1999/02/22-rdf-syntax-ns#">
   <cc:Work>
    <dc:type rdf:resource="http://purl.org/dc/dcmitype/StillImage"/>
    <dc:date>2022-06-15T19:05:16.016418</dc:date>
    <dc:format>image/svg+xml</dc:format>
    <dc:creator>
     <cc:Agent>
      <dc:title>Matplotlib v3.5.2, https://matplotlib.org/</dc:title>
     </cc:Agent>
    </dc:creator>
   </cc:Work>
  </rdf:RDF>
 </metadata>
 <defs>
  <style type="text/css">*{stroke-linejoin: round; stroke-linecap: butt}</style>
 </defs>
 <g id="figure_1">
  <g id="patch_1">
   <path d="M 0 288 
L 432 288 
L 432 0 
L 0 0 
L 0 288 
z
" style="fill: none"/>
  </g>
  <g id="axes_1">
   <g id="patch_2">
    <path d="M 54 252 
L 388.8 252 
L 388.8 34.56 
L 54 34.56 
z
" style="fill: #ffffff"/>
   </g>
   <g id="PathCollection_1">
    <defs>
     <path id="mb0430d3789" d="M 0 3 
C 0.795609 3 1.55874 2.683901 2.12132 2.12132 
C 2.683901 1.55874 3 0.795609 3 0 
C 3 -0.795609 2.683901 -1.55874 2.12132 -2.12132 
C 1.55874 -2.683901 0.795609 -3 0 -3 
C -0.795609 -3 -1.55874 -2.683901 -2.12132 -2.12132 
C -2.683901 -1.55874 -3 -0.795609 -3 0 
C -3 0.795609 -2.683901 1.55874 -2.12132 2.12132 
C -1.55874 2.683901 -0.795609 3 0 3 
z
" style="stroke: #1f77b4"/>
    </defs>
    <g clip-path="url(#p2997e94d2e)">
     <use xlink:href="#mb0430d3789" x="142.119652" y="187.32664" style="fill: #1f77b4; stroke: #1f77b4"/>
     <use xlink:href="#mb0430d3789" x="133.006968" y="180.880791" style="fill: #1f77b4; stroke: #1f77b4"/>
     <use xlink:href="#mb0430d3789" x="89.266086" y="131.462609" style="fill: #1f77b4; stroke: #1f77b4"/>
     <use xlink:href="#mb0430d3789" x="100.201306" y="143.28" style="fill: #1f77b4; stroke: #1f77b4"/>
     <use xlink:href="#mb0430d3789" x="109.31399" y="174.434941" style="fill: #1f77b4; stroke: #1f77b4"/>
     <use xlink:href="#mb0430d3789" x="102.023843" y="118.570909" style="fill: #1f77b4; stroke: #1f77b4"/>
     <use xlink:href="#mb0430d3789" x="81.975939" y="50.889486" style="fill: #1f77b4; stroke: #1f77b4"/>
     <use xlink:href="#mb0430d3789" x="96.556233" y="162.617549" style="fill: #1f77b4; stroke: #1f77b4"/>
     <use xlink:href="#mb0430d3789" x="87.443549" y="167.989091" style="fill: #1f77b4; stroke: #1f77b4"/>
     <use xlink:href="#mb0430d3789" x="92.911159" y="149.72585" style="fill: #1f77b4; stroke: #1f77b4"/>
     <use xlink:href="#mb0430d3789" x="100.201306" y="125.016759" style="fill: #1f77b4; stroke: #1f77b4"/>
     <use xlink:href="#mb0430d3789" x="92.911159" y="143.28" style="fill: #1f77b4; stroke: #1f77b4"/>
     <use xlink:href="#mb0430d3789" x="129.361894" y="137.908458" style="fill: #1f77b4; stroke: #1f77b4"/>
     <use xlink:href="#mb0430d3789" x="78.330866" y="69.152727" style="fill: #1f77b4; stroke: #1f77b4"/>
     <use xlink:href="#mb0430d3789" x="122.071747" y="143.28" style="fill: #1f77b4; stroke: #1f77b4"/>
     <use xlink:href="#mb0430d3789" x="87.443549" y="162.617549" style="fill: #1f77b4; stroke: #1f77b4"/>
     <use xlink:href="#mb0430d3789" x="69.218182" y="162.617549" style="fill: #1f77b4; stroke: #1f77b4"/>
     <use xlink:href="#mb0430d3789" x="87.443549" y="88.490277" style="fill: #1f77b4; stroke: #1f77b4"/>
     <use xlink:href="#mb0430d3789" x="74.685792" y="162.617549" style="fill: #1f77b4; stroke: #1f77b4"/>
     <use xlink:href="#mb0430d3789" x="125.716821" y="137.908458" style="fill: #1f77b4; stroke: #1f77b4"/>
     <use xlink:href="#mb0430d3789" x="109.31399" y="137.908458" style="fill: #1f77b4; stroke: #1f77b4"/>
     <use xlink:href="#mb0430d3789" x="149.409799" y="106.753518" style="fill: #1f77b4; stroke: #1f77b4"/>
     <use xlink:href="#mb0430d3789" x="276.987371" y="205.589881" style="fill: #1f77b4; stroke: #1f77b4"/>
     <use xlink:href="#mb0430d3789" x="134.829505" y="187.32664" style="fill: #1f77b4; stroke: #1f77b4"/>
     <use xlink:href="#mb0430d3789" x="120.249211" y="162.617549" style="fill: #1f77b4; stroke: #1f77b4"/>
     <use xlink:href="#mb0430d3789" x="196.795754" y="118.570909" style="fill: #1f77b4; stroke: #1f77b4"/>
     <use xlink:href="#mb0430d3789" x="138.474578" y="143.28" style="fill: #1f77b4; stroke: #1f77b4"/>
     <use xlink:href="#mb0430d3789" x="109.31399" y="180.880791" style="fill: #1f77b4; stroke: #1f77b4"/>
     <use xlink:href="#mb0430d3789" x="105.668917" y="106.753518" style="fill: #1f77b4; stroke: #1f77b4"/>
     <use xlink:href="#mb0430d3789" x="134.829505" y="44.443636" style="fill: #1f77b4; stroke: #1f77b4"/>
     <use xlink:href="#mb0430d3789" x="103.84638" y="167.989091" style="fill: #1f77b4; stroke: #1f77b4"/>
     <use xlink:href="#mb0430d3789" x="89.266086" y="143.28" style="fill: #1f77b4; stroke: #1f77b4"/>
     <use xlink:href="#mb0430d3789" x="91.088623" y="156.1717" style="fill: #1f77b4; stroke: #1f77b4"/>
     <use xlink:href="#mb0430d3789" x="313.438106" y="223.853123" style="fill: #1f77b4; stroke: #1f77b4"/>
     <use xlink:href="#mb0430d3789" x="156.699946" y="167.989091" style="fill: #1f77b4; stroke: #1f77b4"/>
     <use xlink:href="#mb0430d3789" x="125.716821" y="167.989091" style="fill: #1f77b4; stroke: #1f77b4"/>
     <use xlink:href="#mb0430d3789" x="184.037997" y="217.407273" style="fill: #1f77b4; stroke: #1f77b4"/>
     <use xlink:href="#mb0430d3789" x="140.297115" y="149.72585" style="fill: #1f77b4; stroke: #1f77b4"/>
     <use xlink:href="#mb0430d3789" x="207.730974" y="212.035731" style="fill: #1f77b4; stroke: #1f77b4"/>
     <use xlink:href="#mb0430d3789" x="244.181709" y="199.144032" style="fill: #1f77b4; stroke: #1f77b4"/>
     <use xlink:href="#mb0430d3789" x="244.181709" y="205.589881" style="fill: #1f77b4; stroke: #1f77b4"/>
     <use xlink:href="#mb0430d3789" x="222.311268" y="187.32664" style="fill: #1f77b4; stroke: #1f77b4"/>
     <use xlink:href="#mb0430d3789" x="85.621013" y="113.199368" style="fill: #1f77b4; stroke: #1f77b4"/>
     <use xlink:href="#mb0430d3789" x="116.604137" y="106.753518" style="fill: #1f77b4; stroke: #1f77b4"/>
     <use xlink:href="#mb0430d3789" x="80.153402" y="113.199368" style="fill: #1f77b4; stroke: #1f77b4"/>
     <use xlink:href="#mb0430d3789" x="154.877409" y="192.698182" style="fill: #1f77b4; stroke: #1f77b4"/>
     <use xlink:href="#mb0430d3789" x="131.184431" y="156.1717" style="fill: #1f77b4; stroke: #1f77b4"/>
     <use xlink:href="#mb0430d3789" x="178.570386" y="199.144032" style="fill: #1f77b4; stroke: #1f77b4"/>
     <use xlink:href="#mb0430d3789" x="211.376048" y="212.035731" style="fill: #1f77b4; stroke: #1f77b4"/>
     <use xlink:href="#mb0430d3789" x="182.21546" y="143.28" style="fill: #1f77b4; stroke: #1f77b4"/>
     <use xlink:href="#mb0430d3789" x="96.556233" y="192.698182" style="fill: #1f77b4; stroke: #1f77b4"/>
     <use xlink:href="#mb0430d3789" x="213.198585" y="174.434941" style="fill: #1f77b4; stroke: #1f77b4"/>
     <use xlink:href="#mb0430d3789" x="264.229614" y="180.880791" style="fill: #1f77b4; stroke: #1f77b4"/>
     <use xlink:href="#mb0430d3789" x="103.84638" y="174.434941" style="fill: #1f77b4; stroke: #1f77b4"/>
     <use xlink:href="#mb0430d3789" x="162.167556" y="137.908458" style="fill: #1f77b4; stroke: #1f77b4"/>
     <use xlink:href="#mb0430d3789" x="216.843658" y="187.32664" style="fill: #1f77b4; stroke: #1f77b4"/>
     <use xlink:href="#mb0430d3789" x="158.522482" y="187.32664" style="fill: #1f77b4; stroke: #1f77b4"/>
     <use xlink:href="#mb0430d3789" x="184.037997" y="187.32664" style="fill: #1f77b4; stroke: #1f77b4"/>
     <use xlink:href="#mb0430d3789" x="174.925313" y="167.989091" style="fill: #1f77b4; stroke: #1f77b4"/>
     <use xlink:href="#mb0430d3789" x="138.474578" y="192.698182" style="fill: #1f77b4; stroke: #1f77b4"/>
     <use xlink:href="#mb0430d3789" x="83.798476" y="118.570909" style="fill: #1f77b4; stroke: #1f77b4"/>
     <use xlink:href="#mb0430d3789" x="96.556233" y="187.32664" style="fill: #1f77b4; stroke: #1f77b4"/>
     <use xlink:href="#mb0430d3789" x="289.745128" y="223.853123" style="fill: #1f77b4; stroke: #1f77b4"/>
     <use xlink:href="#mb0430d3789" x="229.601415" y="156.1717" style="fill: #1f77b4; stroke: #1f77b4"/>
     <use xlink:href="#mb0430d3789" x="267.874687" y="180.880791" style="fill: #1f77b4; stroke: #1f77b4"/>
     <use xlink:href="#mb0430d3789" x="147.587262" y="143.28" style="fill: #1f77b4; stroke: #1f77b4"/>
     <use xlink:href="#mb0430d3789" x="118.426674" y="143.28" style="fill: #1f77b4; stroke: #1f77b4"/>
     <use xlink:href="#mb0430d3789" x="185.860533" y="162.617549" style="fill: #1f77b4; stroke: #1f77b4"/>
     <use xlink:href="#mb0430d3789" x="107.491453" y="156.1717" style="fill: #1f77b4; stroke: #1f77b4"/>
     <use xlink:href="#mb0430d3789" x="174.925313" y="199.144032" style="fill: #1f77b4; stroke: #1f77b4"/>
     <use xlink:href="#mb0430d3789" x="109.31399" y="187.32664" style="fill: #1f77b4; stroke: #1f77b4"/>
     <use xlink:href="#mb0430d3789" x="123.894284" y="149.72585" style="fill: #1f77b4; stroke: #1f77b4"/>
     <use xlink:href="#mb0430d3789" x="147.587262" y="156.1717" style="fill: #1f77b4; stroke: #1f77b4"/>
     <use xlink:href="#mb0430d3789" x="105.668917" y="100.307668" style="fill: #1f77b4; stroke: #1f77b4"/>
     <use xlink:href="#mb0430d3789" x="83.798476" y="113.199368" style="fill: #1f77b4; stroke: #1f77b4"/>
     <use xlink:href="#mb0430d3789" x="149.409799" y="162.617549" style="fill: #1f77b4; stroke: #1f77b4"/>
     <use xlink:href="#mb0430d3789" x="373.581818" y="230.298972" style="fill: #1f77b4; stroke: #1f77b4"/>
     <use xlink:href="#mb0430d3789" x="200.440827" y="180.880791" style="fill: #1f77b4; stroke: #1f77b4"/>
     <use xlink:href="#mb0430d3789" x="205.908438" y="162.617549" style="fill: #1f77b4; stroke: #1f77b4"/>
     <use xlink:href="#mb0430d3789" x="282.454981" y="242.116364" style="fill: #1f77b4; stroke: #1f77b4"/>
     <use xlink:href="#mb0430d3789" x="220.488732" y="199.144032" style="fill: #1f77b4; stroke: #1f77b4"/>
     <use xlink:href="#mb0430d3789" x="222.311268" y="199.144032" style="fill: #1f77b4; stroke: #1f77b4"/>
     <use xlink:href="#mb0430d3789" x="242.359173" y="192.698182" style="fill: #1f77b4; stroke: #1f77b4"/>
     <use xlink:href="#mb0430d3789" x="209.553511" y="212.035731" style="fill: #1f77b4; stroke: #1f77b4"/>
     <use xlink:href="#mb0430d3789" x="200.440827" y="236.744822" style="fill: #1f77b4; stroke: #1f77b4"/>
     <use xlink:href="#mb0430d3789" x="233.246489" y="217.407273" style="fill: #1f77b4; stroke: #1f77b4"/>
     <use xlink:href="#mb0430d3789" x="153.054872" y="187.32664" style="fill: #1f77b4; stroke: #1f77b4"/>
     <use xlink:href="#mb0430d3789" x="125.716821" y="100.307668" style="fill: #1f77b4; stroke: #1f77b4"/>
     <use xlink:href="#mb0430d3789" x="103.84638" y="149.72585" style="fill: #1f77b4; stroke: #1f77b4"/>
     <use xlink:href="#mb0430d3789" x="109.31399" y="156.1717" style="fill: #1f77b4; stroke: #1f77b4"/>
     <use xlink:href="#mb0430d3789" x="105.668917" y="149.72585" style="fill: #1f77b4; stroke: #1f77b4"/>
     <use xlink:href="#mb0430d3789" x="111.136527" y="162.617549" style="fill: #1f77b4; stroke: #1f77b4"/>
     <use xlink:href="#mb0430d3789" x="147.587262" y="106.753518" style="fill: #1f77b4; stroke: #1f77b4"/>
     <use xlink:href="#mb0430d3789" x="105.668917" y="100.307668" style="fill: #1f77b4; stroke: #1f77b4"/>
     <use xlink:href="#mb0430d3789" x="118.426674" y="199.144032" style="fill: #1f77b4; stroke: #1f77b4"/>
     <use xlink:href="#mb0430d3789" x="83.798476" y="149.72585" style="fill: #1f77b4; stroke: #1f77b4"/>
     <use xlink:href="#mb0430d3789" x="91.088623" y="143.28" style="fill: #1f77b4; stroke: #1f77b4"/>
     <use xlink:href="#mb0430d3789" x="151.232335" y="192.698182" style="fill: #1f77b4; stroke: #1f77b4"/>
     <use xlink:href="#mb0430d3789" x="100.201306" y="118.570909" style="fill: #1f77b4; stroke: #1f77b4"/>
     <use xlink:href="#mb0430d3789" x="91.088623" y="156.1717" style="fill: #1f77b4; stroke: #1f77b4"/>
     <use xlink:href="#mb0430d3789" x="111.136527" y="156.1717" style="fill: #1f77b4; stroke: #1f77b4"/>
     <use xlink:href="#mb0430d3789" x="96.556233" y="180.880791" style="fill: #1f77b4; stroke: #1f77b4"/>
     <use xlink:href="#mb0430d3789" x="91.088623" y="131.462609" style="fill: #1f77b4; stroke: #1f77b4"/>
     <use xlink:href="#mb0430d3789" x="109.31399" y="167.989091" style="fill: #1f77b4; stroke: #1f77b4"/>
     <use xlink:href="#mb0430d3789" x="133.006968" y="156.1717" style="fill: #1f77b4; stroke: #1f77b4"/>
     <use xlink:href="#mb0430d3789" x="80.153402" y="156.1717" style="fill: #1f77b4; stroke: #1f77b4"/>
     <use xlink:href="#mb0430d3789" x="92.911159" y="88.490277" style="fill: #1f77b4; stroke: #1f77b4"/>
     <use xlink:href="#mb0430d3789" x="122.071747" y="192.698182" style="fill: #1f77b4; stroke: #1f77b4"/>
     <use xlink:href="#mb0430d3789" x="92.911159" y="113.199368" style="fill: #1f77b4; stroke: #1f77b4"/>
     <use xlink:href="#mb0430d3789" x="100.201306" y="180.880791" style="fill: #1f77b4; stroke: #1f77b4"/>
     <use xlink:href="#mb0430d3789" x="103.84638" y="143.28" style="fill: #1f77b4; stroke: #1f77b4"/>
    </g>
   </g>
   <g id="matplotlib.axis_1">
    <g id="xtick_1">
     <g id="line2d_1">
      <defs>
       <path id="m57f84793a3" d="M 0 0 
L 0 3.5 
" style="stroke: #000000; stroke-width: 0.8"/>
      </defs>
      <g>
       <use xlink:href="#m57f84793a3" x="67.395645" y="252" style="stroke: #000000; stroke-width: 0.8"/>
      </g>
     </g>
     <g id="text_1">
      <!-- 0 -->
      <g transform="translate(64.214395 266.598437)scale(0.1 -0.1)">
       <defs>
        <path id="DejaVuSans-30" d="M 2034 4250 
Q 1547 4250 1301 3770 
Q 1056 3291 1056 2328 
Q 1056 1369 1301 889 
Q 1547 409 2034 409 
Q 2525 409 2770 889 
Q 3016 1369 3016 2328 
Q 3016 3291 2770 3770 
Q 2525 4250 2034 4250 
z
M 2034 4750 
Q 2819 4750 3233 4129 
Q 3647 3509 3647 2328 
Q 3647 1150 3233 529 
Q 2819 -91 2034 -91 
Q 1250 -91 836 529 
Q 422 1150 422 2328 
Q 422 3509 836 4129 
Q 1250 4750 2034 4750 
z
" transform="scale(0.015625)"/>
       </defs>
       <use xlink:href="#DejaVuSans-30"/>
      </g>
     </g>
    </g>
    <g id="xtick_2">
     <g id="line2d_2">
      <g>
       <use xlink:href="#m57f84793a3" x="112.959064" y="252" style="stroke: #000000; stroke-width: 0.8"/>
      </g>
     </g>
     <g id="text_2">
      <!-- 25 -->
      <g transform="translate(106.596564 266.598437)scale(0.1 -0.1)">
       <defs>
        <path id="DejaVuSans-32" d="M 1228 531 
L 3431 531 
L 3431 0 
L 469 0 
L 469 531 
Q 828 903 1448 1529 
Q 2069 2156 2228 2338 
Q 2531 2678 2651 2914 
Q 2772 3150 2772 3378 
Q 2772 3750 2511 3984 
Q 2250 4219 1831 4219 
Q 1534 4219 1204 4116 
Q 875 4013 500 3803 
L 500 4441 
Q 881 4594 1212 4672 
Q 1544 4750 1819 4750 
Q 2544 4750 2975 4387 
Q 3406 4025 3406 3419 
Q 3406 3131 3298 2873 
Q 3191 2616 2906 2266 
Q 2828 2175 2409 1742 
Q 1991 1309 1228 531 
z
" transform="scale(0.015625)"/>
        <path id="DejaVuSans-35" d="M 691 4666 
L 3169 4666 
L 3169 4134 
L 1269 4134 
L 1269 2991 
Q 1406 3038 1543 3061 
Q 1681 3084 1819 3084 
Q 2600 3084 3056 2656 
Q 3513 2228 3513 1497 
Q 3513 744 3044 326 
Q 2575 -91 1722 -91 
Q 1428 -91 1123 -41 
Q 819 9 494 109 
L 494 744 
Q 775 591 1075 516 
Q 1375 441 1709 441 
Q 2250 441 2565 725 
Q 2881 1009 2881 1497 
Q 2881 1984 2565 2268 
Q 2250 2553 1709 2553 
Q 1456 2553 1204 2497 
Q 953 2441 691 2322 
L 691 4666 
z
" transform="scale(0.015625)"/>
       </defs>
       <use xlink:href="#DejaVuSans-32"/>
       <use xlink:href="#DejaVuSans-35" x="63.623047"/>
      </g>
     </g>
    </g>
    <g id="xtick_3">
     <g id="line2d_3">
      <g>
       <use xlink:href="#m57f84793a3" x="158.522482" y="252" style="stroke: #000000; stroke-width: 0.8"/>
      </g>
     </g>
     <g id="text_3">
      <!-- 50 -->
      <g transform="translate(152.159982 266.598437)scale(0.1 -0.1)">
       <use xlink:href="#DejaVuSans-35"/>
       <use xlink:href="#DejaVuSans-30" x="63.623047"/>
      </g>
     </g>
    </g>
    <g id="xtick_4">
     <g id="line2d_4">
      <g>
       <use xlink:href="#m57f84793a3" x="204.085901" y="252" style="stroke: #000000; stroke-width: 0.8"/>
      </g>
     </g>
     <g id="text_4">
      <!-- 75 -->
      <g transform="translate(197.723401 266.598437)scale(0.1 -0.1)">
       <defs>
        <path id="DejaVuSans-37" d="M 525 4666 
L 3525 4666 
L 3525 4397 
L 1831 0 
L 1172 0 
L 2766 4134 
L 525 4134 
L 525 4666 
z
" transform="scale(0.015625)"/>
       </defs>
       <use xlink:href="#DejaVuSans-37"/>
       <use xlink:href="#DejaVuSans-35" x="63.623047"/>
      </g>
     </g>
    </g>
    <g id="xtick_5">
     <g id="line2d_5">
      <g>
       <use xlink:href="#m57f84793a3" x="249.64932" y="252" style="stroke: #000000; stroke-width: 0.8"/>
      </g>
     </g>
     <g id="text_5">
      <!-- 100 -->
      <g transform="translate(240.10557 266.598437)scale(0.1 -0.1)">
       <defs>
        <path id="DejaVuSans-31" d="M 794 531 
L 1825 531 
L 1825 4091 
L 703 3866 
L 703 4441 
L 1819 4666 
L 2450 4666 
L 2450 531 
L 3481 531 
L 3481 0 
L 794 0 
L 794 531 
z
" transform="scale(0.015625)"/>
       </defs>
       <use xlink:href="#DejaVuSans-31"/>
       <use xlink:href="#DejaVuSans-30" x="63.623047"/>
       <use xlink:href="#DejaVuSans-30" x="127.246094"/>
      </g>
     </g>
    </g>
    <g id="xtick_6">
     <g id="line2d_6">
      <g>
       <use xlink:href="#m57f84793a3" x="295.212738" y="252" style="stroke: #000000; stroke-width: 0.8"/>
      </g>
     </g>
     <g id="text_6">
      <!-- 125 -->
      <g transform="translate(285.668988 266.598437)scale(0.1 -0.1)">
       <use xlink:href="#DejaVuSans-31"/>
       <use xlink:href="#DejaVuSans-32" x="63.623047"/>
       <use xlink:href="#DejaVuSans-35" x="127.246094"/>
      </g>
     </g>
    </g>
    <g id="xtick_7">
     <g id="line2d_7">
      <g>
       <use xlink:href="#m57f84793a3" x="340.776157" y="252" style="stroke: #000000; stroke-width: 0.8"/>
      </g>
     </g>
     <g id="text_7">
      <!-- 150 -->
      <g transform="translate(331.232407 266.598437)scale(0.1 -0.1)">
       <use xlink:href="#DejaVuSans-31"/>
       <use xlink:href="#DejaVuSans-35" x="63.623047"/>
       <use xlink:href="#DejaVuSans-30" x="127.246094"/>
      </g>
     </g>
    </g>
    <g id="xtick_8">
     <g id="line2d_8">
      <g>
       <use xlink:href="#m57f84793a3" x="386.339575" y="252" style="stroke: #000000; stroke-width: 0.8"/>
      </g>
     </g>
     <g id="text_8">
      <!-- 175 -->
      <g transform="translate(376.795825 266.598437)scale(0.1 -0.1)">
       <use xlink:href="#DejaVuSans-31"/>
       <use xlink:href="#DejaVuSans-37" x="63.623047"/>
       <use xlink:href="#DejaVuSans-35" x="127.246094"/>
      </g>
     </g>
    </g>
   </g>
   <g id="matplotlib.axis_2">
    <g id="ytick_1">
     <g id="line2d_9">
      <defs>
       <path id="mf0f6c1a476" d="M 0 0 
L -3.5 0 
" style="stroke: #000000; stroke-width: 0.8"/>
      </defs>
      <g>
       <use xlink:href="#mf0f6c1a476" x="54" y="239.967747" style="stroke: #000000; stroke-width: 0.8"/>
      </g>
     </g>
     <g id="text_9">
      <!-- 2.5 -->
      <g transform="translate(31.096875 243.766966)scale(0.1 -0.1)">
       <defs>
        <path id="DejaVuSans-2e" d="M 684 794 
L 1344 794 
L 1344 0 
L 684 0 
L 684 794 
z
" transform="scale(0.015625)"/>
       </defs>
       <use xlink:href="#DejaVuSans-32"/>
       <use xlink:href="#DejaVuSans-2e" x="63.623047"/>
       <use xlink:href="#DejaVuSans-35" x="95.410156"/>
      </g>
     </g>
    </g>
    <g id="ytick_2">
     <g id="line2d_10">
      <g>
       <use xlink:href="#mf0f6c1a476" x="54" y="213.11004" style="stroke: #000000; stroke-width: 0.8"/>
      </g>
     </g>
     <g id="text_10">
      <!-- 5.0 -->
      <g transform="translate(31.096875 216.909258)scale(0.1 -0.1)">
       <use xlink:href="#DejaVuSans-35"/>
       <use xlink:href="#DejaVuSans-2e" x="63.623047"/>
       <use xlink:href="#DejaVuSans-30" x="95.410156"/>
      </g>
     </g>
    </g>
    <g id="ytick_3">
     <g id="line2d_11">
      <g>
       <use xlink:href="#mf0f6c1a476" x="54" y="186.252332" style="stroke: #000000; stroke-width: 0.8"/>
      </g>
     </g>
     <g id="text_11">
      <!-- 7.5 -->
      <g transform="translate(31.096875 190.051551)scale(0.1 -0.1)">
       <use xlink:href="#DejaVuSans-37"/>
       <use xlink:href="#DejaVuSans-2e" x="63.623047"/>
       <use xlink:href="#DejaVuSans-35" x="95.410156"/>
      </g>
     </g>
    </g>
    <g id="ytick_4">
     <g id="line2d_12">
      <g>
       <use xlink:href="#mf0f6c1a476" x="54" y="159.394625" style="stroke: #000000; stroke-width: 0.8"/>
      </g>
     </g>
     <g id="text_12">
      <!-- 10.0 -->
      <g transform="translate(24.734375 163.193843)scale(0.1 -0.1)">
       <use xlink:href="#DejaVuSans-31"/>
       <use xlink:href="#DejaVuSans-30" x="63.623047"/>
       <use xlink:href="#DejaVuSans-2e" x="127.246094"/>
       <use xlink:href="#DejaVuSans-30" x="159.033203"/>
      </g>
     </g>
    </g>
    <g id="ytick_5">
     <g id="line2d_13">
      <g>
       <use xlink:href="#mf0f6c1a476" x="54" y="132.536917" style="stroke: #000000; stroke-width: 0.8"/>
      </g>
     </g>
     <g id="text_13">
      <!-- 12.5 -->
      <g transform="translate(24.734375 136.336136)scale(0.1 -0.1)">
       <use xlink:href="#DejaVuSans-31"/>
       <use xlink:href="#DejaVuSans-32" x="63.623047"/>
       <use xlink:href="#DejaVuSans-2e" x="127.246094"/>
       <use xlink:href="#DejaVuSans-35" x="159.033203"/>
      </g>
     </g>
    </g>
    <g id="ytick_6">
     <g id="line2d_14">
      <g>
       <use xlink:href="#mf0f6c1a476" x="54" y="105.679209" style="stroke: #000000; stroke-width: 0.8"/>
      </g>
     </g>
     <g id="text_14">
      <!-- 15.0 -->
      <g transform="translate(24.734375 109.478428)scale(0.1 -0.1)">
       <use xlink:href="#DejaVuSans-31"/>
       <use xlink:href="#DejaVuSans-35" x="63.623047"/>
       <use xlink:href="#DejaVuSans-2e" x="127.246094"/>
       <use xlink:href="#DejaVuSans-30" x="159.033203"/>
      </g>
     </g>
    </g>
    <g id="ytick_7">
     <g id="line2d_15">
      <g>
       <use xlink:href="#mf0f6c1a476" x="54" y="78.821502" style="stroke: #000000; stroke-width: 0.8"/>
      </g>
     </g>
     <g id="text_15">
      <!-- 17.5 -->
      <g transform="translate(24.734375 82.620721)scale(0.1 -0.1)">
       <use xlink:href="#DejaVuSans-31"/>
       <use xlink:href="#DejaVuSans-37" x="63.623047"/>
       <use xlink:href="#DejaVuSans-2e" x="127.246094"/>
       <use xlink:href="#DejaVuSans-35" x="159.033203"/>
      </g>
     </g>
    </g>
    <g id="ytick_8">
     <g id="line2d_16">
      <g>
       <use xlink:href="#mf0f6c1a476" x="54" y="51.963794" style="stroke: #000000; stroke-width: 0.8"/>
      </g>
     </g>
     <g id="text_16">
      <!-- 20.0 -->
      <g transform="translate(24.734375 55.763013)scale(0.1 -0.1)">
       <use xlink:href="#DejaVuSans-32"/>
       <use xlink:href="#DejaVuSans-30" x="63.623047"/>
       <use xlink:href="#DejaVuSans-2e" x="127.246094"/>
       <use xlink:href="#DejaVuSans-30" x="159.033203"/>
      </g>
     </g>
    </g>
   </g>
   <g id="patch_3">
    <path d="M 54 252 
L 54 34.56 
" style="fill: none; stroke: #000000; stroke-width: 0.8; stroke-linejoin: miter; stroke-linecap: square"/>
   </g>
   <g id="patch_4">
    <path d="M 388.8 252 
L 388.8 34.56 
" style="fill: none; stroke: #000000; stroke-width: 0.8; stroke-linejoin: miter; stroke-linecap: square"/>
   </g>
   <g id="patch_5">
    <path d="M 54 252 
L 388.8 252 
" style="fill: none; stroke: #000000; stroke-width: 0.8; stroke-linejoin: miter; stroke-linecap: square"/>
   </g>
   <g id="patch_6">
    <path d="M 54 34.56 
L 388.8 34.56 
" style="fill: none; stroke: #000000; stroke-width: 0.8; stroke-linejoin: miter; stroke-linecap: square"/>
   </g>
  </g>
 </g>
 <defs>
  <clipPath id="p2997e94d2e">
   <rect x="54" y="34.56" width="334.8" height="217.44"/>
  </clipPath>
 </defs>
</svg>
